<svg width="32" height="32" viewBox="0 0 32 32" fill="none" xmlns="http://www.w3.org/2000/svg">
<g clip-path="url(#clip0_24_184)">
<path d="M30.6939 2.58548H26.449V1.31894C26.449 0.969185 26.1566 0.685669 25.7959 0.685669H23.1837C22.823 0.685669 22.5306 0.969185 22.5306 1.31894V2.58548H17.9592V1.31894C17.9592 0.969185 17.6668 0.685669 17.3061 0.685669H14.6939C14.3332 0.685669 14.0408 0.969185 14.0408 1.31894V2.58548H9.46939V1.31894C9.46939 0.969185 9.17701 0.685669 8.81633 0.685669H6.20408C5.8434 0.685669 5.55102 0.969185 5.55102 1.31894V2.58548H1.30612C0.585927 2.58548 0 3.15365 0 3.85203V30.4494C0 31.1478 0.585927 31.716 1.30612 31.716H30.6939C31.4141 31.716 32 31.1478 32 30.4494V3.85203C32 3.15365 31.4141 2.58548 30.6939 2.58548ZM23.8367 1.95221H25.1429V6.38511H23.8367V1.95221ZM15.3469 1.95221H16.6531V6.38511H15.3469V1.95221ZM6.85714 1.95221H8.16327V6.38511H6.85714V1.95221ZM30.6939 30.4494H1.30612V10.818H30.6939V30.4494ZM30.6939 9.55147H1.30612V3.85203H5.55102V7.01838C5.55102 7.36814 5.8434 7.65166 6.20408 7.65166H8.81633C9.17701 7.65166 9.46939 7.36814 9.46939 7.01838V3.85203H14.0408V7.01838C14.0408 7.36814 14.3332 7.65166 14.6939 7.65166H17.3061C17.6668 7.65166 17.9592 7.36814 17.9592 7.01838V3.85203H22.5306V7.01838C22.5306 7.36814 22.823 7.65166 23.1837 7.65166H25.7959C26.1566 7.65166 26.449 7.36814 26.449 7.01838V3.85203H30.6939V9.55147Z" fill="#FAFAFA"/>
<path d="M3.2653 16.8341H7.18367C7.54436 16.8341 7.83673 16.5506 7.83673 16.2008V12.4012C7.83673 12.0515 7.54436 11.7679 7.18367 11.7679H3.2653C2.90462 11.7679 2.61224 12.0515 2.61224 12.4012V16.2008C2.61224 16.5506 2.90462 16.8341 3.2653 16.8341ZM3.91837 13.0345H6.53061V15.5676H3.91837V13.0345Z" fill="#FAFAFA"/>
<path d="M3.2653 29.4995H7.18367C7.54436 29.4995 7.83673 29.216 7.83673 28.8663V27.5997H9.79592V28.8663C9.79592 29.216 10.0883 29.4995 10.449 29.4995H14.3673C14.728 29.4995 15.0204 29.216 15.0204 28.8663V25.0666C15.0204 24.717 14.728 24.4334 14.3673 24.4334H10.449C10.0883 24.4334 9.79592 24.717 9.79592 25.0666V26.3332H7.83673V25.0666C7.83673 24.717 7.54436 24.4334 7.18367 24.4334H5.87755V23.1668H7.18367C7.54436 23.1668 7.83673 22.8833 7.83673 22.5336V21.267H9.79592V22.5336C9.79592 22.8833 10.0883 23.1668 10.449 23.1668H14.3673C14.728 23.1668 15.0204 22.8833 15.0204 22.5336V21.267H16.9796V22.5336C16.9796 22.8833 17.272 23.1668 17.6327 23.1668H21.551C21.9117 23.1668 22.2041 22.8833 22.2041 22.5336V21.267H24.1633V22.5336C24.1633 22.8833 24.4556 23.1668 24.8163 23.1668H28.7347C29.0954 23.1668 29.3878 22.8833 29.3878 22.5336V18.7339C29.3878 18.3842 29.0954 18.1007 28.7347 18.1007H27.4286V16.8341H28.7347C29.0954 16.8341 29.3878 16.5506 29.3878 16.2008V12.4012C29.3878 12.0515 29.0954 11.7679 28.7347 11.7679H24.8163C24.4556 11.7679 24.1633 12.0515 24.1633 12.4012V13.6678H22.2041V12.4012C22.2041 12.0515 21.9117 11.7679 21.551 11.7679H17.6327C17.272 11.7679 16.9796 12.0515 16.9796 12.4012V13.6678H15.0204V12.4012C15.0204 12.0515 14.728 11.7679 14.3673 11.7679H10.449C10.0883 11.7679 9.79592 12.0515 9.79592 12.4012V16.2008C9.79592 16.5506 10.0883 16.8341 10.449 16.8341H14.3673C14.728 16.8341 15.0204 16.5506 15.0204 16.2008V14.9343H16.9796V16.2008C16.9796 16.5506 17.272 16.8341 17.6327 16.8341H21.551C21.9117 16.8341 22.2041 16.5506 22.2041 16.2008V14.9343H24.1633V16.2008C24.1633 16.5506 24.4556 16.8341 24.8163 16.8341H26.1224V18.1007H24.8163C24.4556 18.1007 24.1633 18.3842 24.1633 18.7339V20.0005H22.2041V18.7339C22.2041 18.3842 21.9117 18.1007 21.551 18.1007H17.6327C17.272 18.1007 16.9796 18.3842 16.9796 18.7339V20.0005H15.0204V18.7339C15.0204 18.3842 14.728 18.1007 14.3673 18.1007H10.449C10.0883 18.1007 9.79592 18.3842 9.79592 18.7339V20.0005H7.83673V18.7339C7.83673 18.3842 7.54436 18.1007 7.18367 18.1007H3.2653C2.90462 18.1007 2.61224 18.3842 2.61224 18.7339V22.5336C2.61224 22.8833 2.90462 23.1668 3.2653 23.1668H4.57143V24.4334H3.2653C2.90462 24.4334 2.61224 24.717 2.61224 25.0666V28.8663C2.61224 29.216 2.90462 29.4995 3.2653 29.4995ZM11.102 25.6999H13.7143V28.233H11.102V25.6999ZM13.7143 15.5676H11.102V13.0345H13.7143V15.5676ZM20.898 15.5676H18.2857V13.0345H20.898V15.5676ZM25.4694 15.5676V13.0345H28.0816V15.5676H25.4694ZM25.4694 19.3672H28.0816V21.9003H25.4694V19.3672ZM18.2857 19.3672H20.898V21.9003H18.2857V19.3672ZM11.102 19.3672H13.7143V21.9003H11.102V19.3672ZM3.91837 21.9003V19.3672H6.53061V21.9003H3.91837ZM3.91837 25.6999H6.53061V28.233H3.91837V25.6999Z" fill="#FAFAFA"/>
<path d="M21.551 24.4333H17.6327C17.272 24.4333 16.9796 24.7169 16.9796 25.0666V28.8663C16.9796 29.216 17.272 29.4995 17.6327 29.4995H21.551C21.9117 29.4995 22.2041 29.216 22.2041 28.8663V25.0666C22.2041 24.7169 21.9117 24.4333 21.551 24.4333ZM20.898 28.233H18.2857V25.6999H20.898V28.233Z" fill="#FAFAFA"/>
<path d="M28.7347 24.4333H24.8163C24.4556 24.4333 24.1633 24.7169 24.1633 25.0666V28.8663C24.1633 29.216 24.4556 29.4995 24.8163 29.4995H28.7347C29.0954 29.4995 29.3878 29.216 29.3878 28.8663V25.0666C29.3878 24.7169 29.0954 24.4333 28.7347 24.4333ZM28.0816 28.233H25.4694V25.6999H28.0816V28.233Z" fill="#FAFAFA"/>
<path d="M13.0612 13.6677H11.7551V14.9343H13.0612V13.6677Z" fill="#FAFAFA"/>
<path d="M20.2449 13.6677H18.9388V14.9343H20.2449V13.6677Z" fill="#FAFAFA"/>
<path d="M27.4286 13.6677H26.1224V14.9343H27.4286V13.6677Z" fill="#FAFAFA"/>
<path d="M27.4286 20.0005H26.1224V21.267H27.4286V20.0005Z" fill="#FAFAFA"/>
<path d="M20.2449 20.0005H18.9388V21.267H20.2449V20.0005Z" fill="#FAFAFA"/>
<path d="M13.0612 20.0005H11.7551V21.267H13.0612V20.0005Z" fill="#FAFAFA"/>
<path d="M5.87753 20.0005H4.57141V21.267H5.87753V20.0005Z" fill="#FAFAFA"/>
<path d="M5.87753 26.3331H4.57141V27.5997H5.87753V26.3331Z" fill="#FAFAFA"/>
<path d="M13.0612 26.3331H11.7551V27.5997H13.0612V26.3331Z" fill="#FAFAFA"/>
</g>
<defs>
<clipPath id="clip0_24_184">
<rect width="32" height="31.0303" fill="white" transform="translate(0 0.685669)"/>
</clipPath>
</defs>
</svg>
