<svg width="660" height="1024" viewBox="0 0 660 1024" fill="none" xmlns="http://www.w3.org/2000/svg">
<path d="M400.874 0H660V1024H0C0 1024 57.8061 947 94 832.5C130.194 718 80.6849 643.5 120.5 523C160.315 402.5 303.688 381 377.143 263C450.598 145 400.874 0 400.874 0Z" fill="#189AB4"/>
<path d="M311.304 821.218C314.994 801.093 321.868 781.531 332.046 763.404C334.929 758.269 338.065 753.256 341.433 748.379C343.023 746.078 339.062 743.952 337.481 746.243C325.413 763.734 316.365 783.028 310.797 803.126C309.243 808.736 307.985 814.402 307.017 820.122C306.83 821.218 307.32 822.336 308.568 822.653C309.636 822.924 311.104 822.317 311.304 821.218" fill="#13375B"/>
<path d="M357.146 753.935C360.281 756.614 361.855 760.36 363.181 764.021C364.784 768.449 366.052 772.973 367.068 777.543C369.065 786.54 370.02 795.693 370.613 804.849C370.958 810.158 371.178 815.475 371.397 820.788C371.51 823.545 376.162 823.558 376.046 820.788C375.255 801.63 374.446 782.058 367.897 763.695C366.262 759.106 364.346 754.287 360.278 751.039C359.375 750.315 358.036 750.218 357.146 751.039C356.323 751.799 356.265 753.182 357.146 753.935" fill="#13375B"/>
<path d="M364.062 737.669H302.075C297.646 737.669 294.056 740.979 294.056 745.06C294.056 749.142 297.633 752.804 302.062 752.804L374.165 755.428C378.275 755.428 382.858 749.873 383.852 746.198L402.449 677.299C403.591 673.059 400.749 668.777 396.132 667.785C391.633 666.822 387.123 669.346 385.978 673.47L369.171 734.011C368.575 736.163 366.471 737.669 364.062 737.669" fill="#13375B"/>
<path d="M229.905 729.864H312.033V702.753H229.905V729.864Z" fill="#86B1F2"/>
<path d="M195.873 806.975H257.298V701.202H195.873V806.975Z" fill="#FAE0B2"/>
<path d="M308.339 820.539H317.023V697.43H308.339V820.539Z" fill="#184655"/>
<path d="M221.379 820.542H227.612V806.713H221.379V820.542Z" fill="#184655"/>
<path d="M186.827 820.536H193.059V806.926H186.827V820.536" fill="#184655"/>
<path d="M239.258 695.087C239.405 695.087 239.555 695.071 239.705 695.039C240.987 694.748 241.828 693.293 241.582 691.784C241.582 691.784 231.404 632.911 230.608 632.61C230.355 632.513 229.758 631.308 229.734 631.308C229.612 631.311 229.488 631.327 229.364 631.356C228.082 631.644 227.241 633.101 227.487 634.607L236.94 692.828C237.156 694.16 238.147 695.087 239.258 695.087" fill="#355389"/>
<path d="M259.959 636.824L269.375 693.575L240.165 693.982L229.726 631.308L256.294 632.788C258.301 632.878 259.707 635.27 259.959 636.824Z" fill="#466EB6"/>
<path d="M310.323 692.35C310.323 692.382 310.323 692.418 310.323 692.45C310.327 694.26 309.272 695.753 307.959 695.756L270.862 695.85C269.546 695.853 268.482 694.389 268.478 692.579C268.478 692.502 268.482 692.427 268.485 692.35H310.323" fill="#355389"/>
<path d="M299.591 692.35C299.591 692.382 299.594 692.415 299.594 692.447C299.598 694.283 298.004 695.776 296.036 695.779L240.469 695.895C238.501 695.898 236.902 694.415 236.899 692.58C236.899 692.502 236.902 692.424 236.908 692.35H299.591" fill="#355389"/>
<path d="M288.117 795.069C285.859 799.277 280.339 813.144 280.13 814.194C280.072 814.498 279.288 815.51 279.027 815.7C271.901 816.418 266.685 812.582 262.727 808.804C266.465 809.066 272.178 808.099 273.011 807.957C275.178 807.586 274.946 800.98 276.185 793.557C278.107 794.439 285.317 792.529 288.117 795.069" fill="#F7A491"/>
<path d="M280.156 814.104C279.565 816.425 277.11 820.707 276.636 820.584C276.072 820.435 255.033 812.87 253.224 809.848C252.107 807.987 257.859 807.896 262.488 808.135C266.446 811.913 278.94 814.705 280.156 814.104" fill="#355389"/>
<path d="M356.091 735.746L307.149 738.571L289.307 800.473L275.127 797.693C275.127 797.693 283.085 733.649 287.72 728.29C300.365 713.673 344.536 715.402 344.536 715.402L356.091 735.746" fill="#3C8F7C"/>
<path d="M318.326 798.398C318.146 801.252 317.494 804.706 317.623 808.032C317.71 810.268 318.536 812.986 318.636 813.403C318.707 813.707 318.417 814.951 318.259 815.232C312.078 818.861 305.743 817.553 300.572 815.772C304.081 814.45 306.52 811.816 307.401 810.86C308.891 809.237 307.83 804.377 305.865 797.112C307.981 797.112 314.727 797.26 318.326 798.398" fill="#F7A491"/>
<path d="M351.023 711.056C351.023 711.056 305.378 711.915 293.907 728.733C285.327 741.318 306.698 803.391 306.698 803.391L319.556 801.019C319.556 801.019 316.594 758.957 314.452 745.08C314.088 742.727 312.417 735.782 312.417 735.782C312.417 735.782 318.12 737.482 328.72 738.161C343.288 739.091 364.481 738.846 369.059 736.461C376.965 732.343 380.281 721.171 376.801 713.883C373.323 706.596 351.023 711.056 351.023 711.056" fill="#50BFA5"/>
<path d="M318.62 813.309C319.423 814.78 319.83 820.484 319.346 820.568C318.772 820.672 294.594 822.029 291.691 820.038C289.901 818.813 296.265 817.492 300.572 815.772C305.746 817.553 318.362 814.887 318.62 813.309" fill="#355389"/>
<path d="M315.962 680.609C315.962 680.609 302.668 683.941 296.023 686.058C289.375 688.178 280.917 688.782 280.917 688.782L273.768 692.566L289.075 693.019L324.723 689.842L327.743 681.517L315.962 680.609Z" fill="#F48C7F"/>
<path d="M325.93 653.672L319.588 654.58C319.588 654.58 317.32 655.036 315.507 665.022C313.694 675.011 311.127 680.308 311.127 680.308L326.685 686.513C338.055 670.781 345.852 652.14 325.93 653.672Z" fill="#B75742"/>
<path d="M325.549 644.616C321.494 645.324 321.249 648.604 321.249 648.604L317.097 665.93C317.097 665.93 316.717 673.269 317.559 676.078C319.194 681.543 322.501 683.698 327.917 685.553C335.097 688.016 337.936 694.218 341.033 697.837C346.407 704.117 342.033 711.631 342.033 711.631L379.587 716.911C379.587 716.911 380.097 709.569 371.591 688.934C364.204 671.017 346.497 640.942 325.549 644.616" fill="#F47458"/>
<path d="M338.92 646.711C334.314 641.64 322.607 647.923 326.233 664.721C326.255 664.828 327.581 682.467 326.462 684.707C325.785 686.07 309.472 685.389 299.598 687.47C299.598 687.47 288.92 683.501 285.172 683.233C282.394 683.036 275.782 685.149 275.782 685.149C275.782 685.149 267.262 691.448 268.456 692.489C270.085 693.914 274.094 687.696 277.469 687.696C277.469 687.696 271.317 692.46 273.214 692.566C275.111 692.67 277.733 691.248 279.104 690.824C280.475 690.401 285.523 692.944 289.981 693.474C290.717 693.562 293.627 693.403 297.004 693.853C300.43 694.308 304.304 695.556 308.836 695.769C321.03 696.338 334.83 697.685 338.246 694.24C340.791 691.674 346.672 655.239 338.92 646.711" fill="#F7A491"/>
<path d="M340.981 683.847C333.536 682.881 326.068 680.056 326.068 680.056C326.068 680.056 325.455 665.277 325.401 664.721C324.923 657 325.214 650.792 328.439 646.785C330.062 644.771 331.797 644.29 333.862 644.29C335.794 644.29 338.484 645.049 339.904 646.862C345.097 653.504 343.11 672.836 341.488 683.466L341.42 683.902L340.981 683.847Z" fill="#B75742"/>
<path d="M322.178 616.037C322.749 611.06 322.743 592.145 334.217 592.533C345.694 592.924 345.762 605.576 355.055 590.332C363.665 576.206 379.568 585.332 378.091 597.022C379.733 597.193 381.342 597.742 382.794 598.709C387.81 602.05 389.023 609.066 385.497 614.38C384.939 615.223 384.984 616.176 384.275 616.829C384.629 622.11 382.636 627.691 377.652 632.794C364.036 646.739 356.597 627.921 349.265 627.452C341.933 626.984 345.539 633.483 338.504 636.679C331.472 639.878 326.694 637.781 318.862 623.917L316.991 620.152C316.991 620.152 321.604 621.014 322.178 616.037" fill="#B75742"/>
<path d="M315.559 612.612C323.633 618.254 325.417 632.629 317.985 639.494C313.156 643.957 303.639 644.732 298.356 640.308C289.788 633.13 288.833 625.009 291.869 618.629C295.791 610.401 308.898 607.955 315.559 612.612Z" fill="#B75742"/>
<path d="M318.081 632.087C318.081 632.087 320.569 639.827 329.33 644.29C330.407 644.839 317.107 666.273 317.101 666.017C317.062 664.363 319.401 654.709 318.83 653.52C317.275 650.272 308.243 635.467 308.243 635.467L318.081 632.087" fill="#F7A491"/>
<path d="M313.056 633.812L308.243 635.467C308.252 635.483 312.214 641.973 315.336 647.299C316.446 646.387 317.426 645.069 318.21 643.259C319.465 640.363 319.652 637.351 319.172 634.488C318.391 633.046 318.081 632.086 318.081 632.086L313.056 633.812" fill="#F47458"/>
<path d="M300.159 617.566C300.159 617.566 304.468 615.74 309.155 617.498C313.843 619.256 322.265 630.674 317.923 640.69C313.584 650.705 303.207 645.728 298.601 639.374C293.998 633.024 289.411 623.445 300.159 617.566" fill="#F7A491"/>
<path d="M318.833 623.238C315.12 616.778 311.043 612.987 305.317 614.457C299.591 615.928 294.456 616.91 294.069 623.642L293.656 624.792C293.656 624.792 301.949 620.733 305.388 623.91C308.826 627.084 316.03 628.124 316.988 630.325C317.946 632.526 320.313 636.514 320.313 636.514L320.742 634.038C320.742 634.038 322.546 629.698 318.833 623.238Z" fill="#B75742"/>
<path d="M310.088 627.194C310.862 629.201 312.614 630.358 314.001 629.779C315.384 629.204 315.881 627.11 315.107 625.106C314.33 623.102 312.578 621.945 311.194 622.52C309.807 623.099 309.314 625.19 310.088 627.194Z" fill="#F7A491"/>
<path d="M162.165 806.975H262.053V701.202H162.165V806.975Z" fill="#86B1F2"/>
<path d="M260.662 820.591H268.914V698.856H260.662V820.591Z" fill="#184655"/>
<path d="M159.985 821.508H164.647V699.773H159.985V821.508Z" fill="#184655"/>
<path d="M143.728 703.251H323.626C325.388 703.251 326.814 701.822 326.814 700.058V698.956C326.814 697.191 325.388 695.759 323.626 695.759H143.727C141.966 695.759 140.538 697.191 140.538 698.956V700.058C140.538 701.822 141.966 703.251 143.728 703.251" fill="#184655"/>
<path d="M503.883 461.811H590.344C598.586 461.811 605.268 455.117 605.268 446.86V416.952C605.268 408.694 598.586 402 590.344 402H503.883C495.641 402 488.959 408.694 488.959 416.952V446.86C488.959 455.117 495.641 461.811 503.883 461.811" fill="#F7A491"/>
<path d="M574.25 454.551L576.443 496.926L546.596 453.56L574.25 454.551Z" fill="#F7A491"/>
<path d="M457.688 584.871L459.607 576.126C459.607 576.126 465.885 580.12 469.549 585.824C473.213 591.527 474.958 606.734 476.001 607.306C477.051 607.875 488.639 589.985 490.668 587.163C493.173 583.677 494.113 579.672 495.68 576.63C497.252 573.588 502.778 572.554 504.871 572.935C506.964 573.315 501.994 582.21 501.994 582.21C501.994 582.21 489.434 604.072 485.248 616.05C481.059 628.027 467.981 633.731 465.885 632.02C463.792 630.309 457.688 584.871 457.688 584.871" fill="#F48C7F"/>
<path d="M495.815 578.307C495.815 578.307 496.337 576.006 497.747 575.536C499.157 575.065 501.612 575.483 501.767 575.536C501.923 575.585 504.64 574.123 504.64 574.123L502.393 578.307C502.393 578.307 498.008 583.489 496.546 581.553C495.083 579.617 495.815 578.307 495.815 578.307" fill="#F7A491"/>
<path d="M505.429 574.31C505.429 574.31 507.011 582.384 506.61 584.076C506.209 585.775 505.198 584.865 505.01 584.495C504.23 582.978 503.684 577.8 503.684 577.8L505.429 574.31" fill="#F48C7F"/>
<path d="M502.012 581.027C502.012 581.027 502.769 586.035 503.547 586.623C504.052 587.009 504.692 586.783 504.904 585.77C505.113 584.757 503.893 578.586 503.893 578.586L502.012 581.027" fill="#F48C7F"/>
<path d="M497.396 595.237L494.767 593.951L505.935 571.004C507.385 571.712 507.989 573.467 507.278 574.92L497.396 595.237" fill="#184655"/>
<path d="M469.342 548.909C470.919 541.734 472.46 534.51 468.304 526.627C464.946 520.244 459.132 516.575 452.405 515.773C433.343 513.508 437.419 531.335 410.779 535.195C402.504 536.394 394.812 537.544 387.901 541.671C375.42 549.116 370.711 561.062 378.989 580.527C399.255 628.182 448.996 587.725 455.136 578.342C459.709 571.361 468.328 553.53 469.342 548.909" fill="#13375B"/>
<path d="M393.117 849.941C393.117 849.941 391.759 863.748 388.271 866.281C384.781 868.815 380.13 878.194 382.455 883.265C383.181 884.848 384.636 885.766 386.291 886.277C391.194 887.789 396.407 885.242 398.494 880.547C399.662 877.926 400.684 874.429 400.888 870.021C401.413 858.803 404.9 853.099 404.9 853.099L393.117 849.941Z" fill="#F7A491"/>
<path d="M446.727 855.591C446.727 855.591 447.828 869.524 446.933 874.051C446.456 876.475 443.796 881.465 445.019 883.747C446.239 886.028 447.635 886.597 447.635 886.597L479.284 887.107C481.005 887.133 479.866 886.025 478.477 885.004C476.201 883.329 474.365 882.224 467.094 878.711C466.623 878.482 464.896 877.383 464.276 877.005C462.693 876.039 461.111 874.523 459.746 873.004C457.476 870.477 457.276 858.209 457.276 858.209L446.727 855.591" fill="#F7A491"/>
<path d="M471.464 670.422C471.464 670.422 475.452 693.041 472.833 707.869C470.217 722.696 457.657 860.141 457.657 860.141L443.702 860.93C443.702 860.93 440.774 803.514 441.298 795.531C441.824 787.545 445.966 774.185 445.966 774.185L444.574 727.831L462.188 666.931L471.464 670.422Z" fill="#3C8F7C"/>
<path d="M430.447 665.667C430.447 665.667 419.457 682.205 416.839 695.891C414.224 709.581 418.76 751.643 413.726 769.58C411.001 779.291 400.675 794.284 399.105 806.833C397.532 819.378 391.376 852.243 391.376 852.243L405.327 855.009L437.748 772.928L463.18 698.742L469.694 660.532L430.447 665.667" fill="#50BFA5"/>
<path d="M439.343 571.567C439.343 571.567 429.716 572.66 423.961 578.933C418.204 585.206 433.265 635.635 434.312 643.621C435.36 651.603 425.736 670.228 425.736 670.228C425.736 670.228 461.695 676.889 471.466 670.422C471.466 670.422 472.513 613.01 471.466 607.306C470.418 601.604 461.695 578.408 459.604 576.129C457.509 573.846 439.343 571.567 439.343 571.567" fill="#FAE0B2"/>
<path d="M425.733 583.666C426.663 580.857 429.841 579.504 432.553 580.676C436.27 582.288 441.4 585.342 443.903 590.577C448.09 599.32 462.743 629.358 467.279 630.499C471.816 631.64 490.308 599.32 490.308 599.32C490.308 599.32 489.781 593.617 491.355 590.386C492.925 587.152 497.634 583.733 498.331 584.874C499.031 586.015 495.714 588.866 495.714 589.437C495.714 590.007 497.111 590.386 499.031 589.245C500.951 588.105 501.987 585.799 501.987 585.799C501.987 585.799 505.134 591.527 501.821 596.66C498.504 601.793 497.111 603.883 497.111 603.883C497.111 603.883 475.652 651.602 467.802 652.171C460.49 652.704 418.385 605.916 425.733 583.666" fill="#F7A491"/>
<path d="M444.186 552.127C444.186 552.127 444.111 552.555 443.975 553.283C443.326 556.782 440.829 568.384 439.14 571.575C437.1 575.428 446.122 587.722 454.806 586.225C457.391 585.776 452.624 574.928 452.851 573.778C453.292 571.578 453.885 568.576 454.495 565.499C454.836 563.761 455.186 562.003 455.51 560.346C456.441 555.645 457.196 551.802 457.196 551.802L444.186 552.127Z" fill="#F7A491"/>
<path d="M443.973 553.284C444.109 552.554 444.184 552.125 444.184 552.125L457.196 551.803C457.196 551.803 456.438 555.645 455.511 560.348C455.187 561.995 454.843 563.742 454.499 565.47C452.489 565.175 450.389 564.197 448.288 562.355C445.99 560.348 444.485 557.935 443.581 555.356C443.74 554.535 443.873 553.827 443.973 553.284" fill="#F47458"/>
<path d="M452.012 521.143C452.012 521.143 446.707 521.88 442.859 526.851C439.015 531.823 434.874 547.199 444.422 555.556C453.973 563.916 463.41 554.453 464.808 544.421C466.209 534.389 465.925 520.78 452.012 521.143" fill="#F7A491"/>
<path d="M467.863 540.994C466.726 543.209 464.814 544.437 463.591 543.733C462.371 543.03 462.305 540.665 463.445 538.451C464.588 536.233 466.501 535.008 467.721 535.708C468.944 536.412 469.007 538.776 467.863 540.994Z" fill="#F7A491"/>
<path d="M453.629 520.909C453.629 520.909 445.436 535.53 439.574 536.206C433.713 536.881 432.942 544.65 432.942 544.65C432.942 544.65 435.039 526.749 440.842 523.294C446.645 519.843 453.629 520.909 453.629 520.909" fill="#13375B"/>
<path d="M441.491 539.689C441.968 542.285 441.01 544.666 439.349 545.006C437.691 545.348 435.958 543.519 435.481 540.924C435.003 538.326 435.965 535.944 437.623 535.605C439.281 535.265 441.013 537.091 441.491 539.689Z" fill="#F7A491"/>
<path d="M399.445 878.078C391.842 879.464 386.784 875.018 384.152 871.689C382.216 875.46 381.033 880.169 382.455 883.265C383.707 885.993 387.116 886.739 389.997 886.846C393.042 886.959 395.891 885.366 397.4 882.712C398.107 881.475 398.836 879.933 399.445 878.078" fill="#3C8F7C"/>
<path d="M464.274 877.001C455.904 879.147 449.719 877.686 446.256 876.293C445.362 878.821 444.179 881.994 444.808 883.824C445.576 886.063 446.67 886.571 447.639 886.597C455.282 886.797 475.642 887.071 481.47 887.146C482.283 887.159 482.735 886.205 482.208 885.582C480.763 883.856 464.9 877.383 464.274 877.001" fill="#3C8F7C"/>
<path d="M173.802 876.375H102.14C93.0131 867.755 87.4525 855.885 87.6554 842.864C87.758 836.291 89.067 830.557 91.7976 824.928L184.192 826.001C186.745 831.721 188.115 838 188.013 844.577C187.82 856.984 182.431 868.166 173.802 876.375Z" fill="#F47458"/>
<path d="M519.777 489.396H450.028C443.38 489.396 437.99 483.996 437.99 477.332V453.207C437.99 446.546 443.38 441.146 450.028 441.146H519.777C526.428 441.146 531.819 446.546 531.819 453.207V477.332C531.819 483.996 526.428 489.396 519.777 489.396Z" fill="#FAE0B2"/>
<path d="M467.885 482.738L458.751 510.189L485.322 482.738H467.885Z" fill="#FAE0B2"/>
<path d="M164.66 731.92C164.66 731.92 203.649 720.198 205.22 720.489C206.763 720.777 200.637 733.804 201.403 738.015C201.648 739.363 168.031 758.624 160.56 757.202C152.415 755.654 121.101 728.669 117.761 722.819C114.028 716.278 107.493 699.964 111.846 693.823C113.83 691.022 118.636 687.295 121.971 688.084C135.236 691.219 149.559 714.756 164.66 731.92" fill="#355389"/>
<path d="M166.801 776.703C166.545 775.539 158.455 756.692 158.044 754.769C152.67 729.645 131.986 692.906 122.409 688.177C120.86 687.402 109.804 687.331 109.804 687.331L115.519 690.162C122.029 696.121 129.314 703.011 133.962 710.7C147.439 732.999 156.618 784.369 157.845 784.278C159.216 784.178 167.369 779.275 166.801 776.703" fill="#466EB6"/>
<path d="M154 777.401C135.068 766.367 132.091 740.322 124.087 726.338C114.287 709.21 99.8334 707.342 74.9542 738.39C44.4543 776.451 59.9733 853.021 102.089 877.56L203.08 877.341C223.887 869.836 233.133 858.832 240.607 840.501C273.846 758.979 196.115 801.936 154 777.401" fill="#F7CC7F"/>
<path d="M198.793 861.954C198.793 861.954 198.088 874.422 198.084 874.448C197.825 876.029 196.805 879.942 196.805 881.38C196.805 886.787 220.814 876.791 215.433 874.397C214.946 874.177 211.638 871.313 211.478 869.475C211.231 866.64 211.362 862.129 211.362 862.129L198.793 861.954" fill="#F7A491"/>
<path d="M215.086 874.16C215.086 874.16 209.45 875.812 206.563 876.226C203.675 876.639 199.869 873.159 197.827 874.099C196.159 874.868 195.509 880.44 195.285 883.262C195.213 884.157 195.893 884.933 196.787 884.981C203.426 885.327 228.67 886.494 235.221 884.593C238.619 883.607 226.61 878.01 215.086 874.16" fill="#07345A"/>
<path d="M266.259 849.454C266.259 849.454 260.62 851.105 257.733 851.519C254.849 851.932 251.042 848.452 249 849.392C247.332 850.161 246.681 855.733 246.457 858.555C246.386 859.45 247.169 860.461 248.061 860.552C255.427 861.279 279.843 861.786 286.394 859.886C289.791 858.9 277.781 853.303 266.259 849.454Z" fill="#07345A"/>
<path d="M242.602 839.348C242.602 839.348 249.353 848.862 249.985 850.963C250.617 853.064 266.262 854.602 266.262 849.457C266.262 849.389 261.411 845.437 260.04 843.633C257.749 840.621 252.404 830.557 252.404 830.557L242.602 839.348Z" fill="#F7A491"/>
<path d="M97.2217 632.103C97.2217 632.103 89.6014 626.942 86.3805 635.984C86.3805 635.984 82.0763 634.679 80.2347 639.109C80.2347 639.109 72.8547 638.553 73.4599 649.289C73.4599 649.289 69.7509 649.406 70.2154 653.749C70.6799 658.096 73.4528 660.446 73.4528 660.446C73.4528 660.446 71.7838 662.391 73.5518 666.088C75.0554 669.233 77.9044 669.133 77.9044 669.133C77.9044 669.133 79.8747 674.556 82.6644 675.703C85.454 676.85 88.5679 675.315 88.5679 675.315C88.5679 675.315 90.1092 678.149 92.8714 677.257C95.634 676.362 98.5339 672.898 101.959 673.411C105.384 673.922 113.298 670.833 113.298 670.833C113.298 670.833 121.597 664.689 116.765 655.876C116.765 655.876 120.638 650.43 115.248 646.116C115.248 646.116 116.529 637.219 109.346 633.725C102.165 630.232 97.2217 632.103 97.2217 632.103" fill="#07345A"/>
<path d="M218.021 766.872C211.686 763.747 145.221 774.117 145.221 774.117L137.253 761.394L111.309 767.289C111.309 767.289 103.967 775.759 103.663 779.553C102.68 791.824 108.295 812.466 114.628 814.473C137.182 821.618 185.672 807.014 192.46 805.453C192.46 805.453 192.213 816.46 194.27 838.928C195.083 847.809 196.148 857.594 197.134 866.152C203.07 866.139 209.006 866.029 214.942 865.244C214.942 865.244 224.356 769.994 218.021 766.872" fill="#F47458"/>
<path d="M260.149 838.003C248.781 809.231 224.106 752.768 215.165 751.178C203.443 749.097 145.211 774.14 145.211 774.14L204.291 772.905C204.291 772.905 204.616 773.49 207.188 785.897C209.193 795.567 231.418 829.62 244.09 848.484C249.935 845.837 255.724 843.391 260.149 838.003" fill="#B75742"/>
<path d="M110.086 687.544C110.086 687.544 95.3747 687.376 93.8112 687.722C92.2479 688.068 95.0463 747.872 96.9598 770.188C98.8731 792.503 101.94 795.851 101.94 795.851C101.94 795.851 122.92 795.935 137.418 791.349C152.493 786.582 156.075 769.037 156.075 769.037C156.075 769.037 142.42 728.918 136.947 716.485C133.446 708.531 126.45 699.579 119.367 692.292C115.376 688.184 110.086 687.544 110.086 687.544Z" fill="white"/>
<path d="M105.949 676.663L108.901 684.729C108.901 684.729 114.048 696.157 111.333 699.179C108.618 702.203 94.3947 687.58 94.3947 687.58L90.8573 666.263L105.949 676.663Z" fill="#F7A491"/>
<path d="M92.0047 673.172C96.2528 679.768 103.571 682.784 108.452 683.501L105.949 676.659L90.857 666.263L92.0047 673.172" fill="#F47458"/>
<path d="M93.4286 642.473C99.4751 638.77 107.41 641.582 109.899 648.119C110.98 650.96 112.187 654.567 113.151 658.59C115.468 668.263 112.533 678.828 108.13 679.801C103.728 680.777 90.1741 677.18 86.6941 663.49C84.5457 655.035 87.0835 646.361 93.4286 642.473Z" fill="#F7A491"/>
<path d="M90.1787 663.861C90.6506 666.004 89.6158 668.053 87.8671 668.441C86.118 668.829 84.3177 667.404 83.8451 665.261C83.3729 663.118 84.4077 661.069 86.1564 660.681C87.9055 660.293 89.7061 661.719 90.1787 663.861" fill="#F7A491"/>
<path d="M94.3663 687.518C94.3663 687.518 77.2854 686.836 73.3984 690.437C70.9264 692.725 75.9332 715.622 75.9332 715.622C75.9332 715.622 89.8663 742.342 91.8925 757.971C95.2573 783.932 98.326 799.881 99.654 800.741C107.33 803.501 132.707 798.249 133.763 795.247C145.411 762.076 94.3663 687.518 94.3663 687.518Z" fill="#466EB6"/>
<path d="M176.972 742.501L188.312 694.531C188.605 693.287 189.712 692.411 190.986 692.411H211.576C213.38 692.411 214.695 694.124 214.232 695.872L201.727 743.076C201.417 744.243 200.384 745.073 199.178 745.122L179.754 745.884C177.937 745.959 176.552 744.272 176.972 742.501" fill="#184655"/>
<path d="M195.76 741.26C194.888 741.428 193.448 741.744 192.451 742.11C191.373 742.504 190.26 742.53 189.305 742.727C187.409 743.118 186.032 743.428 186.059 743.344C186.094 743.234 185.667 743.053 186.657 742.675C187.847 742.223 190.582 741.806 192.281 741.008C193.244 740.555 195.314 739.731 195.314 739.731C195.314 739.731 198.216 737.915 198.167 737.714C197.905 736.635 195.577 737.333 194.346 738.115C193.31 738.222 191.156 739.149 191.156 739.149C191.156 739.149 186.388 740.08 186.255 739.424C186.199 739.146 189.061 738.235 191.731 736.913C194.209 735.685 196.516 734.053 196.352 733.542C196.072 732.673 193.177 733.752 193.177 733.752C193.177 733.752 191.188 734.612 190.506 734.851C189.706 735.129 187.25 735.782 187.25 735.782C187.25 735.782 178.6 737.669 178.529 737.036C178.459 736.405 178.941 734.699 179.439 734.402C179.936 734.104 181.133 734.02 181.631 733.723C182.129 733.426 182.526 732.624 182.21 732.004C181.894 731.383 178.942 731.933 178.942 731.933C178.942 731.933 176.544 732.395 175.252 733.481C170.777 737.243 171.58 737.811 170.993 738.28C170.3 738.833 158.49 740.129 158.49 740.129C158.49 740.129 123.706 744.175 121.821 744.33L123.041 755.932C125.114 756.142 165.257 749.136 169.377 748.311C169.377 748.311 174.628 749.097 177.944 749.485C181.26 749.869 184.609 748.79 185.562 748.757C185.703 748.751 188.875 748.467 192.703 747.096C196.003 745.917 192.349 745.568 192.349 745.568C192.349 745.568 185.855 746.689 185.862 746.175C185.868 745.778 189.448 745.37 193.111 744.1C194.053 743.774 194.982 743.451 195.833 743.144C198.066 742.342 198.226 740.785 195.76 741.26" fill="#F8A492"/>
<path d="M116.619 738.648C116.619 738.648 157.194 738.358 158.765 738.648C160.307 738.936 160.742 749.365 161.507 753.576C161.752 754.927 118.739 759.752 111.268 758.33C103.122 756.782 82.608 734.205 77.8548 726.584C73.8677 720.195 65.3597 703.929 67.4755 696.81C68.7539 692.511 75.3922 687.654 79.0167 688.779C93.4734 693.268 116.619 738.648 116.619 738.648Z" fill="#86B1F2"/>
<path d="M208.543 719.507C209.323 719.203 210.202 719.668 210.361 720.492C210.524 721.332 210.529 722.344 209.886 722.987C208.61 724.264 199.996 725.223 199.996 723.947C199.996 722.961 205.839 720.563 208.543 719.507" fill="#F7A491"/>
<path d="M210.439 723.255C210.439 723.255 211.429 726.435 210.687 726.493C209.945 726.552 200.712 727.848 200.255 726.762C199.799 725.676 209.219 722.654 210.439 723.255" fill="#F7A491"/>
<path d="M210.819 726.827C210.819 726.827 211.174 728.236 210.461 729.111C209.748 729.987 201.092 730.007 200.688 728.656C200.285 727.302 210.447 725.792 210.819 726.827" fill="#F7A491"/>
<path d="M208.842 730.075C208.842 730.075 209.022 731.151 208.663 731.681C208.305 732.211 201.9 732.553 201.064 731.303C200.228 730.052 207.892 728.792 208.842 730.075Z" fill="#F7A491"/>
<path d="M497.986 680.311C503.874 678.611 504.033 679.665 504.783 679.426C505.661 679.145 512.783 669.481 512.783 669.481C512.783 669.481 533.976 641.158 535.06 639.584L541.744 602.935L561.826 602.776C561.826 602.776 553.437 642.354 552.618 644.315C551.798 646.274 518.209 680.867 515.366 684.015C515.366 684.015 513.525 689.127 512.259 692.291C510.989 695.455 508.274 697.766 507.769 698.59C507.696 698.713 505.847 701.344 502.612 703.907C499.823 706.117 501.295 702.678 501.295 702.678C501.295 702.678 505.61 697.608 505.105 697.307C504.717 697.075 502.542 699.993 499.489 702.472C498.705 703.108 497.924 703.735 497.206 704.304C495.318 705.797 493.718 705.002 495.404 703.108C496.002 702.439 497.023 701.353 497.874 700.694C498.794 699.977 499.369 699.007 500.037 698.283C501.357 696.842 502.344 695.811 502.247 695.782C502.119 695.746 502.157 695.261 501.299 695.911C500.27 696.69 498.503 698.859 496.883 699.883C495.963 700.461 494.134 701.796 494.134 701.796C494.134 701.796 490.926 703.273 490.755 703.111C489.831 702.229 491.668 700.591 493.039 699.97C493.656 699.12 495.629 697.773 495.629 697.773C495.629 697.773 498.899 694.114 498.328 693.607C498.083 693.387 495.777 695.371 493.163 696.939C490.739 698.393 488.005 699.453 487.586 699.001C486.879 698.234 489.365 696.321 489.365 696.321C489.365 696.321 491.19 695.077 491.757 694.618C492.425 694.079 494.281 692.298 494.281 692.298C494.281 692.298 500.414 685.782 499.831 685.343C499.249 684.9 497.349 684.305 496.81 684.567C496.274 684.826 495.602 685.834 495.062 686.096C494.522 686.358 493.547 686.228 493.097 685.576C492.65 684.926 494.65 682.644 494.65 682.644C494.65 682.644 496.289 680.802 497.986 680.311" fill="#F48C7F"/>
<path d="M531.325 864.171C531.325 864.171 532.045 876.817 532.045 876.843C532.308 878.446 533.343 882.415 533.343 883.872C533.343 889.357 508.994 879.218 514.45 876.788C514.947 876.568 517.532 874.907 517.695 873.04C517.947 870.166 518.578 864.349 518.578 864.349L531.325 864.171Z" fill="#F7A491"/>
<path d="M514.51 876.736C514.51 876.736 520.227 878.414 523.158 878.834C526.086 879.254 529.945 875.721 532.014 876.675C534.295 877.725 534.061 888.061 534.061 888.061C534.061 888.061 503.552 889.864 494.926 887.082C491.516 885.979 502.824 880.644 514.51 876.736Z" fill="#184655"/>
<path d="M584.97 865.383C584.97 865.383 585.685 878.029 585.689 878.055C585.952 879.661 586.985 883.627 586.985 885.088C586.985 890.568 562.637 880.434 568.092 878.003C568.589 877.784 571.944 874.878 572.106 873.014C572.356 870.137 572.223 865.561 572.223 865.561L584.97 865.383Z" fill="#F7A491"/>
<path d="M568.152 877.952C568.152 877.952 573.867 879.629 576.799 880.046C579.727 880.466 583.586 876.937 585.656 877.891C587.937 878.941 588.026 888.387 588.026 888.387C588.026 888.387 555.405 890.757 547.732 888.533C544.287 887.534 556.464 881.856 568.152 877.952Z" fill="#184655"/>
<path d="M546.388 682.851L536.094 687.298L514.438 790.903L515.319 868.572L532.676 868.977C532.676 868.977 540.751 801.035 540.751 795.77C540.751 790.505 578.147 703.631 578.147 703.631L546.388 682.851" fill="#355389"/>
<path d="M554.332 688.552C554.332 688.552 561.916 768.375 561.916 781.832C561.916 795.286 568.062 870.593 568.062 870.593L585.463 870.493C585.463 870.493 586.717 847.538 588.585 813.768C588.876 808.481 588.208 797.81 588.585 792.332C591.293 752.952 596.644 715.88 594.088 701.186C593.678 698.82 592.904 692.634 591.396 691.073C580.001 679.264 554.332 688.552 554.332 688.552" fill="#466EB6"/>
<path d="M533.105 625.555L554.161 624.142C554.161 624.142 555.2 605.286 555.2 596.292C555.2 585.38 558.519 569.292 557.221 569.593C553.581 570.441 547.288 573.801 544.371 577.876C534.268 591.976 533.105 625.555 533.105 625.555" fill="#3C8F7C"/>
<path d="M582.99 569.175C582.99 569.175 594.995 570.848 598.16 573.173C601.714 575.792 605.668 581.651 605.668 581.651C605.668 581.651 590.926 651.464 590.901 663.211C590.876 672.299 594.09 694.615 594.09 694.615C594.09 694.615 549.541 697.433 532.673 690.759C532.673 690.759 538.001 664.219 538.001 657.249C538.001 650.281 544.371 586.909 545.824 582.483C547.141 578.467 549.541 571.251 557.684 569.472C565.823 567.693 582.99 569.175 582.99 569.175" fill="#50BFA5"/>
<path d="M579.712 550.378L582.684 569.874C582.684 569.874 571.829 593.086 565.35 591.073C559.919 589.384 563.26 568.845 563.26 568.845C563.26 568.845 566.225 557.814 565.334 552.296C564.448 546.777 579.712 550.378 579.712 550.378Z" fill="#F7A491"/>
<path d="M565.331 552.297C564.444 546.777 579.713 550.379 579.713 550.379L579.956 551.996C579.513 553.081 578.962 554.006 578.302 554.714C574.891 558.368 569.557 560.561 564.951 560.729C565.414 557.752 565.694 554.562 565.331 552.297" fill="#F47458"/>
<path d="M582.214 522.804C582.645 522.646 585.672 545.006 579.929 551.159C574.186 557.308 562.991 559.323 558.973 554.478C554.536 549.12 554.757 525.089 563.692 518.758C572.622 512.432 582.214 522.804 582.214 522.804Z" fill="#F7A491"/>
<path d="M567.095 506.794C573.998 508.195 578.468 512.395 580.113 514.182C583.246 514.552 587.508 516.278 591.909 523.526C597.318 532.439 593.324 542.317 587.024 547.161C580.728 552.006 580.798 557.632 580.798 557.632L579.822 554.709C579.087 552.515 578.788 550.19 579.03 547.889C579.178 546.508 579.477 545.016 580.051 543.788C581.565 540.554 576.795 538.405 575.462 535.709C574.432 533.639 574.379 528.897 572.759 525.47L570.823 522.852C570.823 522.852 566.352 519.392 561.98 520.37C557.608 521.344 558.236 504.999 567.095 506.794" fill="#13375B"/>
<path d="M575.749 539.694C575.705 542.418 576.951 544.653 578.533 544.681C580.115 544.709 581.436 542.519 581.484 539.791C581.528 537.062 580.279 534.828 578.701 534.804C577.115 534.776 575.797 536.966 575.749 539.694Z" fill="#F7A491"/>
<path d="M552.37 640.189L552.083 641.853C551.933 642.709 551.122 643.285 550.269 643.136L515.834 637.161C514.981 637.013 514.407 636.198 514.556 635.342L514.843 633.677C514.992 632.821 515.803 632.247 516.657 632.395L551.092 638.369C551.949 638.518 552.519 639.332 552.37 640.189" fill="#13375B"/>
<path d="M601.185 578.165C597.146 578.047 593.571 604.744 596.135 607.378C598.694 610.011 599.183 642.893 599.183 642.893L561.071 641.943V641.956C560.325 641.458 552.34 636.085 551.197 634.91C550 633.679 544.182 634.295 542.643 635.988C541.1 637.682 546.067 636.296 547.433 637.22C548.803 638.144 546.408 640.453 546.408 640.453C546.408 640.453 536.75 641.858 534.865 639.855C532.985 637.854 527.951 634.466 527.268 636.468C526.918 637.5 529.511 640.631 530.974 641.943C529.148 640.576 526.964 639.123 526.214 639.376C524.848 639.839 525.417 641.584 526.159 642.095C526.901 642.608 534.57 648.474 535.767 648.885C536.935 649.285 554.768 649.728 557.85 650.41C557.85 650.41 608.108 661.876 610.966 661.162C613.47 660.532 615.979 644.418 615.979 632.072C615.979 619.727 613.812 578.531 601.185 578.165Z" fill="#F7A491"/>
<path d="M595.94 572.077C595.94 572.077 602.973 573.699 610.235 581.875C616.838 589.31 621 630.948 621 630.948L598.195 634.641L596.374 614.5L590.28 605.287L595.94 572.077Z" fill="#50BFA5"/>
<path d="M210.281 656.668H155.149C149.893 656.668 145.632 652.398 145.632 647.134V628.063C145.632 622.798 149.893 618.529 155.149 618.529H210.281C215.537 618.529 219.798 622.798 219.798 628.063V647.134C219.798 652.398 215.537 656.668 210.281 656.668Z" fill="#FAE0B2"/>
<path d="M166.394 655.757L125.066 671.064L155.456 647.37L166.394 655.757Z" fill="#FAE0B2"/>
<path d="M446.224 899H444.676L444.686 897.857H446.224C446.608 897.857 446.932 897.771 447.195 897.599C447.459 897.423 447.658 897.167 447.791 896.832C447.928 896.497 447.996 896.091 447.996 895.616V895.27C447.996 894.905 447.957 894.584 447.879 894.308C447.804 894.031 447.692 893.798 447.542 893.609C447.392 893.421 447.208 893.279 446.99 893.185C446.772 893.087 446.521 893.038 446.238 893.038H444.646V891.891H446.238C446.714 891.891 447.148 891.972 447.542 892.135C447.939 892.294 448.283 892.524 448.572 892.823C448.862 893.123 449.085 893.481 449.241 893.897C449.401 894.311 449.48 894.771 449.48 895.279V895.616C449.48 896.121 449.401 896.581 449.241 896.998C449.085 897.415 448.862 897.773 448.572 898.072C448.286 898.368 447.942 898.598 447.542 898.761C447.145 898.92 446.705 899 446.224 899ZM445.506 891.891V899H444.041V891.891H445.506ZM452.889 899.098C452.479 899.098 452.111 899.033 451.785 898.902C451.46 898.769 451.183 898.585 450.955 898.351C450.73 898.116 450.558 897.844 450.438 897.535C450.317 897.223 450.257 896.891 450.257 896.539V896.344C450.257 895.943 450.314 895.577 450.428 895.245C450.542 894.913 450.704 894.625 450.916 894.381C451.131 894.137 451.391 893.95 451.697 893.819C452.003 893.686 452.348 893.619 452.732 893.619C453.107 893.619 453.439 893.681 453.729 893.805C454.018 893.928 454.261 894.104 454.456 894.332C454.655 894.56 454.804 894.833 454.905 895.152C455.006 895.468 455.057 895.82 455.057 896.207V896.793H450.857V895.855H453.675V895.748C453.675 895.553 453.639 895.379 453.567 895.226C453.499 895.069 453.395 894.946 453.255 894.854C453.115 894.763 452.936 894.718 452.718 894.718C452.532 894.718 452.373 894.758 452.239 894.84C452.106 894.921 451.997 895.035 451.912 895.182C451.831 895.328 451.769 895.501 451.727 895.699C451.688 895.895 451.668 896.109 451.668 896.344V896.539C451.668 896.751 451.697 896.946 451.756 897.125C451.818 897.304 451.904 897.459 452.015 897.589C452.129 897.719 452.265 897.82 452.425 897.892C452.588 897.963 452.771 897.999 452.977 897.999C453.23 897.999 453.466 897.95 453.685 897.853C453.906 897.752 454.096 897.6 454.256 897.398L454.939 898.141C454.829 898.3 454.677 898.453 454.485 898.6C454.297 898.746 454.069 898.867 453.802 898.961C453.535 899.052 453.23 899.098 452.889 899.098ZM458.714 897.54C458.714 897.439 458.685 897.348 458.626 897.267C458.567 897.185 458.458 897.11 458.299 897.042C458.143 896.97 457.916 896.905 457.62 896.847C457.353 896.788 457.104 896.715 456.873 896.627C456.645 896.536 456.447 896.427 456.277 896.3C456.111 896.173 455.981 896.023 455.887 895.851C455.792 895.675 455.745 895.475 455.745 895.25C455.745 895.029 455.792 894.82 455.887 894.625C455.984 894.43 456.123 894.257 456.302 894.107C456.484 893.954 456.705 893.836 456.966 893.751C457.229 893.663 457.526 893.619 457.854 893.619C458.313 893.619 458.707 893.692 459.036 893.839C459.368 893.985 459.622 894.187 459.798 894.444C459.977 894.698 460.066 894.988 460.066 895.313H458.66C458.66 895.177 458.631 895.055 458.572 894.947C458.517 894.837 458.429 894.75 458.309 894.688C458.191 894.623 458.038 894.591 457.85 894.591C457.693 894.591 457.558 894.618 457.444 894.674C457.33 894.726 457.243 894.798 457.181 894.889C457.122 894.977 457.093 895.074 457.093 895.182C457.093 895.263 457.109 895.336 457.142 895.401C457.177 895.463 457.234 895.52 457.312 895.572C457.391 895.624 457.492 895.673 457.615 895.719C457.742 895.761 457.898 895.8 458.084 895.836C458.465 895.914 458.805 896.017 459.104 896.144C459.404 896.267 459.642 896.437 459.817 896.651C459.993 896.863 460.081 897.141 460.081 897.486C460.081 897.721 460.029 897.936 459.925 898.131C459.821 898.326 459.671 898.497 459.476 898.644C459.28 898.787 459.046 898.899 458.772 898.98C458.502 899.059 458.198 899.098 457.859 899.098C457.368 899.098 456.951 899.01 456.609 898.834C456.271 898.658 456.014 898.435 455.838 898.165C455.665 897.892 455.579 897.612 455.579 897.325H456.912C456.919 897.517 456.967 897.672 457.059 897.789C457.153 897.906 457.272 897.991 457.415 898.043C457.562 898.095 457.719 898.121 457.889 898.121C458.071 898.121 458.222 898.097 458.343 898.048C458.463 897.996 458.554 897.927 458.616 897.843C458.681 897.755 458.714 897.654 458.714 897.54ZM462.479 893.717V899H461.067V893.717H462.479ZM460.979 892.34C460.979 892.135 461.051 891.965 461.194 891.832C461.338 891.699 461.53 891.632 461.771 891.632C462.008 891.632 462.199 891.699 462.342 891.832C462.488 891.965 462.562 892.135 462.562 892.34C462.562 892.545 462.488 892.714 462.342 892.848C462.199 892.981 462.008 893.048 461.771 893.048C461.53 893.048 461.338 892.981 461.194 892.848C461.051 892.714 460.979 892.545 460.979 892.34ZM466.985 893.717H468.26V898.824C468.26 899.306 468.152 899.715 467.938 900.05C467.726 900.388 467.43 900.644 467.049 900.816C466.668 900.992 466.225 901.08 465.721 901.08C465.499 901.08 465.265 901.051 465.018 900.992C464.773 900.934 464.539 900.842 464.314 900.719C464.093 900.595 463.908 900.439 463.758 900.25L464.378 899.42C464.541 899.609 464.729 899.755 464.944 899.859C465.159 899.967 465.397 900.021 465.657 900.021C465.911 900.021 466.126 899.973 466.302 899.879C466.478 899.788 466.613 899.653 466.707 899.474C466.801 899.298 466.849 899.085 466.849 898.834V894.938L466.985 893.717ZM463.431 896.422V896.319C463.431 895.916 463.479 895.549 463.577 895.221C463.678 894.889 463.82 894.604 464.002 894.366C464.188 894.129 464.412 893.945 464.676 893.814C464.939 893.684 465.237 893.619 465.569 893.619C465.921 893.619 466.215 893.684 466.453 893.814C466.691 893.945 466.886 894.13 467.039 894.371C467.192 894.609 467.311 894.89 467.396 895.216C467.483 895.538 467.552 895.891 467.601 896.275V896.5C467.552 896.868 467.479 897.21 467.381 897.525C467.283 897.841 467.155 898.118 466.995 898.355C466.836 898.59 466.637 898.772 466.399 898.902C466.165 899.033 465.885 899.098 465.56 899.098C465.234 899.098 464.939 899.031 464.676 898.897C464.415 898.764 464.192 898.577 464.007 898.336C463.821 898.095 463.678 897.812 463.577 897.486C463.479 897.161 463.431 896.806 463.431 896.422ZM464.837 896.319V896.422C464.837 896.64 464.858 896.843 464.9 897.032C464.943 897.221 465.008 897.389 465.096 897.535C465.187 897.678 465.299 897.791 465.433 897.872C465.569 897.95 465.73 897.989 465.916 897.989C466.173 897.989 466.383 897.936 466.546 897.828C466.709 897.717 466.831 897.566 466.912 897.374C466.993 897.182 467.041 896.961 467.054 896.71V896.07C467.047 895.865 467.02 895.681 466.971 895.519C466.922 895.353 466.854 895.211 466.766 895.094C466.678 894.977 466.564 894.885 466.424 894.82C466.284 894.755 466.118 894.723 465.926 894.723C465.74 894.723 465.579 894.765 465.442 894.85C465.309 894.931 465.197 895.043 465.105 895.187C465.018 895.33 464.951 895.499 464.905 895.694C464.86 895.886 464.837 896.095 464.837 896.319ZM470.73 894.845V899H469.324V893.717H470.643L470.73 894.845ZM470.525 896.173H470.145C470.145 895.782 470.195 895.431 470.296 895.118C470.397 894.802 470.538 894.534 470.721 894.312C470.903 894.088 471.119 893.917 471.37 893.8C471.624 893.679 471.907 893.619 472.22 893.619C472.467 893.619 472.693 893.655 472.898 893.727C473.104 893.798 473.279 893.912 473.426 894.068C473.576 894.225 473.689 894.431 473.768 894.688C473.849 894.946 473.89 895.26 473.89 895.631V899H472.474V895.626C472.474 895.392 472.441 895.209 472.376 895.079C472.311 894.949 472.215 894.858 472.088 894.806C471.964 894.75 471.811 894.723 471.629 894.723C471.44 894.723 471.276 894.76 471.136 894.835C470.999 894.91 470.885 895.014 470.794 895.147C470.706 895.278 470.639 895.431 470.594 895.606C470.548 895.782 470.525 895.971 470.525 896.173ZM477.391 899.098C476.98 899.098 476.613 899.033 476.287 898.902C475.962 898.769 475.685 898.585 475.457 898.351C475.232 898.116 475.06 897.844 474.939 897.535C474.819 897.223 474.759 896.891 474.759 896.539V896.344C474.759 895.943 474.816 895.577 474.93 895.245C475.044 894.913 475.206 894.625 475.418 894.381C475.633 894.137 475.893 893.95 476.199 893.819C476.505 893.686 476.85 893.619 477.234 893.619C477.609 893.619 477.941 893.681 478.23 893.805C478.52 893.928 478.763 894.104 478.958 894.332C479.157 894.56 479.306 894.833 479.407 895.152C479.508 895.468 479.559 895.82 479.559 896.207V896.793H475.359V895.855H478.177V895.748C478.177 895.553 478.141 895.379 478.069 895.226C478.001 895.069 477.897 894.946 477.757 894.854C477.617 894.763 477.438 894.718 477.22 894.718C477.034 894.718 476.875 894.758 476.741 894.84C476.608 894.921 476.499 895.035 476.414 895.182C476.333 895.328 476.271 895.501 476.229 895.699C476.189 895.895 476.17 896.109 476.17 896.344V896.539C476.17 896.751 476.199 896.946 476.258 897.125C476.32 897.304 476.406 897.459 476.517 897.589C476.631 897.719 476.767 897.82 476.927 897.892C477.09 897.963 477.273 897.999 477.479 897.999C477.732 897.999 477.968 897.95 478.187 897.853C478.408 897.752 478.598 897.6 478.758 897.398L479.441 898.141C479.331 898.3 479.179 898.453 478.987 898.6C478.799 898.746 478.571 898.867 478.304 898.961C478.037 899.052 477.732 899.098 477.391 899.098ZM483.479 897.848V891.5H484.896V899H483.621L483.479 897.848ZM480.14 896.422V896.319C480.14 895.916 480.185 895.549 480.276 895.221C480.368 894.889 480.501 894.604 480.677 894.366C480.853 894.129 481.069 893.945 481.326 893.814C481.583 893.684 481.876 893.619 482.205 893.619C482.514 893.619 482.785 893.684 483.016 893.814C483.25 893.945 483.449 894.13 483.611 894.371C483.777 894.609 483.911 894.89 484.012 895.216C484.113 895.538 484.186 895.891 484.231 896.275V896.5C484.186 896.868 484.113 897.21 484.012 897.525C483.911 897.841 483.777 898.118 483.611 898.355C483.449 898.59 483.25 898.772 483.016 898.902C482.781 899.033 482.508 899.098 482.195 899.098C481.867 899.098 481.574 899.031 481.316 898.897C481.062 898.764 480.848 898.577 480.672 898.336C480.499 898.095 480.368 897.812 480.276 897.486C480.185 897.161 480.14 896.806 480.14 896.422ZM481.546 896.319V896.422C481.546 896.64 481.562 896.843 481.595 897.032C481.631 897.221 481.688 897.389 481.766 897.535C481.847 897.678 481.951 897.791 482.078 897.872C482.208 897.95 482.366 897.989 482.552 897.989C482.793 897.989 482.991 897.936 483.147 897.828C483.304 897.717 483.423 897.566 483.504 897.374C483.589 897.182 483.637 896.961 483.65 896.71V896.07C483.641 895.865 483.611 895.681 483.562 895.519C483.517 895.353 483.449 895.211 483.357 895.094C483.27 894.977 483.159 894.885 483.025 894.82C482.895 894.755 482.741 894.723 482.562 894.723C482.379 894.723 482.223 894.765 482.093 894.85C481.963 894.931 481.857 895.043 481.775 895.187C481.697 895.33 481.639 895.499 481.6 895.694C481.564 895.886 481.546 896.095 481.546 896.319ZM488.484 891.5H489.891V897.789L489.749 899H488.484V891.5ZM493.235 896.305V896.407C493.235 896.801 493.193 897.162 493.108 897.491C493.027 897.82 492.9 898.105 492.728 898.346C492.555 898.583 492.34 898.769 492.083 898.902C491.829 899.033 491.53 899.098 491.185 899.098C490.862 899.098 490.582 899.033 490.345 898.902C490.11 898.772 489.913 898.588 489.754 898.351C489.594 898.113 489.466 897.835 489.368 897.516C489.271 897.197 489.197 896.848 489.148 896.471V896.246C489.197 895.868 489.271 895.52 489.368 895.201C489.466 894.882 489.594 894.604 489.754 894.366C489.913 894.129 490.11 893.945 490.345 893.814C490.579 893.684 490.856 893.619 491.175 893.619C491.523 893.619 491.826 893.686 492.083 893.819C492.343 893.95 492.558 894.135 492.728 894.376C492.9 894.614 493.027 894.897 493.108 895.226C493.193 895.551 493.235 895.911 493.235 896.305ZM491.829 896.407V896.305C491.829 896.09 491.813 895.888 491.78 895.699C491.751 895.507 491.699 895.34 491.624 895.196C491.549 895.05 491.447 894.934 491.316 894.85C491.189 894.765 491.025 894.723 490.823 894.723C490.631 894.723 490.468 894.755 490.335 894.82C490.201 894.885 490.091 894.977 490.003 895.094C489.918 895.211 489.855 895.351 489.812 895.514C489.77 895.673 489.744 895.849 489.734 896.041V896.681C489.744 896.938 489.786 897.166 489.861 897.364C489.939 897.56 490.057 897.714 490.213 897.828C490.372 897.939 490.579 897.994 490.833 897.994C491.032 897.994 491.196 897.955 491.326 897.877C491.456 897.799 491.557 897.688 491.629 897.545C491.704 897.402 491.756 897.234 491.785 897.042C491.814 896.847 491.829 896.635 491.829 896.407ZM495.618 898.404L497.02 893.717H498.528L496.404 899.796C496.359 899.929 496.297 900.073 496.219 900.226C496.144 900.379 496.041 900.523 495.911 900.66C495.784 900.8 495.623 900.914 495.428 901.002C495.236 901.09 495 901.134 494.72 901.134C494.586 901.134 494.477 901.126 494.393 901.109C494.308 901.093 494.207 901.07 494.09 901.041V900.011C494.126 900.011 494.163 900.011 494.202 900.011C494.241 900.014 494.279 900.016 494.314 900.016C494.5 900.016 494.651 899.994 494.769 899.952C494.886 899.91 494.98 899.845 495.052 899.757C495.123 899.672 495.18 899.562 495.223 899.425L495.618 898.404ZM495.032 893.717L496.18 897.545L496.38 899.034L495.423 899.137L493.523 893.717H495.032ZM502.986 894.732V901.031H501.58V893.717H502.884L502.986 894.732ZM506.331 896.3V896.402C506.331 896.786 506.285 897.143 506.194 897.472C506.106 897.8 505.976 898.087 505.804 898.331C505.631 898.572 505.416 898.761 505.159 898.897C504.905 899.031 504.612 899.098 504.28 899.098C503.958 899.098 503.678 899.033 503.44 898.902C503.203 898.772 503.003 898.59 502.84 898.355C502.68 898.118 502.552 897.843 502.454 897.53C502.356 897.218 502.282 896.882 502.229 896.524V896.256C502.282 895.872 502.356 895.52 502.454 895.201C502.552 894.879 502.68 894.601 502.84 894.366C503.003 894.129 503.201 893.945 503.436 893.814C503.673 893.684 503.951 893.619 504.271 893.619C504.606 893.619 504.9 893.683 505.154 893.81C505.411 893.937 505.626 894.119 505.799 894.356C505.975 894.594 506.106 894.877 506.194 895.206C506.285 895.535 506.331 895.899 506.331 896.3ZM504.92 896.402V896.3C504.92 896.075 504.9 895.868 504.861 895.68C504.826 895.488 504.767 895.32 504.686 895.177C504.607 895.034 504.503 894.923 504.373 894.845C504.246 894.763 504.091 894.723 503.909 894.723C503.717 894.723 503.553 894.754 503.416 894.815C503.283 894.877 503.174 894.967 503.089 895.084C503.004 895.201 502.941 895.341 502.898 895.504C502.856 895.667 502.83 895.851 502.82 896.056V896.734C502.837 896.975 502.882 897.192 502.957 897.384C503.032 897.573 503.147 897.722 503.304 897.833C503.46 897.944 503.665 897.999 503.919 897.999C504.104 897.999 504.261 897.958 504.388 897.877C504.515 897.792 504.617 897.677 504.695 897.53C504.777 897.384 504.834 897.215 504.866 897.022C504.902 896.83 504.92 896.624 504.92 896.402ZM509.388 897.999C509.56 897.999 509.713 897.966 509.847 897.901C509.98 897.833 510.084 897.739 510.159 897.618C510.237 897.494 510.278 897.35 510.281 897.184H511.604C511.601 897.555 511.502 897.885 511.307 898.175C511.111 898.461 510.849 898.688 510.521 898.854C510.192 899.016 509.824 899.098 509.417 899.098C509.007 899.098 508.649 899.029 508.343 898.893C508.04 898.756 507.788 898.567 507.586 898.326C507.384 898.082 507.233 897.799 507.132 897.477C507.031 897.151 506.98 896.803 506.98 896.432V896.29C506.98 895.916 507.031 895.567 507.132 895.245C507.233 894.92 507.384 894.636 507.586 894.396C507.788 894.151 508.04 893.961 508.343 893.824C508.646 893.688 509 893.619 509.407 893.619C509.84 893.619 510.219 893.702 510.545 893.868C510.874 894.034 511.131 894.272 511.316 894.581C511.505 894.887 511.601 895.25 511.604 895.67H510.281C510.278 895.494 510.241 895.335 510.169 895.191C510.101 895.048 510 894.934 509.866 894.85C509.736 894.762 509.575 894.718 509.383 894.718C509.178 894.718 509.01 894.762 508.88 894.85C508.75 894.934 508.649 895.051 508.577 895.201C508.506 895.348 508.455 895.515 508.426 895.704C508.4 895.89 508.387 896.085 508.387 896.29V896.432C508.387 896.637 508.4 896.834 508.426 897.022C508.452 897.211 508.501 897.379 508.572 897.525C508.647 897.672 508.75 897.787 508.88 897.872C509.01 897.957 509.179 897.999 509.388 897.999ZM513.792 891.5V899H512.386V891.5H513.792ZM513.592 896.173H513.206C513.209 895.805 513.258 895.466 513.353 895.157C513.447 894.845 513.582 894.575 513.758 894.347C513.934 894.116 514.144 893.937 514.388 893.81C514.635 893.683 514.909 893.619 515.208 893.619C515.468 893.619 515.704 893.657 515.916 893.731C516.131 893.803 516.315 893.92 516.468 894.083C516.624 894.243 516.744 894.452 516.829 894.713C516.914 894.973 516.956 895.289 516.956 895.66V899H515.54V895.65C515.54 895.416 515.506 895.232 515.438 895.099C515.372 894.962 515.276 894.866 515.149 894.811C515.026 894.752 514.873 894.723 514.69 894.723C514.489 894.723 514.316 894.76 514.173 894.835C514.033 894.91 513.921 895.014 513.836 895.147C513.751 895.278 513.689 895.431 513.65 895.606C513.611 895.782 513.592 895.971 513.592 896.173ZM518.094 898.321C518.094 898.113 518.165 897.939 518.309 897.799C518.455 897.659 518.649 897.589 518.89 897.589C519.131 897.589 519.323 897.659 519.466 897.799C519.612 897.939 519.686 898.113 519.686 898.321C519.686 898.53 519.612 898.704 519.466 898.844C519.323 898.984 519.131 899.054 518.89 899.054C518.649 899.054 518.455 898.984 518.309 898.844C518.165 898.704 518.094 898.53 518.094 898.321ZM522.723 897.975L523.895 893.717H525.364L523.582 899H522.693L522.723 897.975ZM521.917 893.717L523.094 897.979L523.118 899H522.225L520.442 893.717H521.917ZM528.357 899.098C527.947 899.098 527.579 899.033 527.254 898.902C526.928 898.769 526.652 898.585 526.424 898.351C526.199 898.116 526.027 897.844 525.906 897.535C525.786 897.223 525.726 896.891 525.726 896.539V896.344C525.726 895.943 525.783 895.577 525.896 895.245C526.01 894.913 526.173 894.625 526.385 894.381C526.6 894.137 526.86 893.95 527.166 893.819C527.472 893.686 527.817 893.619 528.201 893.619C528.576 893.619 528.908 893.681 529.197 893.805C529.487 893.928 529.729 894.104 529.925 894.332C530.123 894.56 530.273 894.833 530.374 895.152C530.475 895.468 530.525 895.82 530.525 896.207V896.793H526.326V895.855H529.144V895.748C529.144 895.553 529.108 895.379 529.036 895.226C528.968 895.069 528.864 894.946 528.724 894.854C528.584 894.763 528.405 894.718 528.187 894.718C528.001 894.718 527.841 894.758 527.708 894.84C527.575 894.921 527.465 895.035 527.381 895.182C527.299 895.328 527.238 895.501 527.195 895.699C527.156 895.895 527.137 896.109 527.137 896.344V896.539C527.137 896.751 527.166 896.946 527.225 897.125C527.286 897.304 527.373 897.459 527.483 897.589C527.597 897.719 527.734 897.82 527.894 897.892C528.056 897.963 528.24 897.999 528.445 897.999C528.699 897.999 528.935 897.95 529.153 897.853C529.375 897.752 529.565 897.6 529.725 897.398L530.408 898.141C530.298 898.3 530.146 898.453 529.954 898.6C529.765 898.746 529.537 898.867 529.271 898.961C529.004 899.052 528.699 899.098 528.357 899.098ZM533.509 897.999C533.681 897.999 533.834 897.966 533.968 897.901C534.101 897.833 534.205 897.739 534.28 897.618C534.358 897.494 534.399 897.35 534.402 897.184H535.726C535.722 897.555 535.623 897.885 535.428 898.175C535.232 898.461 534.97 898.688 534.642 898.854C534.313 899.016 533.945 899.098 533.538 899.098C533.128 899.098 532.77 899.029 532.464 898.893C532.161 898.756 531.909 898.567 531.707 898.326C531.505 898.082 531.354 897.799 531.253 897.477C531.152 897.151 531.102 896.803 531.102 896.432V896.29C531.102 895.916 531.152 895.567 531.253 895.245C531.354 894.92 531.505 894.636 531.707 894.396C531.909 894.151 532.161 893.961 532.464 893.824C532.767 893.688 533.121 893.619 533.528 893.619C533.961 893.619 534.34 893.702 534.666 893.868C534.995 894.034 535.252 894.272 535.438 894.581C535.626 894.887 535.722 895.25 535.726 895.67H534.402C534.399 895.494 534.362 895.335 534.29 895.191C534.222 895.048 534.121 894.934 533.987 894.85C533.857 894.762 533.696 894.718 533.504 894.718C533.299 894.718 533.131 894.762 533.001 894.85C532.871 894.934 532.77 895.051 532.698 895.201C532.627 895.348 532.576 895.515 532.547 895.704C532.521 895.89 532.508 896.085 532.508 896.29V896.432C532.508 896.637 532.521 896.834 532.547 897.022C532.573 897.211 532.622 897.379 532.693 897.525C532.768 897.672 532.871 897.787 533.001 897.872C533.131 897.957 533.3 897.999 533.509 897.999ZM539.129 893.717V894.713H536.053V893.717H539.129ZM536.814 892.413H538.221V897.408C538.221 897.561 538.24 897.678 538.279 897.76C538.322 897.841 538.383 897.898 538.465 897.931C538.546 897.96 538.649 897.975 538.772 897.975C538.86 897.975 538.938 897.971 539.007 897.965C539.078 897.955 539.139 897.945 539.188 897.936L539.192 898.971C539.072 899.01 538.942 899.041 538.802 899.063C538.662 899.086 538.507 899.098 538.338 899.098C538.029 899.098 537.758 899.047 537.527 898.946C537.299 898.842 537.124 898.676 537 898.448C536.876 898.22 536.814 897.921 536.814 897.55V892.413ZM539.578 896.412V896.31C539.578 895.922 539.633 895.566 539.744 895.24C539.855 894.911 540.016 894.627 540.228 894.386C540.439 894.145 540.7 893.958 541.009 893.824C541.318 893.688 541.673 893.619 542.073 893.619C542.474 893.619 542.83 893.688 543.143 893.824C543.455 893.958 543.717 894.145 543.929 894.386C544.144 894.627 544.306 894.911 544.417 895.24C544.528 895.566 544.583 895.922 544.583 896.31V896.412C544.583 896.796 544.528 897.153 544.417 897.481C544.306 897.807 544.144 898.092 543.929 898.336C543.717 898.577 543.457 898.764 543.147 898.897C542.838 899.031 542.483 899.098 542.083 899.098C541.683 899.098 541.326 899.031 541.014 898.897C540.704 898.764 540.442 898.577 540.228 898.336C540.016 898.092 539.855 897.807 539.744 897.481C539.633 897.153 539.578 896.796 539.578 896.412ZM540.984 896.31V896.412C540.984 896.633 541.004 896.84 541.043 897.032C541.082 897.224 541.144 897.394 541.229 897.54C541.316 897.683 541.43 897.796 541.57 897.877C541.71 897.958 541.881 897.999 542.083 897.999C542.278 897.999 542.446 897.958 542.586 897.877C542.726 897.796 542.838 897.683 542.923 897.54C543.007 897.394 543.069 897.224 543.108 897.032C543.151 896.84 543.172 896.633 543.172 896.412V896.31C543.172 896.095 543.151 895.893 543.108 895.704C543.069 895.512 543.006 895.343 542.918 895.196C542.833 895.047 542.721 894.929 542.581 894.845C542.441 894.76 542.272 894.718 542.073 894.718C541.875 894.718 541.705 894.76 541.565 894.845C541.429 894.929 541.316 895.047 541.229 895.196C541.144 895.343 541.082 895.512 541.043 895.704C541.004 895.893 540.984 896.095 540.984 896.31ZM546.854 894.869V899H545.447V893.717H546.771L546.854 894.869ZM548.445 893.683L548.421 894.986C548.353 894.977 548.27 894.968 548.172 894.962C548.077 894.952 547.991 894.947 547.913 894.947C547.715 894.947 547.542 894.973 547.396 895.025C547.252 895.074 547.132 895.147 547.034 895.245C546.94 895.343 546.868 895.462 546.819 895.602C546.774 895.742 546.748 895.901 546.741 896.08L546.458 895.992C546.458 895.65 546.492 895.336 546.561 895.05C546.629 894.76 546.728 894.508 546.858 894.293C546.992 894.078 547.155 893.912 547.347 893.795C547.539 893.678 547.758 893.619 548.006 893.619C548.084 893.619 548.164 893.626 548.245 893.639C548.326 893.648 548.393 893.663 548.445 893.683ZM554.637 891.891L552.029 899.61H550.984L553.592 891.891H554.637ZM559.354 891.891V899H557.889V891.891H559.354ZM562.186 894.928V896.07H558.953V894.928H562.186ZM562.527 891.891V893.038H558.953V891.891H562.527ZM564.568 894.869V899H563.162V893.717H564.485L564.568 894.869ZM566.16 893.683L566.136 894.986C566.067 894.977 565.984 894.968 565.887 894.962C565.792 894.952 565.706 894.947 565.628 894.947C565.429 894.947 565.257 894.973 565.11 895.025C564.967 895.074 564.847 895.147 564.749 895.245C564.655 895.343 564.583 895.462 564.534 895.602C564.489 895.742 564.463 895.901 564.456 896.08L564.173 895.992C564.173 895.65 564.207 895.336 564.275 895.05C564.344 894.76 564.443 894.508 564.573 894.293C564.707 894.078 564.869 893.912 565.062 893.795C565.254 893.678 565.473 893.619 565.721 893.619C565.799 893.619 565.879 893.626 565.96 893.639C566.041 893.648 566.108 893.663 566.16 893.683ZM569.158 899.098C568.748 899.098 568.38 899.033 568.055 898.902C567.729 898.769 567.452 898.585 567.225 898.351C567 898.116 566.827 897.844 566.707 897.535C566.587 897.223 566.526 896.891 566.526 896.539V896.344C566.526 895.943 566.583 895.577 566.697 895.245C566.811 894.913 566.974 894.625 567.186 894.381C567.4 894.137 567.661 893.95 567.967 893.819C568.273 893.686 568.618 893.619 569.002 893.619C569.376 893.619 569.708 893.681 569.998 893.805C570.288 893.928 570.53 894.104 570.726 894.332C570.924 894.56 571.074 894.833 571.175 895.152C571.276 895.468 571.326 895.82 571.326 896.207V896.793H567.127V895.855H569.944V895.748C569.944 895.553 569.909 895.379 569.837 895.226C569.769 895.069 569.664 894.946 569.524 894.854C569.384 894.763 569.205 894.718 568.987 894.718C568.802 894.718 568.642 894.758 568.509 894.84C568.375 894.921 568.266 895.035 568.182 895.182C568.1 895.328 568.038 895.501 567.996 895.699C567.957 895.895 567.938 896.109 567.938 896.344V896.539C567.938 896.751 567.967 896.946 568.025 897.125C568.087 897.304 568.174 897.459 568.284 897.589C568.398 897.719 568.535 897.82 568.694 897.892C568.857 897.963 569.041 897.999 569.246 897.999C569.5 897.999 569.736 897.95 569.954 897.853C570.175 897.752 570.366 897.6 570.525 897.398L571.209 898.141C571.098 898.3 570.947 898.453 570.755 898.6C570.566 898.746 570.338 898.867 570.071 898.961C569.804 899.052 569.5 899.098 569.158 899.098ZM574.559 899.098C574.148 899.098 573.781 899.033 573.455 898.902C573.13 898.769 572.853 898.585 572.625 898.351C572.4 898.116 572.228 897.844 572.107 897.535C571.987 897.223 571.927 896.891 571.927 896.539V896.344C571.927 895.943 571.984 895.577 572.098 895.245C572.212 894.913 572.374 894.625 572.586 894.381C572.801 894.137 573.061 893.95 573.367 893.819C573.673 893.686 574.018 893.619 574.402 893.619C574.777 893.619 575.109 893.681 575.398 893.805C575.688 893.928 575.931 894.104 576.126 894.332C576.325 894.56 576.474 894.833 576.575 895.152C576.676 895.468 576.727 895.82 576.727 896.207V896.793H572.527V895.855H575.345V895.748C575.345 895.553 575.309 895.379 575.237 895.226C575.169 895.069 575.065 894.946 574.925 894.854C574.785 894.763 574.606 894.718 574.388 894.718C574.202 894.718 574.043 894.758 573.909 894.84C573.776 894.921 573.667 895.035 573.582 895.182C573.501 895.328 573.439 895.501 573.396 895.699C573.357 895.895 573.338 896.109 573.338 896.344V896.539C573.338 896.751 573.367 896.946 573.426 897.125C573.488 897.304 573.574 897.459 573.685 897.589C573.799 897.719 573.935 897.82 574.095 897.892C574.257 897.963 574.441 897.999 574.646 897.999C574.9 897.999 575.136 897.95 575.354 897.853C575.576 897.752 575.766 897.6 575.926 897.398L576.609 898.141C576.499 898.3 576.347 898.453 576.155 898.6C575.966 898.746 575.739 898.867 575.472 898.961C575.205 899.052 574.9 899.098 574.559 899.098ZM578.934 894.732V901.031H577.527V893.717H578.831L578.934 894.732ZM582.278 896.3V896.402C582.278 896.786 582.233 897.143 582.142 897.472C582.054 897.8 581.924 898.087 581.751 898.331C581.578 898.572 581.364 898.761 581.106 898.897C580.853 899.031 580.56 899.098 580.228 899.098C579.905 899.098 579.625 899.033 579.388 898.902C579.15 898.772 578.95 898.59 578.787 898.355C578.628 898.118 578.499 897.843 578.401 897.53C578.304 897.218 578.229 896.882 578.177 896.524V896.256C578.229 895.872 578.304 895.52 578.401 895.201C578.499 894.879 578.628 894.601 578.787 894.366C578.95 894.129 579.148 893.945 579.383 893.814C579.62 893.684 579.899 893.619 580.218 893.619C580.553 893.619 580.848 893.683 581.102 893.81C581.359 893.937 581.574 894.119 581.746 894.356C581.922 894.594 582.054 894.877 582.142 895.206C582.233 895.535 582.278 895.899 582.278 896.3ZM580.867 896.402V896.3C580.867 896.075 580.848 895.868 580.809 895.68C580.773 895.488 580.714 895.32 580.633 895.177C580.555 895.034 580.451 894.923 580.32 894.845C580.193 894.763 580.039 894.723 579.856 894.723C579.664 894.723 579.5 894.754 579.363 894.815C579.23 894.877 579.121 894.967 579.036 895.084C578.951 895.201 578.888 895.341 578.846 895.504C578.803 895.667 578.777 895.851 578.768 896.056V896.734C578.784 896.975 578.829 897.192 578.904 897.384C578.979 897.573 579.095 897.722 579.251 897.833C579.407 897.944 579.612 897.999 579.866 897.999C580.052 897.999 580.208 897.958 580.335 897.877C580.462 897.792 580.564 897.677 580.643 897.53C580.724 897.384 580.781 897.215 580.813 897.022C580.849 896.83 580.867 896.624 580.867 896.402ZM584.637 893.717V899H583.226V893.717H584.637ZM583.138 892.34C583.138 892.135 583.209 891.965 583.353 891.832C583.496 891.699 583.688 891.632 583.929 891.632C584.166 891.632 584.357 891.699 584.5 891.832C584.646 891.965 584.72 892.135 584.72 892.34C584.72 892.545 584.646 892.714 584.5 892.848C584.357 892.981 584.166 893.048 583.929 893.048C583.688 893.048 583.496 892.981 583.353 892.848C583.209 892.714 583.138 892.545 583.138 892.34ZM587.205 891.495V899H585.799V891.495H587.205ZM590.535 893.717L588.24 896.334L587.01 897.579L586.497 896.563L587.474 895.323L588.846 893.717H590.535ZM589.075 899L587.513 896.559L588.484 895.709L590.696 899H589.075Z" fill="white"/>
<path d="M461.544 464.003C461.504 463.886 461.404 463.801 461.283 463.783L457.12 463.178L455.258 459.406C455.15 459.187 454.787 459.187 454.679 459.406L452.817 463.178L448.656 463.783C448.534 463.801 448.433 463.886 448.395 464.003C448.358 464.121 448.389 464.248 448.477 464.334L451.489 467.269L450.778 471.415C450.757 471.536 450.807 471.658 450.906 471.73C451.006 471.802 451.138 471.812 451.247 471.755L454.969 469.797L458.693 471.755C458.74 471.78 458.791 471.791 458.843 471.791C458.91 471.791 458.977 471.771 459.033 471.73C459.131 471.658 459.181 471.535 459.159 471.415L458.45 467.269L461.461 464.334C461.55 464.248 461.581 464.12 461.544 464.003Z" fill="#FFC50B"/>
<path d="M476.809 464.003C476.77 463.886 476.669 463.801 476.548 463.783L472.387 463.178L470.525 459.406C470.417 459.187 470.054 459.187 469.946 459.406L468.084 463.178L463.923 463.783C463.801 463.801 463.7 463.886 463.662 464.003C463.624 464.121 463.655 464.248 463.744 464.334L466.755 467.269L466.044 471.415C466.025 471.536 466.073 471.658 466.172 471.73C466.272 471.802 466.404 471.812 466.512 471.755L470.236 469.797L473.958 471.755C474.005 471.78 474.058 471.791 474.109 471.791C474.177 471.791 474.243 471.771 474.299 471.73C474.398 471.658 474.448 471.535 474.426 471.415L473.716 467.269L476.727 464.334C476.815 464.248 476.847 464.12 476.809 464.003Z" fill="#FFC50B"/>
<path d="M492.233 464.003C492.194 463.886 492.093 463.801 491.972 463.783L487.811 463.178L485.948 459.406C485.841 459.187 485.477 459.187 485.37 459.406L483.507 463.178L479.347 463.783C479.225 463.801 479.124 463.886 479.086 464.003C479.048 464.121 479.078 464.248 479.168 464.334L482.18 467.269L481.468 471.415C481.448 471.536 481.498 471.658 481.596 471.73C481.696 471.802 481.829 471.812 481.937 471.755L485.66 469.797L489.384 471.755C489.43 471.78 489.482 471.791 489.534 471.791C489.601 471.791 489.668 471.771 489.723 471.73C489.821 471.658 489.873 471.535 489.851 471.415L489.141 467.269L492.152 464.334C492.239 464.248 492.271 464.12 492.233 464.003Z" fill="#FFC50B"/>
<path d="M507.191 464.003C507.154 463.886 507.053 463.801 506.932 463.783L502.77 463.178L500.908 459.406C500.799 459.187 500.437 459.187 500.329 459.406L498.467 463.178L494.306 463.783C494.183 463.801 494.083 463.886 494.045 464.003C494.007 464.121 494.037 464.248 494.126 464.334L497.139 467.269L496.427 471.415C496.407 471.536 496.455 471.658 496.555 471.73C496.655 471.802 496.787 471.812 496.896 471.755L500.619 469.797L504.341 471.755C504.388 471.78 504.44 471.791 504.492 471.791C504.559 471.791 504.625 471.771 504.681 471.73C504.78 471.658 504.83 471.535 504.809 471.415L504.099 467.269L507.111 464.334C507.197 464.248 507.229 464.12 507.191 464.003Z" fill="#FFC50B"/>
<path d="M522.371 464.003C522.333 463.886 522.231 463.801 522.111 463.783L517.948 463.178L516.086 459.406C515.978 459.187 515.616 459.187 515.507 459.406L513.646 463.178L509.484 463.783C509.362 463.801 509.261 463.886 509.223 464.003C509.185 464.121 509.216 464.248 509.305 464.334L512.316 467.269L511.606 471.415C511.586 471.536 511.634 471.658 511.734 471.73C511.834 471.802 511.966 471.812 512.073 471.755L515.797 469.797L519.52 471.755C519.567 471.78 519.619 471.791 519.671 471.791C519.738 471.791 519.804 471.771 519.86 471.73C519.959 471.658 520.009 471.535 519.987 471.415L519.278 467.269L522.288 464.334C522.378 464.248 522.409 464.12 522.371 464.003Z" fill="#BEBEBE"/>
<path d="M168.814 635.459V643H166.274V633.49H168.656L168.814 635.459ZM168.463 637.911H167.76C167.76 637.249 167.839 636.64 167.997 636.083C168.161 635.521 168.398 635.034 168.709 634.624C169.025 634.208 169.415 633.886 169.878 633.657C170.341 633.429 170.877 633.314 171.486 633.314C171.908 633.314 172.295 633.379 172.646 633.508C172.998 633.631 173.3 633.827 173.552 634.097C173.81 634.36 174.009 634.706 174.149 635.134C174.29 635.556 174.36 636.062 174.36 636.654V643H171.829V636.936C171.829 636.502 171.771 636.168 171.653 635.934C171.536 635.699 171.369 635.535 171.152 635.441C170.941 635.348 170.687 635.301 170.388 635.301C170.06 635.301 169.772 635.368 169.526 635.503C169.286 635.638 169.087 635.825 168.929 636.065C168.771 636.3 168.653 636.575 168.577 636.892C168.501 637.208 168.463 637.548 168.463 637.911ZM174.123 637.621L173.218 637.735C173.218 637.114 173.294 636.537 173.446 636.004C173.604 635.471 173.836 635.002 174.141 634.598C174.451 634.193 174.835 633.88 175.292 633.657C175.749 633.429 176.276 633.314 176.874 633.314C177.331 633.314 177.747 633.382 178.122 633.517C178.497 633.646 178.816 633.854 179.08 634.141C179.35 634.422 179.555 634.791 179.695 635.248C179.842 635.705 179.915 636.265 179.915 636.927V643H177.375V636.927C177.375 636.487 177.316 636.153 177.199 635.925C177.088 635.69 176.924 635.529 176.707 635.441C176.496 635.348 176.244 635.301 175.951 635.301C175.646 635.301 175.38 635.362 175.151 635.485C174.923 635.603 174.732 635.767 174.58 635.978C174.428 636.188 174.313 636.435 174.237 636.716C174.161 636.991 174.123 637.293 174.123 637.621ZM186.252 643.176C185.514 643.176 184.852 643.059 184.266 642.824C183.68 642.584 183.182 642.253 182.771 641.831C182.367 641.409 182.057 640.92 181.84 640.363C181.623 639.801 181.515 639.203 181.515 638.57V638.219C181.515 637.498 181.617 636.839 181.822 636.241C182.027 635.644 182.32 635.125 182.701 634.686C183.088 634.246 183.557 633.909 184.107 633.675C184.658 633.435 185.279 633.314 185.971 633.314C186.645 633.314 187.242 633.426 187.764 633.648C188.285 633.871 188.722 634.188 189.073 634.598C189.431 635.008 189.7 635.5 189.882 636.074C190.063 636.643 190.154 637.275 190.154 637.973V639.027H182.596V637.34H187.667V637.146C187.667 636.795 187.603 636.481 187.474 636.206C187.351 635.925 187.163 635.702 186.911 635.538C186.659 635.374 186.337 635.292 185.944 635.292C185.61 635.292 185.323 635.365 185.083 635.512C184.843 635.658 184.646 635.863 184.494 636.127C184.348 636.391 184.236 636.701 184.16 637.059C184.09 637.41 184.055 637.797 184.055 638.219V638.57C184.055 638.951 184.107 639.303 184.213 639.625C184.324 639.947 184.479 640.226 184.679 640.46C184.884 640.694 185.13 640.876 185.417 641.005C185.71 641.134 186.041 641.198 186.41 641.198C186.867 641.198 187.292 641.11 187.685 640.935C188.083 640.753 188.426 640.48 188.713 640.117L189.943 641.453C189.744 641.74 189.472 642.016 189.126 642.279C188.786 642.543 188.376 642.76 187.896 642.93C187.415 643.094 186.867 643.176 186.252 643.176ZM194.065 629.5V643H191.534V629.5H194.065ZM193.705 637.911H193.011C193.017 637.249 193.104 636.64 193.274 636.083C193.444 635.521 193.688 635.034 194.004 634.624C194.32 634.208 194.698 633.886 195.138 633.657C195.583 633.429 196.075 633.314 196.614 633.314C197.083 633.314 197.508 633.382 197.889 633.517C198.275 633.646 198.606 633.856 198.882 634.149C199.163 634.437 199.38 634.814 199.532 635.283C199.685 635.752 199.761 636.32 199.761 636.988V643H197.212V636.971C197.212 636.549 197.15 636.218 197.027 635.978C196.91 635.731 196.737 635.559 196.509 635.459C196.286 635.354 196.011 635.301 195.683 635.301C195.319 635.301 195.009 635.368 194.751 635.503C194.499 635.638 194.297 635.825 194.145 636.065C193.992 636.3 193.881 636.575 193.811 636.892C193.74 637.208 193.705 637.548 193.705 637.911Z" fill="#4E4E4E"/>
<path d="M506.808 435.198C507.118 435.198 507.394 435.14 507.634 435.022C507.874 434.899 508.062 434.729 508.196 434.513C508.337 434.29 508.41 434.029 508.416 433.73H510.798C510.792 434.398 510.613 434.993 510.262 435.515C509.91 436.03 509.438 436.438 508.847 436.736C508.255 437.029 507.593 437.176 506.86 437.176C506.122 437.176 505.478 437.053 504.927 436.807C504.382 436.561 503.928 436.221 503.564 435.787C503.201 435.348 502.929 434.838 502.747 434.258C502.565 433.672 502.475 433.045 502.475 432.377V432.122C502.475 431.448 502.565 430.821 502.747 430.241C502.929 429.655 503.201 429.146 503.564 428.712C503.928 428.272 504.382 427.93 504.927 427.684C505.472 427.438 506.11 427.314 506.843 427.314C507.622 427.314 508.305 427.464 508.891 427.763C509.482 428.062 509.945 428.489 510.279 429.046C510.619 429.597 510.792 430.25 510.798 431.006H508.416C508.41 430.689 508.343 430.402 508.214 430.145C508.091 429.887 507.909 429.682 507.669 429.529C507.435 429.371 507.145 429.292 506.799 429.292C506.43 429.292 506.128 429.371 505.894 429.529C505.659 429.682 505.478 429.893 505.349 430.162C505.22 430.426 505.129 430.728 505.076 431.067C505.029 431.401 505.006 431.753 505.006 432.122V432.377C505.006 432.746 505.029 433.101 505.076 433.44C505.123 433.78 505.211 434.082 505.34 434.346C505.475 434.609 505.659 434.817 505.894 434.97C506.128 435.122 506.433 435.198 506.808 435.198ZM517.398 434.855V430.619C517.398 430.314 517.349 430.054 517.249 429.837C517.149 429.614 516.994 429.441 516.783 429.318C516.578 429.195 516.312 429.134 515.983 429.134C515.702 429.134 515.459 429.184 515.254 429.283C515.049 429.377 514.891 429.515 514.779 429.696C514.668 429.872 514.612 430.08 514.612 430.32H512.081C512.081 429.916 512.175 429.532 512.362 429.169C512.55 428.806 512.822 428.486 513.18 428.211C513.537 427.93 513.962 427.71 514.454 427.552C514.952 427.394 515.509 427.314 516.124 427.314C516.862 427.314 517.519 427.438 518.093 427.684C518.667 427.93 519.118 428.299 519.446 428.791C519.78 429.283 519.947 429.898 519.947 430.637V434.706C519.947 435.228 519.979 435.655 520.044 435.989C520.108 436.317 520.202 436.604 520.325 436.851V437H517.768C517.645 436.742 517.551 436.42 517.486 436.033C517.428 435.641 517.398 435.248 517.398 434.855ZM517.732 431.208L517.75 432.641H516.335C516.001 432.641 515.711 432.679 515.465 432.755C515.219 432.831 515.017 432.939 514.858 433.08C514.7 433.215 514.583 433.373 514.507 433.555C514.437 433.736 514.401 433.936 514.401 434.152C514.401 434.369 514.451 434.565 514.551 434.741C514.65 434.911 514.794 435.046 514.981 435.146C515.169 435.239 515.389 435.286 515.641 435.286C516.021 435.286 516.353 435.21 516.634 435.058C516.915 434.905 517.132 434.718 517.284 434.495C517.442 434.272 517.524 434.062 517.53 433.862L518.198 434.935C518.104 435.175 517.976 435.424 517.812 435.682C517.653 435.939 517.451 436.183 517.205 436.411C516.959 436.634 516.663 436.818 516.317 436.965C515.972 437.105 515.562 437.176 515.087 437.176C514.483 437.176 513.936 437.056 513.443 436.815C512.957 436.569 512.57 436.232 512.283 435.805C512.002 435.371 511.861 434.879 511.861 434.328C511.861 433.83 511.955 433.388 512.143 433.001C512.33 432.614 512.605 432.289 512.969 432.025C513.338 431.756 513.798 431.554 514.349 431.419C514.899 431.278 515.538 431.208 516.265 431.208H517.732ZM527.515 434.926V423.5H530.063V437H527.77L527.515 434.926ZM521.503 432.359V432.175C521.503 431.448 521.585 430.789 521.749 430.197C521.913 429.6 522.153 429.087 522.47 428.659C522.786 428.231 523.176 427.9 523.639 427.666C524.102 427.432 524.629 427.314 525.221 427.314C525.777 427.314 526.264 427.432 526.68 427.666C527.102 427.9 527.459 428.234 527.752 428.668C528.051 429.096 528.291 429.603 528.473 430.188C528.654 430.769 528.786 431.404 528.868 432.096V432.5C528.786 433.162 528.654 433.777 528.473 434.346C528.291 434.914 528.051 435.412 527.752 435.84C527.459 436.262 527.102 436.59 526.68 436.824C526.258 437.059 525.766 437.176 525.203 437.176C524.611 437.176 524.084 437.056 523.621 436.815C523.164 436.575 522.777 436.238 522.461 435.805C522.15 435.371 521.913 434.861 521.749 434.275C521.585 433.689 521.503 433.051 521.503 432.359ZM524.034 432.175V432.359C524.034 432.752 524.063 433.118 524.122 433.458C524.187 433.798 524.289 434.1 524.43 434.363C524.576 434.621 524.764 434.823 524.992 434.97C525.227 435.11 525.511 435.181 525.845 435.181C526.278 435.181 526.636 435.084 526.917 434.891C527.198 434.691 527.412 434.419 527.559 434.073C527.711 433.728 527.799 433.329 527.822 432.878V431.727C527.805 431.357 527.752 431.026 527.664 430.733C527.582 430.435 527.459 430.18 527.295 429.969C527.137 429.758 526.938 429.594 526.697 429.477C526.463 429.359 526.185 429.301 525.862 429.301C525.534 429.301 525.253 429.377 525.019 429.529C524.784 429.676 524.594 429.878 524.447 430.136C524.307 430.394 524.201 430.698 524.131 431.05C524.066 431.396 524.034 431.771 524.034 432.175ZM536.418 437.176C535.68 437.176 535.018 437.059 534.432 436.824C533.846 436.584 533.348 436.253 532.938 435.831C532.533 435.409 532.223 434.92 532.006 434.363C531.789 433.801 531.681 433.203 531.681 432.57V432.219C531.681 431.498 531.783 430.839 531.988 430.241C532.193 429.644 532.486 429.125 532.867 428.686C533.254 428.246 533.723 427.909 534.273 427.675C534.824 427.435 535.445 427.314 536.137 427.314C536.811 427.314 537.408 427.426 537.93 427.648C538.451 427.871 538.888 428.188 539.239 428.598C539.597 429.008 539.866 429.5 540.048 430.074C540.229 430.643 540.32 431.275 540.32 431.973V433.027H532.762V431.34H537.833V431.146C537.833 430.795 537.769 430.481 537.64 430.206C537.517 429.925 537.329 429.702 537.077 429.538C536.825 429.374 536.503 429.292 536.11 429.292C535.776 429.292 535.489 429.365 535.249 429.512C535.009 429.658 534.812 429.863 534.66 430.127C534.514 430.391 534.402 430.701 534.326 431.059C534.256 431.41 534.221 431.797 534.221 432.219V432.57C534.221 432.951 534.273 433.303 534.379 433.625C534.49 433.947 534.646 434.226 534.845 434.46C535.05 434.694 535.296 434.876 535.583 435.005C535.876 435.134 536.207 435.198 536.576 435.198C537.033 435.198 537.458 435.11 537.851 434.935C538.249 434.753 538.592 434.48 538.879 434.117L540.109 435.453C539.91 435.74 539.638 436.016 539.292 436.279C538.952 436.543 538.542 436.76 538.062 436.93C537.581 437.094 537.033 437.176 536.418 437.176ZM544.434 427.49V437H541.894V427.49H544.434ZM541.735 425.012C541.735 424.643 541.864 424.338 542.122 424.098C542.38 423.857 542.726 423.737 543.159 423.737C543.587 423.737 543.93 423.857 544.188 424.098C544.451 424.338 544.583 424.643 544.583 425.012C544.583 425.381 544.451 425.686 544.188 425.926C543.93 426.166 543.587 426.286 543.159 426.286C542.726 426.286 542.38 426.166 542.122 425.926C541.864 425.686 541.735 425.381 541.735 425.012ZM549.057 429.564V437H546.525V427.49H548.907L549.057 429.564ZM551.922 427.429L551.878 429.775C551.755 429.758 551.605 429.743 551.43 429.731C551.26 429.714 551.104 429.705 550.964 429.705C550.606 429.705 550.296 429.752 550.032 429.846C549.774 429.934 549.558 430.065 549.382 430.241C549.212 430.417 549.083 430.631 548.995 430.883C548.913 431.135 548.866 431.422 548.854 431.744L548.345 431.586C548.345 430.971 548.406 430.405 548.529 429.89C548.652 429.368 548.831 428.914 549.065 428.527C549.306 428.141 549.599 427.842 549.944 427.631C550.29 427.42 550.686 427.314 551.131 427.314C551.271 427.314 551.415 427.326 551.562 427.35C551.708 427.367 551.828 427.394 551.922 427.429ZM557.951 434.855V430.619C557.951 430.314 557.901 430.054 557.802 429.837C557.702 429.614 557.547 429.441 557.336 429.318C557.131 429.195 556.864 429.134 556.536 429.134C556.255 429.134 556.012 429.184 555.807 429.283C555.602 429.377 555.443 429.515 555.332 429.696C555.221 429.872 555.165 430.08 555.165 430.32H552.634C552.634 429.916 552.728 429.532 552.915 429.169C553.103 428.806 553.375 428.486 553.732 428.211C554.09 427.93 554.515 427.71 555.007 427.552C555.505 427.394 556.062 427.314 556.677 427.314C557.415 427.314 558.071 427.438 558.646 427.684C559.22 427.93 559.671 428.299 559.999 428.791C560.333 429.283 560.5 429.898 560.5 430.637V434.706C560.5 435.228 560.532 435.655 560.597 435.989C560.661 436.317 560.755 436.604 560.878 436.851V437H558.32C558.197 436.742 558.104 436.42 558.039 436.033C557.98 435.641 557.951 435.248 557.951 434.855ZM558.285 431.208L558.303 432.641H556.888C556.554 432.641 556.264 432.679 556.018 432.755C555.771 432.831 555.569 432.939 555.411 433.08C555.253 433.215 555.136 433.373 555.06 433.555C554.989 433.736 554.954 433.936 554.954 434.152C554.954 434.369 555.004 434.565 555.104 434.741C555.203 434.911 555.347 435.046 555.534 435.146C555.722 435.239 555.941 435.286 556.193 435.286C556.574 435.286 556.905 435.21 557.187 435.058C557.468 434.905 557.685 434.718 557.837 434.495C557.995 434.272 558.077 434.062 558.083 433.862L558.751 434.935C558.657 435.175 558.528 435.424 558.364 435.682C558.206 435.939 558.004 436.183 557.758 436.411C557.512 436.634 557.216 436.818 556.87 436.965C556.524 437.105 556.114 437.176 555.64 437.176C555.036 437.176 554.488 437.056 553.996 436.815C553.51 436.569 553.123 436.232 552.836 435.805C552.555 435.371 552.414 434.879 552.414 434.328C552.414 433.83 552.508 433.388 552.695 433.001C552.883 432.614 553.158 432.289 553.521 432.025C553.891 431.756 554.351 431.554 554.901 431.419C555.452 431.278 556.091 431.208 556.817 431.208H558.285ZM571.592 427.49V429.283H566.055V427.49H571.592ZM567.426 425.144H569.957V434.135C569.957 434.41 569.992 434.621 570.062 434.768C570.139 434.914 570.25 435.017 570.396 435.075C570.543 435.128 570.728 435.154 570.95 435.154C571.108 435.154 571.249 435.148 571.372 435.137C571.501 435.119 571.609 435.102 571.697 435.084L571.706 436.947C571.489 437.018 571.255 437.073 571.003 437.114C570.751 437.155 570.473 437.176 570.168 437.176C569.611 437.176 569.125 437.085 568.709 436.903C568.299 436.716 567.982 436.417 567.76 436.007C567.537 435.597 567.426 435.058 567.426 434.39V425.144ZM572.4 432.342V432.157C572.4 431.46 572.5 430.818 572.699 430.232C572.898 429.641 573.188 429.128 573.569 428.694C573.95 428.261 574.419 427.924 574.976 427.684C575.532 427.438 576.171 427.314 576.892 427.314C577.612 427.314 578.254 427.438 578.816 427.684C579.379 427.924 579.851 428.261 580.231 428.694C580.618 429.128 580.911 429.641 581.11 430.232C581.31 430.818 581.409 431.46 581.409 432.157V432.342C581.409 433.033 581.31 433.675 581.11 434.267C580.911 434.853 580.618 435.365 580.231 435.805C579.851 436.238 579.382 436.575 578.825 436.815C578.269 437.056 577.63 437.176 576.909 437.176C576.188 437.176 575.547 437.056 574.984 436.815C574.428 436.575 573.956 436.238 573.569 435.805C573.188 435.365 572.898 434.853 572.699 434.267C572.5 433.675 572.4 433.033 572.4 432.342ZM574.932 432.157V432.342C574.932 432.74 574.967 433.112 575.037 433.458C575.107 433.804 575.219 434.108 575.371 434.372C575.529 434.63 575.734 434.832 575.986 434.979C576.238 435.125 576.546 435.198 576.909 435.198C577.261 435.198 577.562 435.125 577.814 434.979C578.066 434.832 578.269 434.63 578.421 434.372C578.573 434.108 578.685 433.804 578.755 433.458C578.831 433.112 578.869 432.74 578.869 432.342V432.157C578.869 431.771 578.831 431.407 578.755 431.067C578.685 430.722 578.57 430.417 578.412 430.153C578.26 429.884 578.058 429.673 577.806 429.521C577.554 429.368 577.249 429.292 576.892 429.292C576.534 429.292 576.229 429.368 575.978 429.521C575.731 429.673 575.529 429.884 575.371 430.153C575.219 430.417 575.107 430.722 575.037 431.067C574.967 431.407 574.932 431.771 574.932 432.157ZM585.496 429.318V440.656H582.965V427.49H585.312L585.496 429.318ZM591.517 432.14V432.324C591.517 433.016 591.435 433.657 591.271 434.249C591.112 434.841 590.878 435.356 590.567 435.796C590.257 436.229 589.87 436.569 589.407 436.815C588.95 437.056 588.423 437.176 587.825 437.176C587.245 437.176 586.741 437.059 586.313 436.824C585.886 436.59 585.525 436.262 585.232 435.84C584.945 435.412 584.714 434.917 584.538 434.354C584.362 433.792 584.228 433.188 584.134 432.544V432.061C584.228 431.369 584.362 430.736 584.538 430.162C584.714 429.582 584.945 429.081 585.232 428.659C585.525 428.231 585.883 427.9 586.305 427.666C586.732 427.432 587.233 427.314 587.808 427.314C588.411 427.314 588.941 427.429 589.398 427.657C589.861 427.886 590.248 428.214 590.559 428.642C590.875 429.069 591.112 429.579 591.271 430.171C591.435 430.763 591.517 431.419 591.517 432.14ZM588.977 432.324V432.14C588.977 431.735 588.941 431.363 588.871 431.023C588.807 430.678 588.701 430.376 588.555 430.118C588.414 429.86 588.227 429.661 587.992 429.521C587.764 429.374 587.485 429.301 587.157 429.301C586.812 429.301 586.516 429.356 586.27 429.468C586.029 429.579 585.833 429.74 585.681 429.951C585.528 430.162 585.414 430.414 585.338 430.707C585.262 431 585.215 431.331 585.197 431.7V432.922C585.227 433.355 585.309 433.745 585.443 434.091C585.578 434.431 585.786 434.7 586.067 434.899C586.349 435.099 586.718 435.198 587.175 435.198C587.509 435.198 587.79 435.125 588.019 434.979C588.247 434.826 588.432 434.618 588.572 434.354C588.719 434.091 588.821 433.786 588.88 433.44C588.944 433.095 588.977 432.723 588.977 432.324Z" fill="#FAFAFA"/>
</svg>
