<svg width="32" height="32" viewBox="0 0 32 32" fill="none" xmlns="http://www.w3.org/2000/svg">
<path d="M1.08673 1.78273V30.2173C1.08673 31.2013 1.88539 32 2.86946 32H7.88604C8.87011 32 9.66877 31.2013 9.66877 30.2173V1.78273C9.66877 0.798663 8.87011 0 7.88604 0H2.86946C1.88539 0 1.08673 0.798663 1.08673 1.78273ZM8.09284 28.4666C8.09284 28.8588 7.77195 29.1797 7.37975 29.1797H3.37575C2.98355 29.1797 2.66266 28.8588 2.66266 28.4666V28.3311C2.66266 27.9389 2.98355 27.618 3.37575 27.618H7.37975C7.77195 27.618 8.09284 27.9389 8.09284 28.3311V28.4666ZM8.09284 8.20056C8.09284 8.59276 7.77195 8.91365 7.37975 8.91365H3.37575C2.98355 8.91365 2.66266 8.59276 2.66266 8.20056V8.06507C2.66266 7.67287 2.98355 7.35198 3.37575 7.35198H7.37975C7.77195 7.35198 8.09284 7.67287 8.09284 8.06507V8.20056ZM3.37575 3.21961H7.37975C7.77195 3.21961 8.09284 3.5405 8.09284 3.9327V4.06819C8.09284 4.46039 7.77195 4.78128 7.37975 4.78128H3.37575C2.98355 4.78128 2.66266 4.46039 2.66266 4.06819V3.9327C2.66266 3.5405 2.98355 3.21961 3.37575 3.21961Z" fill="#FAFAFA"/>
<path d="M19.8553 1.22655C19.4774 0.317353 18.4327 -0.114068 17.5235 0.263871L12.892 2.18922C11.9828 2.56716 11.5514 3.61184 11.9293 4.52103L22.8503 30.7735C23.2283 31.6827 24.2729 32.1142 25.1821 31.7362L29.8136 29.8108C30.7228 29.4329 31.1542 28.3883 30.7763 27.4791L19.8553 1.22655ZM14.2647 6.02922L14.2112 5.90443C14.0615 5.54075 14.2327 5.12359 14.5963 4.97385L18.2973 3.43357C18.661 3.28382 19.0781 3.45496 19.2279 3.81864L19.2813 3.94343C19.4311 4.3071 19.2599 4.72426 18.8963 4.87401L15.1989 6.41073C14.8352 6.56404 14.418 6.3929 14.2647 6.02922ZM20.4829 8.68906L16.7855 10.2258C16.4218 10.3755 16.0047 10.2044 15.8549 9.8407L15.8014 9.71591C15.6517 9.35223 15.8228 8.93507 16.1865 8.78532L19.8839 7.24861C20.2475 7.09886 20.6647 7.27 20.8144 7.63368L20.8679 7.75847C21.0177 8.11858 20.8465 8.53574 20.4829 8.68906ZM28.2662 27.397L24.5689 28.9337C24.2052 29.0835 23.7881 28.9123 23.6383 28.5487L23.5848 28.4239C23.4351 28.0602 23.6062 27.643 23.9699 27.4933L27.6672 25.9566C28.0309 25.8068 28.4481 25.9779 28.5978 26.3416L28.6513 26.4664C28.8011 26.8301 28.6299 27.2473 28.2662 27.397Z" fill="#FAFAFA"/>
</svg>
