<svg xmlns="http://www.w3.org/2000/svg" width="96" height="96" fill="none" viewBox="0 0 96 96">
  <path fill="#F15E5E" d="M81.94 14.06C72.868 4.99 60.827 0 48 0S23.131 4.99 14.06 14.06C4.99 23.132 0 35.173 0 48s4.99 24.869 14.06 33.94C23.132 91.01 35.173 96 48 96s24.869-4.99 33.94-14.06C91.01 72.868 96 60.827 96 48s-4.99-24.869-14.06-33.94zm-3.86 64.02C70.04 86.122 59.354 90.547 48 90.547c-11.353 0-22.04-4.425-30.08-12.465-16.587-16.586-16.587-43.576 0-60.162C25.96 9.88 36.646 5.455 48 5.455c11.353 0 22.04 4.424 30.08 12.464 16.587 16.586 16.587 43.576 0 60.162z"/>
  <path fill="#F15E5E" d="M69.151 26.848a2.72 2.72 0 00-3.858 0L48 44.141 30.707 26.848a2.72 2.72 0 00-3.858 0 2.72 2.72 0 000 3.859L44.14 48 26.85 65.293a2.72 2.72 0 000 3.858 2.745 2.745 0 001.919.809c.687 0 1.394-.263 1.919-.808L47.98 51.858l17.293 17.294a2.745 2.745 0 001.919.808c.707 0 1.394-.263 1.92-.808a2.72 2.72 0 000-3.86L51.858 48 69.15 30.707a2.72 2.72 0 000-3.859z"/>
</svg>
