<svg width="52" height="52" viewBox="0 0 52 52" fill="none" xmlns="http://www.w3.org/2000/svg">
<g clip-path="url(#clip0_8_3)">
<path d="M38.8155 26.2592H38.0089V13.0125C38.393 12.889 38.7541 12.6912 39.0695 12.4234C39.7644 11.8335 40.1629 10.9722 40.1629 10.0604V4.07642C40.1629 2.56795 39.086 1.28274 37.6024 1.02048C29.9036 -0.34012 22.0966 -0.34012 14.3979 1.02048C12.9143 1.28274 11.8373 2.56795 11.8373 4.07642V10.0604C11.8373 10.9722 12.2358 11.8335 12.9307 12.4234C13.4183 12.8375 14.0143 13.0849 14.6376 13.1459V26.2593H13.1846C11.6702 26.2593 10.4383 27.4913 10.4383 29.0057V29.4118C10.4383 30.9262 11.6702 32.1582 13.1846 32.1582H13.5319V51.1923C13.5319 51.6384 13.8935 52.0001 14.3397 52.0001H17.4333C17.8795 52.0001 18.2411 51.6384 18.2411 51.1923V43.5809H34.4733V51.1923C34.4733 51.6384 34.8349 52.0001 35.2811 52.0001H38.3747C38.8209 52.0001 39.1825 51.6384 39.1825 51.1923V32.133C40.524 31.9532 41.5623 30.8018 41.5623 29.4118V29.0057C41.562 27.4913 40.33 26.2592 38.8155 26.2592ZM31.6903 26.2592V12.5077C32.3251 12.5636 32.9594 12.6288 33.5931 12.7035V26.2592H31.6903ZM25.3717 26.2592V12.2598C26.006 12.2537 26.6403 12.2569 27.2745 12.2694V26.2593L25.3717 26.2592ZM19.0533 26.2591V12.6306C19.687 12.5623 20.3213 12.5034 20.9559 12.4539V26.2592L19.0533 26.2591ZM22.5715 12.3477C22.9663 12.3268 23.3613 12.3098 23.7562 12.2961V26.2591H22.5715V12.3477ZM28.89 12.3217C29.285 12.3393 29.6799 12.3602 30.0748 12.3851V26.259H28.89V12.3217ZM35.2086 12.9134C35.6038 12.9699 35.9987 13.0307 36.3933 13.0945V26.2591H35.2086V12.9134ZM13.4528 10.0601V4.07621C13.4528 3.35288 13.9684 2.73671 14.6791 2.61113C18.4351 1.94726 22.2176 1.61532 26.0001 1.61532C29.7826 1.61532 33.5651 1.94726 37.3211 2.61113C38.0317 2.73671 38.5474 3.35288 38.5474 4.07621V10.0601C38.5474 10.4968 38.3566 10.9093 38.0239 11.1917C37.6897 11.4753 37.2492 11.5972 36.816 11.526C29.639 10.346 22.3611 10.3459 15.1842 11.526C14.7504 11.5972 14.3105 11.4753 13.9762 11.1917C13.6435 10.9092 13.4528 10.4968 13.4528 10.0601ZM16.253 12.9932C16.6476 12.9333 17.0426 12.8767 17.4377 12.8241V26.2591H16.253V12.9932ZM16.6254 50.3842H15.1472V32.158H16.6254V50.3842ZM34.4731 39.1093H18.2409V32.158H34.4731V39.1093ZM18.2409 41.9651V40.7249H34.4731V41.9651H18.2409ZM36.0886 50.3842V32.158H37.5667V50.3843L36.0886 50.3842ZM39.9464 29.4115C39.9464 30.0351 39.4391 30.5424 38.8155 30.5424H13.1845C12.561 30.5424 12.0537 30.0351 12.0537 29.4115V29.0054C12.0537 28.3818 12.561 27.8745 13.1845 27.8745H38.8155C39.4391 27.8745 39.9464 28.3818 39.9464 29.0054V29.4115Z" fill="#1E1E1E"/>
</g>
<defs>
<clipPath id="clip0_8_3">
<rect width="52" height="52" fill="white"/>
</clipPath>
</defs>
</svg>
