<svg xmlns="http://www.w3.org/2000/svg" width="96" height="96" fill="none" viewBox="0 0 96 96">
  <path fill="#8BC34A" d="M48 0C21.533 0 0 21.533 0 48s21.533 48 48 48 48-21.533 48-48S74.467 0 48 0zm0 87.273C26.345 87.273 8.727 69.655 8.727 48 8.727 26.345 26.345 8.727 48 8.727c21.655 0 39.273 17.618 39.273 39.273 0 21.655-17.618 39.273-39.273 39.273z"/>
  <path fill="#8BC34A" d="M66 31.03L41.313 55.713 30.001 44.4a4.364 4.364 0 00-6.171 6.171l14.399 14.4a4.364 4.364 0 006.171 0L72.17 37.2A4.364 4.364 0 0066 31.029z"/>
</svg>
