<svg width="32" height="32" viewBox="0 0 32 32" fill="none" xmlns="http://www.w3.org/2000/svg">
<path d="M2.94401 3.35999C2.17601 3.35999 1.60001 3.96799 1.60001 4.70399V23.52C1.60001 24.288 2.17601 24.832 2.94401 24.832H13.12L15.52 28.352C15.584 28.512 15.776 28.608 15.968 28.608C16.16 28.608 16.32 28.48 16.416 28.352L18.912 24.832H29.056C29.792 24.832 30.368 24.288 30.368 23.52V4.70399C30.368 3.96799 29.792 3.35999 29.056 3.35999H2.94401ZM16 18.464C16.64 18.464 17.184 19.04 17.184 19.68V19.904C17.184 20.608 16.64 21.088 16 21.088C15.328 21.088 14.816 20.576 14.816 19.904V19.68C14.816 19.008 15.328 18.464 16 18.464ZM15.968 7.13599C16.992 7.13599 17.856 8.06398 17.728 9.05598L17.184 16.32C17.12 17.024 16.512 17.504 15.872 17.472C15.264 17.408 14.816 16.928 14.784 16.32L14.208 9.05598C14.112 8.06398 14.976 7.13599 15.968 7.13599Z" fill="#FAFAFA"/>
</svg>
