<svg width="28" height="28" viewBox="0 0 28 28" fill="none" xmlns="http://www.w3.org/2000/svg">
<path d="M14 0C6.26789 0 0 6.26789 0 14C0 21.7321 6.26789 28 14 28C21.7324 28 28 21.7321 28 14C28 6.26789 21.7324 0 14 0ZM14 25.0557C7.90376 25.0557 2.94433 20.0959 2.94433 14C2.94433 7.90406 7.90376 2.94433 14 2.94433C20.0962 2.94433 25.0557 7.90406 25.0557 14C25.0557 20.0959 20.0962 25.0557 14 25.0557Z" fill="#05445E"/>
<path d="M22.8671 8.8068C22.7935 8.68078 22.6448 8.62043 22.5047 8.6587L12.5579 11.3713C12.5031 11.3866 12.4533 11.4158 12.413 11.4561L5.18084 18.804C5.07897 18.9082 5.05895 19.0675 5.13255 19.1926C5.20616 19.3187 5.35485 19.3796 5.4953 19.341L15.4421 16.6281C15.4695 16.6211 15.4957 16.6099 15.5202 16.5957C15.5446 16.5813 15.567 16.5639 15.5873 16.5433L22.8192 9.19516C22.921 9.09181 22.9408 8.93223 22.8671 8.8068ZM7.86283 17.5942L12.7092 12.6698L14.5285 15.7763L7.86283 17.5942Z" fill="#05445E"/>
</svg>
