<svg width="22" height="22" viewBox="0 0 22 22" fill="none" xmlns="http://www.w3.org/2000/svg">
<g clip-path="url(#clip0_249_1488)">
<path d="M13.4222 11.0007L21.6472 2.77478C21.8735 2.54834 21.9983 2.24625 21.9987 1.92411C21.9987 1.6018 21.8738 1.29935 21.6472 1.07327L20.9264 0.352629C20.6998 0.125652 20.3978 0.00134277 20.0753 0.00134277C19.7534 0.00134277 19.4513 0.125652 19.2247 0.352629L10.9997 8.57798L2.77433 0.352629C2.54809 0.125652 2.24583 0.00134277 1.92354 0.00134277C1.60161 0.00134277 1.29935 0.125652 1.07311 0.352629L0.351979 1.07327C-0.117326 1.5426 -0.117326 2.30599 0.351979 2.77478L8.57715 11.0007L0.351979 19.2262C0.125553 19.453 0.000894254 19.7551 0.000894254 20.0772C0.000894254 20.3994 0.125553 20.7015 0.351979 20.9281L1.07293 21.6487C1.29917 21.8755 1.60161 22 1.92336 22C2.24565 22 2.54791 21.8755 2.77416 21.6487L10.9995 13.4232L19.2245 21.6487C19.4511 21.8755 19.7532 22 20.0751 22H20.0755C20.3976 22 20.6997 21.8755 20.9263 21.6487L21.647 20.9281C21.8733 20.7016 21.9981 20.3994 21.9981 20.0772C21.9981 19.7551 21.8733 19.453 21.647 19.2264L13.4222 11.0007Z" fill="#FAFAFA"/>
</g>
<defs>
<clipPath id="clip0_249_1488">
<rect width="21.9987" height="22" fill="white"/>
</clipPath>
</defs>
</svg>
