<svg width="16" height="16" viewBox="0 0 16 16" fill="none" xmlns="http://www.w3.org/2000/svg">
<path d="M2.66669 6.66667H5.33335V2.00001C5.33335 1.8232 5.40359 1.65363 5.52862 1.5286C5.65364 1.40358 5.82321 1.33334 6.00002 1.33334H10C10.1768 1.33334 10.3464 1.40358 10.4714 1.5286C10.5964 1.65363 10.6667 1.8232 10.6667 2.00001V6.66667H13.3334C13.4589 6.66689 13.5818 6.70249 13.688 6.7694C13.7942 6.83631 13.8793 6.93181 13.9337 7.04493C13.9881 7.15805 14.0094 7.28422 13.9953 7.40893C13.9812 7.53365 13.9323 7.65187 13.854 7.75001L8.52069 14.4167C8.26669 14.7333 7.73335 14.7333 7.47935 14.4167L2.14602 7.75001C2.06778 7.65187 2.0188 7.53365 2.00471 7.40893C1.99062 7.28422 2.01198 7.15805 2.06635 7.04493C2.12072 6.93181 2.20589 6.83631 2.31208 6.7694C2.41827 6.70249 2.54118 6.66689 2.66669 6.66667Z" fill="#FF7043"/>
</svg>
