<svg width="26" height="26" viewBox="0 0 26 26" fill="none" xmlns="http://www.w3.org/2000/svg">
<path d="M17.6485 4.48739C17.5704 4.40929 17.4438 4.40929 17.3657 4.48739L0.623227 21.2297C0.58572 21.2672 0.564648 21.3181 0.564648 21.3711V25.2348C0.564648 25.3453 0.654191 25.4348 0.764648 25.4348H4.62823C4.68127 25.4348 4.73214 25.4138 4.76965 25.3762L21.5121 8.63382C21.5902 8.55571 21.5902 8.42908 21.5121 8.35098L17.6485 4.48739Z" fill="#1E1E1E" stroke="#1E1E1E" stroke-width="0.4" stroke-linejoin="round"/>
<path d="M18.6544 3.19961C18.5762 3.27772 18.5762 3.40435 18.6544 3.48246L22.5179 7.34602C22.596 7.42413 22.7227 7.42413 22.8008 7.34602L25.3765 4.77031C25.4546 4.6922 25.4546 4.56557 25.3765 4.48747L21.5129 0.623902C21.4348 0.545797 21.3082 0.545797 21.2301 0.623902L18.6544 3.19961Z" fill="#1E1E1E" stroke="#1E1E1E" stroke-width="0.4" stroke-linejoin="round"/>
</svg>
