<svg width="32" height="32" viewBox="0 0 32 32" fill="none" xmlns="http://www.w3.org/2000/svg">
<path d="M4.2752 0H14.2528C14.6464 0 14.9824 0.1408 15.2608 0.4192C15.5392 0.6976 15.68 1.0336 15.68 1.4272C15.68 1.8208 15.5392 2.1568 15.2608 2.4352C14.9824 2.7136 14.6464 2.8544 14.2528 2.8544H4.2752C3.8816 2.8544 3.5456 2.9952 3.2672 3.2736C2.9888 3.552 2.848 3.888 2.848 4.2816V27.088C2.848 27.4816 2.9888 27.8176 3.2672 28.096C3.5456 28.3744 3.8816 28.5152 4.2752 28.5152H27.0816C27.4752 28.5152 27.8112 28.3744 28.0896 28.096C28.368 27.8176 28.5088 27.4816 28.5088 27.088V17.1072C28.5088 16.7136 28.6496 16.3776 28.928 16.0992C29.2064 15.8208 29.5424 15.68 29.936 15.68C30.3296 15.68 30.6656 15.8208 30.944 16.0992C31.2224 16.3776 31.3632 16.7136 31.3632 17.1072V27.0848C31.3632 28.2656 30.944 29.2736 30.1088 30.1088C29.2704 30.944 28.2624 31.36 27.0848 31.36H4.2752C3.0944 31.36 2.0864 30.9408 1.2512 30.1056C0.4192 29.2736 0 28.2656 0 27.0848V4.2784C0 3.0976 0.4192 2.0896 1.2544 1.2544C2.0896 0.4192 3.0976 0 4.2752 0ZM21.3792 0H29.9328C30.3264 0 30.6624 0.1408 30.9408 0.4192C31.2192 0.6976 31.36 1.0336 31.36 1.4272V9.9808C31.36 10.3744 31.2192 10.7104 30.9408 10.9888C30.6624 11.2672 30.3264 11.408 29.9328 11.408C29.5392 11.408 29.2032 11.2672 28.9248 10.9888C28.6464 10.7104 28.5056 10.3744 28.5056 9.9808V4.8672L16.6784 16.6944C16.4032 16.9696 16.0704 17.1072 15.6768 17.1072C15.2672 17.1072 14.928 16.9728 14.6592 16.7008C14.3872 16.4288 14.2528 16.0896 14.2528 15.6832C14.2528 15.2896 14.3904 14.9568 14.6656 14.6816L26.4896 2.8512H21.3792C20.9856 2.8512 20.6496 2.7104 20.3712 2.432C20.0928 2.1536 19.952 1.8176 19.952 1.424C19.952 1.0304 20.0928 0.6944 20.3712 0.416C20.6496 0.1376 20.9856 0 21.3792 0Z" fill="#1E1E1E"/>
</svg>
    