<svg width="562" height="510" viewBox="0 0 562 510" fill="none" xmlns="http://www.w3.org/2000/svg">
<path d="M252.304 419.218C255.994 399.093 262.868 379.531 273.046 361.404C275.929 356.269 279.065 351.256 282.433 346.379C284.023 344.078 280.062 341.952 278.481 344.243C266.413 361.734 257.365 381.028 251.797 401.126C250.243 406.736 248.985 412.402 248.017 418.122C247.83 419.218 248.32 420.336 249.568 420.653C250.636 420.924 252.104 420.317 252.304 419.218Z" fill="#13375B"/>
<path d="M298.146 351.935C301.281 354.614 302.855 358.36 304.181 362.021C305.784 366.449 307.052 370.973 308.068 375.543C310.065 384.54 311.02 393.693 311.613 402.849C311.958 408.158 312.178 413.475 312.397 418.788C312.51 421.545 317.162 421.558 317.046 418.788C316.255 399.63 315.446 380.058 308.897 361.695C307.262 357.106 305.346 352.287 301.278 349.039C300.375 348.315 299.036 348.218 298.146 349.039C297.323 349.799 297.265 351.182 298.146 351.935Z" fill="#13375B"/>
<path d="M305.062 335.669H243.075C238.646 335.669 235.056 338.979 235.056 343.06C235.056 347.142 238.633 350.804 243.062 350.804L315.165 353.428C319.275 353.428 323.858 347.873 324.852 344.198L343.449 275.299C344.591 271.059 341.749 266.777 337.132 265.785C332.633 264.822 328.123 267.346 326.978 271.47L310.171 332.011C309.575 334.163 307.471 335.669 305.062 335.669Z" fill="#13375B"/>
<path d="M170.905 327.864H253.033V300.753H170.905V327.864Z" fill="#86B1F2"/>
<path d="M136.873 404.975H198.298V299.202H136.873V404.975Z" fill="#FAE0B2"/>
<path d="M249.339 418.539H258.023V295.43H249.339V418.539Z" fill="#184655"/>
<path d="M162.379 418.542H168.612V404.713H162.379V418.542Z" fill="#184655"/>
<path d="M127.827 418.536H134.059V404.926H127.827V418.536Z" fill="#184655"/>
<path d="M180.258 293.087C180.405 293.087 180.555 293.071 180.705 293.039C181.987 292.748 182.828 291.293 182.582 289.784C182.582 289.784 172.404 230.911 171.608 230.61C171.355 230.513 170.758 229.308 170.734 229.308C170.612 229.311 170.488 229.327 170.364 229.356C169.082 229.644 168.241 231.101 168.487 232.607L177.94 290.828C178.156 292.16 179.147 293.087 180.258 293.087Z" fill="#355389"/>
<path d="M200.959 234.824L210.375 291.575L181.165 291.982L170.726 229.308L197.294 230.788C199.301 230.878 200.707 233.27 200.959 234.824Z" fill="#466EB6"/>
<path d="M251.323 290.35C251.323 290.382 251.323 290.418 251.323 290.45C251.327 292.26 250.272 293.753 248.959 293.756L211.862 293.85C210.546 293.853 209.482 292.389 209.478 290.579C209.478 290.502 209.482 290.427 209.485 290.35H251.323Z" fill="#355389"/>
<path d="M240.591 290.35C240.591 290.382 240.594 290.415 240.594 290.447C240.598 292.283 239.004 293.776 237.036 293.779L181.469 293.895C179.501 293.898 177.902 292.415 177.899 290.58C177.899 290.502 177.902 290.424 177.908 290.35H240.591Z" fill="#355389"/>
<path d="M229.117 393.069C226.859 397.277 221.339 411.144 221.13 412.194C221.072 412.498 220.288 413.51 220.027 413.7C212.901 414.418 207.685 410.582 203.727 406.804C207.465 407.066 213.178 406.099 214.011 405.957C216.178 405.586 215.946 398.98 217.185 391.557C219.107 392.439 226.317 390.529 229.117 393.069Z" fill="#F7A491"/>
<path d="M221.156 412.104C220.565 414.425 218.11 418.707 217.636 418.584C217.072 418.435 196.033 410.87 194.224 407.848C193.107 405.987 198.859 405.896 203.488 406.135C207.446 409.913 219.94 412.705 221.156 412.104Z" fill="#355389"/>
<path d="M297.091 333.746L248.149 336.571L230.307 398.473L216.127 395.693C216.127 395.693 224.085 331.649 228.72 326.29C241.365 311.673 285.536 313.402 285.536 313.402L297.091 333.746Z" fill="#3C8F7C"/>
<path d="M259.326 396.398C259.146 399.252 258.494 402.706 258.623 406.032C258.71 408.268 259.536 410.986 259.636 411.403C259.707 411.707 259.417 412.951 259.259 413.232C253.078 416.861 246.743 415.553 241.572 413.772C245.081 412.45 247.52 409.816 248.401 408.86C249.891 407.237 248.83 402.377 246.865 395.112C248.981 395.112 255.727 395.26 259.326 396.398Z" fill="#F7A491"/>
<path d="M292.023 309.056C292.023 309.056 246.378 309.915 234.907 326.733C226.327 339.318 247.698 401.391 247.698 401.391L260.556 399.019C260.556 399.019 257.594 356.957 255.452 343.08C255.088 340.727 253.417 333.782 253.417 333.782C253.417 333.782 259.12 335.482 269.72 336.161C284.288 337.091 305.481 336.846 310.059 334.461C317.965 330.343 321.281 319.171 317.801 311.883C314.323 304.596 292.023 309.056 292.023 309.056Z" fill="#50BFA5"/>
<path d="M259.62 411.309C260.423 412.78 260.83 418.484 260.346 418.568C259.772 418.672 235.594 420.029 232.691 418.038C230.901 416.813 237.265 415.492 241.572 413.772C246.746 415.553 259.362 412.887 259.62 411.309Z" fill="#355389"/>
<path d="M256.962 278.609C256.962 278.609 243.668 281.941 237.023 284.058C230.375 286.178 221.917 286.782 221.917 286.782L214.768 290.566L230.075 291.019L265.723 287.842L268.743 279.517L256.962 278.609Z" fill="#F48C7F"/>
<path d="M266.93 251.672L260.588 252.58C260.588 252.58 258.32 253.036 256.507 263.022C254.694 273.011 252.127 278.308 252.127 278.308L267.685 284.513C279.055 268.781 286.852 250.14 266.93 251.672Z" fill="#B75742"/>
<path d="M266.549 242.616C262.494 243.324 262.249 246.604 262.249 246.604L258.097 263.93C258.097 263.93 257.717 271.269 258.559 274.078C260.194 279.543 263.501 281.698 268.917 283.553C276.097 286.016 278.936 292.218 282.033 295.837C287.407 302.117 283.033 309.631 283.033 309.631L320.587 314.911C320.587 314.911 321.097 307.569 312.591 286.934C305.204 269.017 287.497 238.942 266.549 242.616Z" fill="#F47458"/>
<path d="M279.92 244.711C275.313 239.64 263.607 245.923 267.233 262.721C267.255 262.828 268.581 280.467 267.462 282.707C266.785 284.07 250.472 283.389 240.598 285.47C240.598 285.47 229.92 281.501 226.172 281.233C223.394 281.036 216.782 283.149 216.782 283.149C216.782 283.149 208.262 289.448 209.456 290.489C211.085 291.914 215.094 285.696 218.469 285.696C218.469 285.696 212.317 290.46 214.214 290.566C216.111 290.67 218.733 289.248 220.104 288.824C221.475 288.401 226.523 290.944 230.981 291.474C231.717 291.562 234.627 291.403 238.004 291.853C241.43 292.308 245.304 293.556 249.836 293.769C262.03 294.338 275.83 295.685 279.246 292.24C281.791 289.674 287.672 253.239 279.92 244.711Z" fill="#F7A491"/>
<path d="M281.981 281.847C274.536 280.881 267.068 278.056 267.068 278.056C267.068 278.056 266.455 263.277 266.401 262.721C265.923 255 266.214 248.792 269.439 244.785C271.062 242.771 272.797 242.29 274.862 242.29C276.794 242.29 279.484 243.049 280.904 244.862C286.097 251.504 284.11 270.836 282.488 281.466L282.42 281.902L281.981 281.847Z" fill="#B75742"/>
<path d="M263.178 214.037C263.749 209.06 263.743 190.145 275.217 190.533C286.694 190.924 286.762 203.576 296.055 188.332C304.665 174.206 320.568 183.332 319.091 195.022C320.733 195.193 322.342 195.742 323.794 196.709C328.81 200.05 330.023 207.066 326.497 212.38C325.939 213.223 325.984 214.176 325.275 214.829C325.629 220.11 323.636 225.691 318.652 230.794C305.036 244.739 297.597 225.921 290.265 225.452C282.933 224.984 286.539 231.483 279.504 234.679C272.472 237.878 267.694 235.781 259.862 221.917L257.991 218.152C257.991 218.152 262.604 219.014 263.178 214.037Z" fill="#B75742"/>
<path d="M256.559 210.612C264.633 216.254 266.417 230.629 258.985 237.494C254.156 241.957 244.639 242.732 239.356 238.308C230.788 231.13 229.833 223.009 232.869 216.629C236.791 208.401 249.898 205.955 256.559 210.612Z" fill="#B75742"/>
<path d="M259.081 230.087C259.081 230.087 261.569 237.827 270.33 242.29C271.407 242.839 258.107 264.273 258.101 264.017C258.062 262.363 260.401 252.709 259.83 251.52C258.275 248.272 249.243 233.467 249.243 233.467L259.081 230.087Z" fill="#F7A491"/>
<path d="M254.056 231.812L249.243 233.467C249.252 233.483 253.214 239.973 256.336 245.299C257.446 244.387 258.426 243.069 259.21 241.259C260.465 238.363 260.652 235.351 260.172 232.488C259.391 231.046 259.081 230.086 259.081 230.086L254.056 231.812Z" fill="#F47458"/>
<path d="M241.159 215.566C241.159 215.566 245.468 213.74 250.155 215.498C254.843 217.256 263.265 228.674 258.923 238.69C254.584 248.705 244.207 243.728 239.601 237.374C234.998 231.024 230.411 221.445 241.159 215.566Z" fill="#F7A491"/>
<path d="M259.833 221.238C256.12 214.778 252.043 210.987 246.317 212.457C240.591 213.928 235.456 214.91 235.069 221.642L234.656 222.792C234.656 222.792 242.949 218.733 246.388 221.91C249.826 225.084 257.03 226.124 257.988 228.325C258.946 230.526 261.313 234.514 261.313 234.514L261.742 232.038C261.742 232.038 263.546 227.698 259.833 221.238Z" fill="#B75742"/>
<path d="M251.088 225.194C251.862 227.201 253.614 228.358 255.001 227.779C256.384 227.204 256.881 225.11 256.107 223.106C255.33 221.102 253.578 219.945 252.194 220.52C250.807 221.099 250.314 223.19 251.088 225.194Z" fill="#F7A491"/>
<path d="M103.165 404.975H203.053V299.202H103.165V404.975Z" fill="#86B1F2"/>
<path d="M201.662 418.591H209.914V296.856H201.662V418.591Z" fill="#184655"/>
<path d="M100.985 419.508H105.647V297.773H100.985V419.508Z" fill="#184655"/>
<path d="M84.7277 301.251H264.626C266.388 301.251 267.814 299.822 267.814 298.058V296.956C267.814 295.191 266.388 293.759 264.626 293.759H84.7273C82.9661 293.759 81.5383 295.191 81.5383 296.956V298.058C81.5383 299.822 82.9661 301.251 84.7277 301.251Z" fill="#184655"/>
<path d="M444.883 59.8113H531.344C539.586 59.8113 546.268 53.1171 546.268 44.8595V14.9518C546.268 6.6942 539.586 0 531.344 0H444.883C436.641 0 429.959 6.6942 429.959 14.9518V44.8595C429.959 53.1171 436.641 59.8113 444.883 59.8113Z" fill="#F7A491"/>
<path d="M515.25 52.5515L517.443 94.9263L487.596 51.5603L515.25 52.5515Z" fill="#F7A491"/>
<path d="M398.688 182.871L400.607 174.126C400.607 174.126 406.885 178.12 410.549 183.824C414.213 189.527 415.958 204.734 417.001 205.306C418.051 205.875 429.639 187.985 431.668 185.163C434.173 181.677 435.113 177.672 436.68 174.63C438.252 171.588 443.778 170.554 445.871 170.935C447.964 171.315 442.994 180.21 442.994 180.21C442.994 180.21 430.434 202.072 426.248 214.05C422.059 226.027 408.981 231.731 406.885 230.02C404.792 228.309 398.688 182.871 398.688 182.871Z" fill="#F48C7F"/>
<path d="M436.815 176.307C436.815 176.307 437.337 174.006 438.747 173.536C440.157 173.065 442.612 173.483 442.767 173.536C442.923 173.585 445.64 172.123 445.64 172.123L443.393 176.307C443.393 176.307 439.008 181.489 437.546 179.553C436.083 177.617 436.815 176.307 436.815 176.307Z" fill="#F7A491"/>
<path d="M446.429 172.31C446.429 172.31 448.011 180.384 447.61 182.076C447.209 183.775 446.198 182.865 446.01 182.495C445.23 180.978 444.684 175.8 444.684 175.8L446.429 172.31Z" fill="#F48C7F"/>
<path d="M443.012 179.027C443.012 179.027 443.769 184.035 444.547 184.623C445.052 185.009 445.692 184.783 445.904 183.77C446.113 182.757 444.893 176.586 444.893 176.586L443.012 179.027Z" fill="#F48C7F"/>
<path d="M438.396 193.237L435.767 191.951L446.935 169.004C448.385 169.712 448.989 171.467 448.278 172.92L438.396 193.237Z" fill="#184655"/>
<path d="M410.342 146.909C411.919 139.734 413.46 132.51 409.304 124.627C405.946 118.244 400.132 114.575 393.405 113.773C374.343 111.508 378.419 129.335 351.779 133.195C343.504 134.394 335.812 135.544 328.901 139.671C316.42 147.116 311.711 159.062 319.989 178.527C340.255 226.182 389.996 185.725 396.136 176.342C400.709 169.361 409.328 151.53 410.342 146.909Z" fill="#13375B"/>
<path d="M334.117 447.941C334.117 447.941 332.759 461.748 329.271 464.281C325.781 466.815 321.13 476.194 323.455 481.265C324.181 482.848 325.636 483.766 327.291 484.277C332.194 485.789 337.407 483.242 339.494 478.547C340.662 475.926 341.684 472.429 341.888 468.021C342.413 456.803 345.9 451.099 345.9 451.099L334.117 447.941Z" fill="#F7A491"/>
<path d="M387.727 453.591C387.727 453.591 388.828 467.524 387.933 472.051C387.456 474.475 384.796 479.465 386.019 481.747C387.239 484.028 388.635 484.597 388.635 484.597L420.284 485.107C422.005 485.133 420.866 484.025 419.477 483.004C417.201 481.329 415.365 480.224 408.094 476.711C407.623 476.482 405.896 475.383 405.276 475.005C403.693 474.039 402.111 472.523 400.746 471.004C398.476 468.477 398.276 456.209 398.276 456.209L387.727 453.591Z" fill="#F7A491"/>
<path d="M412.464 268.422C412.464 268.422 416.452 291.041 413.833 305.869C411.217 320.696 398.657 458.141 398.657 458.141L384.702 458.93C384.702 458.93 381.774 401.514 382.298 393.531C382.824 385.545 386.966 372.185 386.966 372.185L385.574 325.831L403.188 264.931L412.464 268.422Z" fill="#3C8F7C"/>
<path d="M371.447 263.667C371.447 263.667 360.457 280.205 357.839 293.891C355.224 307.581 359.76 349.643 354.726 367.58C352.001 377.291 341.675 392.284 340.105 404.833C338.532 417.378 332.376 450.243 332.376 450.243L346.327 453.009L378.748 370.928L404.18 296.742L410.694 258.532L371.447 263.667Z" fill="#50BFA5"/>
<path d="M380.343 169.567C380.343 169.567 370.716 170.66 364.961 176.933C359.204 183.206 374.265 233.635 375.312 241.621C376.36 249.603 366.736 268.228 366.736 268.228C366.736 268.228 402.695 274.889 412.466 268.422C412.466 268.422 413.513 211.01 412.466 205.306C411.418 199.604 402.695 176.408 400.604 174.129C398.509 171.846 380.343 169.567 380.343 169.567Z" fill="#FAE0B2"/>
<path d="M366.733 181.666C367.663 178.857 370.841 177.504 373.553 178.676C377.27 180.288 382.4 183.342 384.903 188.577C389.09 197.32 403.743 227.358 408.279 228.499C412.816 229.64 431.308 197.32 431.308 197.32C431.308 197.32 430.781 191.617 432.355 188.386C433.925 185.152 438.634 181.733 439.331 182.874C440.031 184.015 436.714 186.866 436.714 187.437C436.714 188.007 438.111 188.386 440.031 187.245C441.951 186.105 442.987 183.799 442.987 183.799C442.987 183.799 446.134 189.527 442.821 194.66C439.504 199.793 438.111 201.883 438.111 201.883C438.111 201.883 416.652 249.602 408.802 250.171C401.49 250.704 359.385 203.916 366.733 181.666Z" fill="#F7A491"/>
<path d="M385.186 150.127C385.186 150.127 385.111 150.555 384.975 151.283C384.326 154.782 381.829 166.384 380.14 169.575C378.1 173.428 387.122 185.722 395.806 184.225C398.391 183.776 393.624 172.928 393.851 171.778C394.292 169.578 394.885 166.576 395.495 163.499C395.836 161.761 396.186 160.003 396.51 158.346C397.441 153.645 398.196 149.802 398.196 149.802L385.186 150.127Z" fill="#F7A491"/>
<path d="M384.973 151.284C385.109 150.554 385.184 150.125 385.184 150.125L398.196 149.803C398.196 149.803 397.438 153.645 396.511 158.348C396.187 159.995 395.843 161.742 395.499 163.47C393.489 163.175 391.389 162.197 389.288 160.355C386.99 158.348 385.485 155.935 384.581 153.356C384.74 152.535 384.873 151.827 384.973 151.284Z" fill="#F47458"/>
<path d="M393.012 119.143C393.012 119.143 387.707 119.88 383.859 124.851C380.015 129.823 375.874 145.199 385.422 153.556C394.973 161.916 404.41 152.453 405.808 142.421C407.209 132.389 406.925 118.78 393.012 119.143Z" fill="#F7A491"/>
<path d="M408.863 138.994C407.726 141.209 405.814 142.437 404.591 141.733C403.371 141.03 403.305 138.665 404.445 136.451C405.588 134.233 407.501 133.008 408.721 133.708C409.944 134.412 410.007 136.776 408.863 138.994Z" fill="#F7A491"/>
<path d="M394.629 118.909C394.629 118.909 386.436 133.53 380.574 134.206C374.713 134.881 373.942 142.65 373.942 142.65C373.942 142.65 376.039 124.749 381.842 121.294C387.645 117.843 394.629 118.909 394.629 118.909Z" fill="#13375B"/>
<path d="M382.491 137.689C382.968 140.285 382.01 142.666 380.349 143.006C378.691 143.348 376.958 141.519 376.481 138.924C376.003 136.326 376.965 133.944 378.623 133.605C380.281 133.265 382.013 135.091 382.491 137.689Z" fill="#F7A491"/>
<path d="M340.445 476.078C332.842 477.464 327.784 473.018 325.152 469.689C323.216 473.46 322.033 478.169 323.455 481.265C324.707 483.993 328.116 484.739 330.997 484.846C334.042 484.959 336.891 483.366 338.4 480.712C339.107 479.475 339.836 477.933 340.445 476.078Z" fill="#3C8F7C"/>
<path d="M405.274 475.001C396.904 477.147 390.719 475.686 387.256 474.293C386.362 476.821 385.179 479.994 385.808 481.824C386.576 484.063 387.67 484.571 388.639 484.597C396.282 484.797 416.642 485.071 422.47 485.146C423.283 485.159 423.735 484.205 423.208 483.582C421.763 481.856 405.9 475.383 405.274 475.001Z" fill="#3C8F7C"/>
<path d="M114.802 474.375H43.1401C34.0131 465.755 28.4525 453.885 28.6554 440.864C28.758 434.291 30.067 428.557 32.7976 422.928L125.192 424.001C127.745 429.721 129.115 436 129.013 442.577C128.82 454.984 123.431 466.166 114.802 474.375Z" fill="#F47458"/>
<path d="M460.777 87.3964H391.028C384.38 87.3964 378.99 81.9961 378.99 75.3319V51.2066C378.99 44.5461 384.38 39.1458 391.028 39.1458H460.777C467.428 39.1458 472.819 44.5461 472.819 51.2066V75.3319C472.819 81.9961 467.428 87.3964 460.777 87.3964Z" fill="#FAE0B2"/>
<path d="M408.885 80.7381L399.751 108.189L426.322 80.7381H408.885Z" fill="#FAE0B2"/>
<path d="M105.66 329.92C105.66 329.92 144.649 318.198 146.22 318.489C147.763 318.777 141.637 331.804 142.403 336.015C142.648 337.363 109.031 356.624 101.56 355.202C93.4147 353.654 62.1007 326.669 58.761 320.819C55.0284 314.278 48.493 297.964 52.8462 291.823C54.8297 289.022 59.6362 285.295 62.9713 286.084C76.2364 289.219 90.5589 312.756 105.66 329.92Z" fill="#355389"/>
<path d="M107.801 374.703C107.545 373.539 99.455 354.692 99.0437 352.769C93.6702 327.645 72.9855 290.906 63.4088 286.177C61.8598 285.402 50.804 285.331 50.804 285.331L56.5185 288.162C63.0288 294.121 70.3142 301.011 74.9616 308.7C88.4386 330.999 97.6179 382.369 98.8447 382.278C100.216 382.178 108.369 377.275 107.801 374.703Z" fill="#466EB6"/>
<path d="M94.9995 375.401C76.068 364.367 73.0906 338.322 65.0871 324.338C55.2865 307.21 40.8334 305.342 15.9542 336.39C-14.5457 374.451 0.973269 451.021 43.0885 475.56L144.08 475.341C164.887 467.836 174.133 456.832 181.607 438.501C214.846 356.979 137.115 399.936 94.9995 375.401Z" fill="#F7CC7F"/>
<path d="M139.793 459.954C139.793 459.954 139.088 472.422 139.084 472.448C138.825 474.029 137.805 477.942 137.805 479.38C137.805 484.787 161.814 474.791 156.433 472.397C155.946 472.177 152.638 469.313 152.478 467.475C152.231 464.64 152.362 460.129 152.362 460.129L139.793 459.954Z" fill="#F7A491"/>
<path d="M156.086 472.16C156.086 472.16 150.45 473.812 147.563 474.226C144.675 474.639 140.869 471.159 138.827 472.099C137.159 472.868 136.509 478.44 136.285 481.262C136.213 482.157 136.893 482.933 137.787 482.981C144.426 483.327 169.67 484.494 176.221 482.593C179.619 481.607 167.61 476.01 156.086 472.16Z" fill="#07345A"/>
<path d="M207.259 447.454C207.259 447.454 201.62 449.105 198.733 449.519C195.849 449.932 192.042 446.452 190 447.392C188.332 448.161 187.681 453.733 187.457 456.555C187.386 457.45 188.169 458.461 189.061 458.552C196.427 459.279 220.843 459.786 227.394 457.886C230.791 456.9 218.781 451.303 207.259 447.454Z" fill="#07345A"/>
<path d="M183.602 437.348C183.602 437.348 190.353 446.862 190.985 448.963C191.617 451.064 207.262 452.602 207.262 447.457C207.262 447.389 202.411 443.437 201.04 441.633C198.749 438.621 193.404 428.557 193.404 428.557L183.602 437.348Z" fill="#F7A491"/>
<path d="M38.2217 230.103C38.2217 230.103 30.6014 224.942 27.3805 233.984C27.3805 233.984 23.0763 232.679 21.2347 237.109C21.2347 237.109 13.8547 236.553 14.4599 247.289C14.4599 247.289 10.7509 247.406 11.2154 251.749C11.6799 256.096 14.4528 258.446 14.4528 258.446C14.4528 258.446 12.7838 260.391 14.5518 264.088C16.0554 267.233 18.9044 267.133 18.9044 267.133C18.9044 267.133 20.8747 272.556 23.6644 273.703C26.454 274.85 29.5679 273.315 29.5679 273.315C29.5679 273.315 31.1092 276.149 33.8714 275.257C36.634 274.362 39.5339 270.898 42.9588 271.411C46.3836 271.922 54.298 268.833 54.298 268.833C54.298 268.833 62.5973 262.689 57.7654 253.876C57.7654 253.876 61.6383 248.43 56.2483 244.116C56.2483 244.116 57.5287 235.219 50.3465 231.725C43.1646 228.232 38.2217 230.103 38.2217 230.103Z" fill="#07345A"/>
<path d="M159.021 364.872C152.686 361.747 86.2213 372.117 86.2213 372.117L78.253 359.394L52.3092 365.289C52.3092 365.289 44.9666 373.759 44.6628 377.553C43.6799 389.824 49.295 410.466 55.6276 412.473C78.1817 419.618 126.672 405.014 133.46 403.453C133.46 403.453 133.213 414.46 135.27 436.928C136.083 445.809 137.148 455.594 138.134 464.152C144.07 464.139 150.006 464.029 155.942 463.244C155.942 463.244 165.356 367.994 159.021 364.872Z" fill="#F47458"/>
<path d="M201.149 436.003C189.781 407.231 165.106 350.768 156.165 349.178C144.443 347.097 86.2115 372.14 86.2115 372.14L145.291 370.905C145.291 370.905 145.616 371.49 148.188 383.897C150.193 393.567 172.418 427.62 185.09 446.484C190.935 443.837 196.724 441.391 201.149 436.003Z" fill="#B75742"/>
<path d="M51.0859 285.544C51.0859 285.544 36.3747 285.376 34.8112 285.722C33.2479 286.068 36.0463 345.872 37.9598 368.188C39.8731 390.503 42.9398 393.851 42.9398 393.851C42.9398 393.851 63.92 393.935 78.418 389.349C93.4934 384.582 97.0754 367.037 97.0754 367.037C97.0754 367.037 83.4203 326.918 77.9471 314.485C74.4458 306.531 67.4504 297.579 60.3665 290.292C56.3759 286.184 51.0859 285.544 51.0859 285.544Z" fill="white"/>
<path d="M46.9485 274.663L49.9011 282.729C49.9011 282.729 55.0482 294.157 52.333 297.179C49.6176 300.203 35.3947 285.58 35.3947 285.58L31.8573 264.263L46.9485 274.663Z" fill="#F7A491"/>
<path d="M33.0047 271.172C37.2528 277.768 44.5708 280.784 49.4517 281.501L46.9485 274.659L31.857 264.263L33.0047 271.172Z" fill="#F47458"/>
<path d="M34.4286 240.473C40.4751 236.77 48.4102 239.582 50.8986 246.119C51.9802 248.96 53.1873 252.567 54.1505 256.59C56.4679 266.263 53.5328 276.828 49.1302 277.801C44.7276 278.777 31.1741 275.18 27.6941 261.49C25.5457 253.035 28.0835 244.361 34.4286 240.473Z" fill="#F7A491"/>
<path d="M31.1787 261.861C31.6506 264.004 30.6158 266.053 28.8671 266.441C27.118 266.829 25.3177 265.404 24.8451 263.261C24.3729 261.118 25.4077 259.069 27.1564 258.681C28.9055 258.293 30.7061 259.719 31.1787 261.861Z" fill="#F7A491"/>
<path d="M35.3663 285.518C35.3663 285.518 18.2854 284.836 14.3984 288.437C11.9264 290.725 16.9332 313.622 16.9332 313.622C16.9332 313.622 30.8663 340.342 32.8925 355.971C36.2573 381.932 39.326 397.881 40.654 398.741C48.3304 401.501 73.7074 396.249 74.7626 393.247C86.4112 360.076 35.3663 285.518 35.3663 285.518Z" fill="#466EB6"/>
<path d="M117.972 340.501L129.312 292.531C129.605 291.287 130.712 290.411 131.986 290.411H152.576C154.38 290.411 155.695 292.124 155.232 293.872L142.727 341.076C142.417 342.243 141.384 343.073 140.178 343.122L120.754 343.884C118.937 343.959 117.552 342.272 117.972 340.501Z" fill="#184655"/>
<path d="M136.76 339.26C135.888 339.428 134.448 339.744 133.451 340.11C132.373 340.504 131.26 340.53 130.305 340.727C128.409 341.118 127.032 341.428 127.059 341.344C127.094 341.234 126.667 341.053 127.657 340.675C128.847 340.223 131.582 339.806 133.281 339.008C134.244 338.555 136.314 337.731 136.314 337.731C136.314 337.731 139.216 335.915 139.167 335.714C138.905 334.635 136.577 335.333 135.346 336.115C134.31 336.222 132.156 337.149 132.156 337.149C132.156 337.149 127.388 338.08 127.255 337.424C127.199 337.146 130.061 336.235 132.731 334.913C135.209 333.685 137.516 332.053 137.352 331.542C137.072 330.673 134.177 331.752 134.177 331.752C134.177 331.752 132.188 332.612 131.506 332.851C130.706 333.129 128.25 333.782 128.25 333.782C128.25 333.782 119.6 335.669 119.529 335.036C119.459 334.405 119.941 332.699 120.439 332.402C120.936 332.104 122.133 332.02 122.631 331.723C123.129 331.426 123.526 330.624 123.21 330.004C122.894 329.383 119.942 329.933 119.942 329.933C119.942 329.933 117.544 330.395 116.252 331.481C111.777 335.243 112.58 335.811 111.993 336.28C111.3 336.833 99.4898 338.129 99.4898 338.129C99.4898 338.129 64.7058 342.175 62.8207 342.33L64.0413 353.932C66.1136 354.142 106.257 347.136 110.377 346.311C110.377 346.311 115.628 347.097 118.944 347.485C122.26 347.869 125.609 346.79 126.562 346.757C126.703 346.751 129.875 346.467 133.703 345.096C137.003 343.917 133.349 343.568 133.349 343.568C133.349 343.568 126.855 344.689 126.862 344.175C126.868 343.778 130.448 343.37 134.111 342.1C135.053 341.774 135.982 341.451 136.833 341.144C139.066 340.342 139.226 338.785 136.76 339.26Z" fill="#F8A492"/>
<path d="M57.6194 336.648C57.6194 336.648 98.1937 336.358 99.7646 336.648C101.307 336.936 101.742 347.365 102.507 351.576C102.752 352.927 59.7394 357.752 52.2678 356.33C44.1224 354.782 23.608 332.205 18.8548 324.584C14.8677 318.195 6.35968 301.929 8.47548 294.81C9.75386 290.511 16.3922 285.654 20.0167 286.779C34.4734 291.268 57.6194 336.648 57.6194 336.648Z" fill="#86B1F2"/>
<path d="M149.543 317.507C150.323 317.203 151.202 317.668 151.361 318.492C151.524 319.332 151.529 320.344 150.886 320.987C149.61 322.264 140.996 323.223 140.996 321.947C140.996 320.961 146.839 318.563 149.543 317.507Z" fill="#F7A491"/>
<path d="M151.439 321.255C151.439 321.255 152.429 324.435 151.687 324.493C150.945 324.552 141.712 325.848 141.255 324.762C140.799 323.676 150.219 320.654 151.439 321.255Z" fill="#F7A491"/>
<path d="M151.819 324.827C151.819 324.827 152.174 326.236 151.461 327.111C150.748 327.987 142.092 328.007 141.688 326.656C141.285 325.302 151.447 323.792 151.819 324.827Z" fill="#F7A491"/>
<path d="M149.842 328.075C149.842 328.075 150.022 329.151 149.663 329.681C149.305 330.211 142.9 330.553 142.064 329.303C141.228 328.052 148.892 326.792 149.842 328.075Z" fill="#F7A491"/>
<path d="M438.986 278.311C444.874 276.611 445.033 277.665 445.783 277.426C446.661 277.145 453.783 267.481 453.783 267.481C453.783 267.481 474.976 239.158 476.06 237.584L482.744 200.935L502.826 200.776C502.826 200.776 494.437 240.354 493.618 242.315C492.798 244.274 459.209 278.867 456.366 282.015C456.366 282.015 454.525 287.127 453.259 290.291C451.989 293.455 449.274 295.766 448.769 296.59C448.696 296.713 446.847 299.344 443.612 301.907C440.823 304.117 442.295 300.678 442.295 300.678C442.295 300.678 446.61 295.608 446.105 295.307C445.717 295.075 443.542 297.993 440.489 300.472C439.705 301.108 438.924 301.735 438.206 302.304C436.318 303.797 434.718 303.002 436.404 301.108C437.002 300.439 438.023 299.353 438.874 298.694C439.794 297.977 440.369 297.007 441.037 296.283C442.357 294.842 443.344 293.811 443.247 293.782C443.119 293.746 443.157 293.261 442.299 293.911C441.27 294.69 439.503 296.859 437.883 297.883C436.963 298.461 435.134 299.796 435.134 299.796C435.134 299.796 431.926 301.273 431.755 301.111C430.831 300.229 432.668 298.591 434.039 297.97C434.656 297.12 436.629 295.773 436.629 295.773C436.629 295.773 439.899 292.114 439.328 291.607C439.083 291.387 436.777 293.371 434.163 294.939C431.739 296.393 429.005 297.453 428.586 297.001C427.879 296.234 430.365 294.321 430.365 294.321C430.365 294.321 432.19 293.077 432.757 292.618C433.425 292.079 435.281 290.298 435.281 290.298C435.281 290.298 441.414 283.782 440.831 283.343C440.249 282.9 438.349 282.305 437.81 282.567C437.274 282.826 436.602 283.834 436.062 284.096C435.522 284.358 434.547 284.228 434.097 283.576C433.65 282.926 435.65 280.644 435.65 280.644C435.65 280.644 437.289 278.802 438.986 278.311Z" fill="#F48C7F"/>
<path d="M472.325 462.171C472.325 462.171 473.045 474.817 473.045 474.843C473.308 476.446 474.343 480.415 474.343 481.872C474.343 487.357 449.994 477.218 455.45 474.788C455.947 474.568 458.532 472.907 458.695 471.04C458.947 468.166 459.578 462.349 459.578 462.349L472.325 462.171Z" fill="#F7A491"/>
<path d="M455.51 474.736C455.51 474.736 461.227 476.414 464.158 476.834C467.086 477.254 470.945 473.721 473.014 474.675C475.295 475.725 475.061 486.061 475.061 486.061C475.061 486.061 444.552 487.864 435.926 485.082C432.516 483.979 443.824 478.644 455.51 474.736Z" fill="#184655"/>
<path d="M525.97 463.383C525.97 463.383 526.685 476.029 526.689 476.055C526.952 477.661 527.985 481.627 527.985 483.088C527.985 488.568 503.637 478.434 509.092 476.003C509.589 475.784 512.944 472.878 513.106 471.014C513.356 468.137 513.223 463.561 513.223 463.561L525.97 463.383Z" fill="#F7A491"/>
<path d="M509.152 475.952C509.152 475.952 514.867 477.629 517.799 478.046C520.727 478.466 524.586 474.937 526.656 475.891C528.937 476.941 529.026 486.387 529.026 486.387C529.026 486.387 496.405 488.757 488.732 486.533C485.287 485.534 497.464 479.856 509.152 475.952Z" fill="#184655"/>
<path d="M487.388 280.851L477.094 285.298L455.438 388.903L456.319 466.572L473.676 466.977C473.676 466.977 481.751 399.035 481.751 393.77C481.751 388.505 519.147 301.631 519.147 301.631L487.388 280.851Z" fill="#355389"/>
<path d="M495.332 286.552C495.332 286.552 502.916 366.375 502.916 379.832C502.916 393.286 509.062 468.593 509.062 468.593L526.463 468.493C526.463 468.493 527.717 445.538 529.585 411.768C529.876 406.481 529.208 395.81 529.585 390.332C532.293 350.952 537.644 313.88 535.088 299.186C534.678 296.82 533.904 290.634 532.396 289.073C521.001 277.264 495.332 286.552 495.332 286.552Z" fill="#466EB6"/>
<path d="M474.105 223.555L495.161 222.142C495.161 222.142 496.2 203.286 496.2 194.292C496.2 183.38 499.519 167.292 498.221 167.593C494.581 168.441 488.288 171.801 485.371 175.876C475.268 189.976 474.105 223.555 474.105 223.555Z" fill="#3C8F7C"/>
<path d="M523.99 167.175C523.99 167.175 535.995 168.848 539.16 171.173C542.714 173.792 546.668 179.651 546.668 179.651C546.668 179.651 531.926 249.464 531.901 261.211C531.876 270.299 535.09 292.615 535.09 292.615C535.09 292.615 490.541 295.433 473.673 288.759C473.673 288.759 479.001 262.219 479.001 255.249C479.001 248.281 485.371 184.909 486.824 180.483C488.141 176.467 490.541 169.251 498.684 167.472C506.823 165.693 523.99 167.175 523.99 167.175Z" fill="#50BFA5"/>
<path d="M520.712 148.378L523.684 167.874C523.684 167.874 512.829 191.086 506.35 189.073C500.919 187.384 504.26 166.845 504.26 166.845C504.26 166.845 507.225 155.814 506.334 150.296C505.448 144.777 520.712 148.378 520.712 148.378Z" fill="#F7A491"/>
<path d="M506.331 150.297C505.444 144.777 520.713 148.379 520.713 148.379L520.956 149.996C520.513 151.081 519.962 152.006 519.302 152.714C515.891 156.368 510.557 158.561 505.951 158.729C506.414 155.752 506.694 152.562 506.331 150.297Z" fill="#F47458"/>
<path d="M523.214 120.804C523.645 120.646 526.672 143.006 520.929 149.159C515.186 155.308 503.991 157.323 499.973 152.478C495.536 147.12 495.757 123.089 504.692 116.758C513.622 110.432 523.214 120.804 523.214 120.804Z" fill="#F7A491"/>
<path d="M508.095 104.794C514.998 106.195 519.468 110.395 521.113 112.182C524.246 112.552 528.508 114.278 532.909 121.526C538.318 130.439 534.324 140.317 528.024 145.161C521.728 150.006 521.798 155.632 521.798 155.632L520.822 152.709C520.087 150.515 519.788 148.19 520.03 145.889C520.178 144.508 520.477 143.016 521.051 141.788C522.565 138.554 517.795 136.405 516.462 133.709C515.432 131.639 515.379 126.897 513.759 123.47L511.823 120.852C511.823 120.852 507.352 117.392 502.98 118.37C498.608 119.344 499.236 102.999 508.095 104.794Z" fill="#13375B"/>
<path d="M516.749 137.694C516.705 140.418 517.951 142.653 519.533 142.681C521.115 142.709 522.436 140.519 522.484 137.791C522.528 135.062 521.279 132.828 519.701 132.804C518.115 132.776 516.797 134.966 516.749 137.694Z" fill="#F7A491"/>
<path d="M493.37 238.189L493.083 239.853C492.933 240.709 492.122 241.285 491.269 241.136L456.834 235.161C455.981 235.013 455.407 234.198 455.556 233.342L455.843 231.677C455.992 230.821 456.803 230.247 457.657 230.395L492.092 236.369C492.949 236.518 493.519 237.332 493.37 238.189Z" fill="#13375B"/>
<path d="M542.185 176.165C538.146 176.047 534.571 202.744 537.135 205.378C539.694 208.011 540.183 240.893 540.183 240.893L502.071 239.943V239.956C501.325 239.458 493.34 234.085 492.197 232.91C491 231.679 485.182 232.295 483.643 233.988C482.1 235.682 487.067 234.296 488.433 235.22C489.803 236.144 487.408 238.453 487.408 238.453C487.408 238.453 477.75 239.858 475.865 237.855C473.985 235.854 468.951 232.466 468.268 234.468C467.918 235.5 470.511 238.631 471.974 239.943C470.148 238.576 467.964 237.123 467.214 237.376C465.848 237.839 466.417 239.584 467.159 240.095C467.901 240.608 475.57 246.474 476.767 246.885C477.935 247.285 495.768 247.728 498.85 248.41C498.85 248.41 549.108 259.876 551.966 259.162C554.47 258.532 556.979 242.418 556.979 230.072C556.979 217.727 554.812 176.531 542.185 176.165Z" fill="#F7A491"/>
<path d="M536.94 170.077C536.94 170.077 543.973 171.699 551.235 179.875C557.838 187.31 562 228.948 562 228.948L539.195 232.641L537.374 212.5L531.28 203.287L536.94 170.077Z" fill="#50BFA5"/>
<path d="M151.281 254.668H96.1488C90.8927 254.668 86.6318 250.398 86.6318 245.134V226.063C86.6318 220.798 90.8927 216.529 96.1488 216.529H151.281C156.537 216.529 160.798 220.798 160.798 226.063V245.134C160.798 250.398 156.537 254.668 151.281 254.668Z" fill="#FAE0B2"/>
<path d="M107.394 253.757L66.0663 269.064L96.4565 245.37L107.394 253.757Z" fill="#FAE0B2"/>
<path d="M387.224 497H385.676L385.686 495.857H387.224C387.608 495.857 387.932 495.771 388.195 495.599C388.459 495.423 388.658 495.167 388.791 494.832C388.928 494.497 388.996 494.091 388.996 493.616V493.27C388.996 492.905 388.957 492.584 388.879 492.308C388.804 492.031 388.692 491.798 388.542 491.609C388.392 491.421 388.208 491.279 387.99 491.185C387.772 491.087 387.521 491.038 387.238 491.038H385.646V489.891H387.238C387.714 489.891 388.148 489.972 388.542 490.135C388.939 490.294 389.283 490.524 389.572 490.823C389.862 491.123 390.085 491.481 390.241 491.897C390.401 492.311 390.48 492.771 390.48 493.279V493.616C390.48 494.121 390.401 494.581 390.241 494.998C390.085 495.415 389.862 495.773 389.572 496.072C389.286 496.368 388.942 496.598 388.542 496.761C388.145 496.92 387.705 497 387.224 497ZM386.506 489.891V497H385.041V489.891H386.506ZM393.889 497.098C393.479 497.098 393.111 497.033 392.785 496.902C392.46 496.769 392.183 496.585 391.955 496.351C391.73 496.116 391.558 495.844 391.438 495.535C391.317 495.223 391.257 494.891 391.257 494.539V494.344C391.257 493.943 391.314 493.577 391.428 493.245C391.542 492.913 391.704 492.625 391.916 492.381C392.131 492.137 392.391 491.95 392.697 491.819C393.003 491.686 393.348 491.619 393.732 491.619C394.107 491.619 394.439 491.681 394.729 491.805C395.018 491.928 395.261 492.104 395.456 492.332C395.655 492.56 395.804 492.833 395.905 493.152C396.006 493.468 396.057 493.82 396.057 494.207V494.793H391.857V493.855H394.675V493.748C394.675 493.553 394.639 493.379 394.567 493.226C394.499 493.069 394.395 492.946 394.255 492.854C394.115 492.763 393.936 492.718 393.718 492.718C393.532 492.718 393.373 492.758 393.239 492.84C393.106 492.921 392.997 493.035 392.912 493.182C392.831 493.328 392.769 493.501 392.727 493.699C392.688 493.895 392.668 494.109 392.668 494.344V494.539C392.668 494.751 392.697 494.946 392.756 495.125C392.818 495.304 392.904 495.459 393.015 495.589C393.129 495.719 393.265 495.82 393.425 495.892C393.588 495.963 393.771 495.999 393.977 495.999C394.23 495.999 394.466 495.95 394.685 495.853C394.906 495.752 395.096 495.6 395.256 495.398L395.939 496.141C395.829 496.3 395.677 496.453 395.485 496.6C395.297 496.746 395.069 496.867 394.802 496.961C394.535 497.052 394.23 497.098 393.889 497.098ZM399.714 495.54C399.714 495.439 399.685 495.348 399.626 495.267C399.567 495.185 399.458 495.11 399.299 495.042C399.143 494.97 398.916 494.905 398.62 494.847C398.353 494.788 398.104 494.715 397.873 494.627C397.645 494.536 397.447 494.427 397.277 494.3C397.111 494.173 396.981 494.023 396.887 493.851C396.792 493.675 396.745 493.475 396.745 493.25C396.745 493.029 396.792 492.82 396.887 492.625C396.984 492.43 397.123 492.257 397.302 492.107C397.484 491.954 397.705 491.836 397.966 491.751C398.229 491.663 398.526 491.619 398.854 491.619C399.313 491.619 399.707 491.692 400.036 491.839C400.368 491.985 400.622 492.187 400.798 492.444C400.977 492.698 401.066 492.988 401.066 493.313H399.66C399.66 493.177 399.631 493.055 399.572 492.947C399.517 492.837 399.429 492.75 399.309 492.688C399.191 492.623 399.038 492.591 398.85 492.591C398.693 492.591 398.558 492.618 398.444 492.674C398.33 492.726 398.243 492.798 398.181 492.889C398.122 492.977 398.093 493.074 398.093 493.182C398.093 493.263 398.109 493.336 398.142 493.401C398.177 493.463 398.234 493.52 398.312 493.572C398.391 493.624 398.492 493.673 398.615 493.719C398.742 493.761 398.898 493.8 399.084 493.836C399.465 493.914 399.805 494.017 400.104 494.144C400.404 494.267 400.642 494.437 400.817 494.651C400.993 494.863 401.081 495.141 401.081 495.486C401.081 495.721 401.029 495.936 400.925 496.131C400.821 496.326 400.671 496.497 400.476 496.644C400.28 496.787 400.046 496.899 399.772 496.98C399.502 497.059 399.198 497.098 398.859 497.098C398.368 497.098 397.951 497.01 397.609 496.834C397.271 496.658 397.014 496.435 396.838 496.165C396.665 495.892 396.579 495.612 396.579 495.325H397.912C397.919 495.517 397.967 495.672 398.059 495.789C398.153 495.906 398.272 495.991 398.415 496.043C398.562 496.095 398.719 496.121 398.889 496.121C399.071 496.121 399.222 496.097 399.343 496.048C399.463 495.996 399.554 495.927 399.616 495.843C399.681 495.755 399.714 495.654 399.714 495.54ZM403.479 491.717V497H402.067V491.717H403.479ZM401.979 490.34C401.979 490.135 402.051 489.965 402.194 489.832C402.338 489.699 402.53 489.632 402.771 489.632C403.008 489.632 403.199 489.699 403.342 489.832C403.488 489.965 403.562 490.135 403.562 490.34C403.562 490.545 403.488 490.714 403.342 490.848C403.199 490.981 403.008 491.048 402.771 491.048C402.53 491.048 402.338 490.981 402.194 490.848C402.051 490.714 401.979 490.545 401.979 490.34ZM407.985 491.717H409.26V496.824C409.26 497.306 409.152 497.715 408.938 498.05C408.726 498.388 408.43 498.644 408.049 498.816C407.668 498.992 407.225 499.08 406.721 499.08C406.499 499.08 406.265 499.051 406.018 498.992C405.773 498.934 405.539 498.842 405.314 498.719C405.093 498.595 404.908 498.439 404.758 498.25L405.378 497.42C405.541 497.609 405.729 497.755 405.944 497.859C406.159 497.967 406.397 498.021 406.657 498.021C406.911 498.021 407.126 497.973 407.302 497.879C407.478 497.788 407.613 497.653 407.707 497.474C407.801 497.298 407.849 497.085 407.849 496.834V492.938L407.985 491.717ZM404.431 494.422V494.319C404.431 493.916 404.479 493.549 404.577 493.221C404.678 492.889 404.82 492.604 405.002 492.366C405.188 492.129 405.412 491.945 405.676 491.814C405.939 491.684 406.237 491.619 406.569 491.619C406.921 491.619 407.215 491.684 407.453 491.814C407.691 491.945 407.886 492.13 408.039 492.371C408.192 492.609 408.311 492.89 408.396 493.216C408.483 493.538 408.552 493.891 408.601 494.275V494.5C408.552 494.868 408.479 495.21 408.381 495.525C408.283 495.841 408.155 496.118 407.995 496.355C407.836 496.59 407.637 496.772 407.399 496.902C407.165 497.033 406.885 497.098 406.56 497.098C406.234 497.098 405.939 497.031 405.676 496.897C405.415 496.764 405.192 496.577 405.007 496.336C404.821 496.095 404.678 495.812 404.577 495.486C404.479 495.161 404.431 494.806 404.431 494.422ZM405.837 494.319V494.422C405.837 494.64 405.858 494.843 405.9 495.032C405.943 495.221 406.008 495.389 406.096 495.535C406.187 495.678 406.299 495.791 406.433 495.872C406.569 495.95 406.73 495.989 406.916 495.989C407.173 495.989 407.383 495.936 407.546 495.828C407.709 495.717 407.831 495.566 407.912 495.374C407.993 495.182 408.041 494.961 408.054 494.71V494.07C408.047 493.865 408.02 493.681 407.971 493.519C407.922 493.353 407.854 493.211 407.766 493.094C407.678 492.977 407.564 492.885 407.424 492.82C407.284 492.755 407.118 492.723 406.926 492.723C406.74 492.723 406.579 492.765 406.442 492.85C406.309 492.931 406.197 493.043 406.105 493.187C406.018 493.33 405.951 493.499 405.905 493.694C405.86 493.886 405.837 494.095 405.837 494.319ZM411.73 492.845V497H410.324V491.717H411.643L411.73 492.845ZM411.525 494.173H411.145C411.145 493.782 411.195 493.431 411.296 493.118C411.397 492.802 411.538 492.534 411.721 492.312C411.903 492.088 412.119 491.917 412.37 491.8C412.624 491.679 412.907 491.619 413.22 491.619C413.467 491.619 413.693 491.655 413.898 491.727C414.104 491.798 414.279 491.912 414.426 492.068C414.576 492.225 414.689 492.431 414.768 492.688C414.849 492.946 414.89 493.26 414.89 493.631V497H413.474V493.626C413.474 493.392 413.441 493.209 413.376 493.079C413.311 492.949 413.215 492.858 413.088 492.806C412.964 492.75 412.811 492.723 412.629 492.723C412.44 492.723 412.276 492.76 412.136 492.835C411.999 492.91 411.885 493.014 411.794 493.147C411.706 493.278 411.639 493.431 411.594 493.606C411.548 493.782 411.525 493.971 411.525 494.173ZM418.391 497.098C417.98 497.098 417.613 497.033 417.287 496.902C416.962 496.769 416.685 496.585 416.457 496.351C416.232 496.116 416.06 495.844 415.939 495.535C415.819 495.223 415.759 494.891 415.759 494.539V494.344C415.759 493.943 415.816 493.577 415.93 493.245C416.044 492.913 416.206 492.625 416.418 492.381C416.633 492.137 416.893 491.95 417.199 491.819C417.505 491.686 417.85 491.619 418.234 491.619C418.609 491.619 418.941 491.681 419.23 491.805C419.52 491.928 419.763 492.104 419.958 492.332C420.157 492.56 420.306 492.833 420.407 493.152C420.508 493.468 420.559 493.82 420.559 494.207V494.793H416.359V493.855H419.177V493.748C419.177 493.553 419.141 493.379 419.069 493.226C419.001 493.069 418.897 492.946 418.757 492.854C418.617 492.763 418.438 492.718 418.22 492.718C418.034 492.718 417.875 492.758 417.741 492.84C417.608 492.921 417.499 493.035 417.414 493.182C417.333 493.328 417.271 493.501 417.229 493.699C417.189 493.895 417.17 494.109 417.17 494.344V494.539C417.17 494.751 417.199 494.946 417.258 495.125C417.32 495.304 417.406 495.459 417.517 495.589C417.631 495.719 417.767 495.82 417.927 495.892C418.09 495.963 418.273 495.999 418.479 495.999C418.732 495.999 418.968 495.95 419.187 495.853C419.408 495.752 419.598 495.6 419.758 495.398L420.441 496.141C420.331 496.3 420.179 496.453 419.987 496.6C419.799 496.746 419.571 496.867 419.304 496.961C419.037 497.052 418.732 497.098 418.391 497.098ZM424.479 495.848V489.5H425.896V497H424.621L424.479 495.848ZM421.14 494.422V494.319C421.14 493.916 421.185 493.549 421.276 493.221C421.368 492.889 421.501 492.604 421.677 492.366C421.853 492.129 422.069 491.945 422.326 491.814C422.583 491.684 422.876 491.619 423.205 491.619C423.514 491.619 423.785 491.684 424.016 491.814C424.25 491.945 424.449 492.13 424.611 492.371C424.777 492.609 424.911 492.89 425.012 493.216C425.113 493.538 425.186 493.891 425.231 494.275V494.5C425.186 494.868 425.113 495.21 425.012 495.525C424.911 495.841 424.777 496.118 424.611 496.355C424.449 496.59 424.25 496.772 424.016 496.902C423.781 497.033 423.508 497.098 423.195 497.098C422.867 497.098 422.574 497.031 422.316 496.897C422.062 496.764 421.848 496.577 421.672 496.336C421.499 496.095 421.368 495.812 421.276 495.486C421.185 495.161 421.14 494.806 421.14 494.422ZM422.546 494.319V494.422C422.546 494.64 422.562 494.843 422.595 495.032C422.631 495.221 422.688 495.389 422.766 495.535C422.847 495.678 422.951 495.791 423.078 495.872C423.208 495.95 423.366 495.989 423.552 495.989C423.793 495.989 423.991 495.936 424.147 495.828C424.304 495.717 424.423 495.566 424.504 495.374C424.589 495.182 424.637 494.961 424.65 494.71V494.07C424.641 493.865 424.611 493.681 424.562 493.519C424.517 493.353 424.449 493.211 424.357 493.094C424.27 492.977 424.159 492.885 424.025 492.82C423.895 492.755 423.741 492.723 423.562 492.723C423.379 492.723 423.223 492.765 423.093 492.85C422.963 492.931 422.857 493.043 422.775 493.187C422.697 493.33 422.639 493.499 422.6 493.694C422.564 493.886 422.546 494.095 422.546 494.319ZM429.484 489.5H430.891V495.789L430.749 497H429.484V489.5ZM434.235 494.305V494.407C434.235 494.801 434.193 495.162 434.108 495.491C434.027 495.82 433.9 496.105 433.728 496.346C433.555 496.583 433.34 496.769 433.083 496.902C432.829 497.033 432.53 497.098 432.185 497.098C431.862 497.098 431.582 497.033 431.345 496.902C431.11 496.772 430.913 496.588 430.754 496.351C430.594 496.113 430.466 495.835 430.368 495.516C430.271 495.197 430.197 494.848 430.148 494.471V494.246C430.197 493.868 430.271 493.52 430.368 493.201C430.466 492.882 430.594 492.604 430.754 492.366C430.913 492.129 431.11 491.945 431.345 491.814C431.579 491.684 431.856 491.619 432.175 491.619C432.523 491.619 432.826 491.686 433.083 491.819C433.343 491.95 433.558 492.135 433.728 492.376C433.9 492.614 434.027 492.897 434.108 493.226C434.193 493.551 434.235 493.911 434.235 494.305ZM432.829 494.407V494.305C432.829 494.09 432.813 493.888 432.78 493.699C432.751 493.507 432.699 493.34 432.624 493.196C432.549 493.05 432.447 492.934 432.316 492.85C432.189 492.765 432.025 492.723 431.823 492.723C431.631 492.723 431.468 492.755 431.335 492.82C431.201 492.885 431.091 492.977 431.003 493.094C430.918 493.211 430.855 493.351 430.812 493.514C430.77 493.673 430.744 493.849 430.734 494.041V494.681C430.744 494.938 430.786 495.166 430.861 495.364C430.939 495.56 431.057 495.714 431.213 495.828C431.372 495.939 431.579 495.994 431.833 495.994C432.032 495.994 432.196 495.955 432.326 495.877C432.456 495.799 432.557 495.688 432.629 495.545C432.704 495.402 432.756 495.234 432.785 495.042C432.814 494.847 432.829 494.635 432.829 494.407ZM436.618 496.404L438.02 491.717H439.528L437.404 497.796C437.359 497.929 437.297 498.073 437.219 498.226C437.144 498.379 437.041 498.523 436.911 498.66C436.784 498.8 436.623 498.914 436.428 499.002C436.236 499.09 436 499.134 435.72 499.134C435.586 499.134 435.477 499.126 435.393 499.109C435.308 499.093 435.207 499.07 435.09 499.041V498.011C435.126 498.011 435.163 498.011 435.202 498.011C435.241 498.014 435.279 498.016 435.314 498.016C435.5 498.016 435.651 497.994 435.769 497.952C435.886 497.91 435.98 497.845 436.052 497.757C436.123 497.672 436.18 497.562 436.223 497.425L436.618 496.404ZM436.032 491.717L437.18 495.545L437.38 497.034L436.423 497.137L434.523 491.717H436.032ZM443.986 492.732V499.031H442.58V491.717H443.884L443.986 492.732ZM447.331 494.3V494.402C447.331 494.786 447.285 495.143 447.194 495.472C447.106 495.8 446.976 496.087 446.804 496.331C446.631 496.572 446.416 496.761 446.159 496.897C445.905 497.031 445.612 497.098 445.28 497.098C444.958 497.098 444.678 497.033 444.44 496.902C444.203 496.772 444.003 496.59 443.84 496.355C443.68 496.118 443.552 495.843 443.454 495.53C443.356 495.218 443.282 494.882 443.229 494.524V494.256C443.282 493.872 443.356 493.52 443.454 493.201C443.552 492.879 443.68 492.601 443.84 492.366C444.003 492.129 444.201 491.945 444.436 491.814C444.673 491.684 444.951 491.619 445.271 491.619C445.606 491.619 445.9 491.683 446.154 491.81C446.411 491.937 446.626 492.119 446.799 492.356C446.975 492.594 447.106 492.877 447.194 493.206C447.285 493.535 447.331 493.899 447.331 494.3ZM445.92 494.402V494.3C445.92 494.075 445.9 493.868 445.861 493.68C445.826 493.488 445.767 493.32 445.686 493.177C445.607 493.034 445.503 492.923 445.373 492.845C445.246 492.763 445.091 492.723 444.909 492.723C444.717 492.723 444.553 492.754 444.416 492.815C444.283 492.877 444.174 492.967 444.089 493.084C444.004 493.201 443.941 493.341 443.898 493.504C443.856 493.667 443.83 493.851 443.82 494.056V494.734C443.837 494.975 443.882 495.192 443.957 495.384C444.032 495.573 444.147 495.722 444.304 495.833C444.46 495.944 444.665 495.999 444.919 495.999C445.104 495.999 445.261 495.958 445.388 495.877C445.515 495.792 445.617 495.677 445.695 495.53C445.777 495.384 445.834 495.215 445.866 495.022C445.902 494.83 445.92 494.624 445.92 494.402ZM450.388 495.999C450.56 495.999 450.713 495.966 450.847 495.901C450.98 495.833 451.084 495.739 451.159 495.618C451.237 495.494 451.278 495.35 451.281 495.184H452.604C452.601 495.555 452.502 495.885 452.307 496.175C452.111 496.461 451.849 496.688 451.521 496.854C451.192 497.016 450.824 497.098 450.417 497.098C450.007 497.098 449.649 497.029 449.343 496.893C449.04 496.756 448.788 496.567 448.586 496.326C448.384 496.082 448.233 495.799 448.132 495.477C448.031 495.151 447.98 494.803 447.98 494.432V494.29C447.98 493.916 448.031 493.567 448.132 493.245C448.233 492.92 448.384 492.636 448.586 492.396C448.788 492.151 449.04 491.961 449.343 491.824C449.646 491.688 450 491.619 450.407 491.619C450.84 491.619 451.219 491.702 451.545 491.868C451.874 492.034 452.131 492.272 452.316 492.581C452.505 492.887 452.601 493.25 452.604 493.67H451.281C451.278 493.494 451.241 493.335 451.169 493.191C451.101 493.048 451 492.934 450.866 492.85C450.736 492.762 450.575 492.718 450.383 492.718C450.178 492.718 450.01 492.762 449.88 492.85C449.75 492.934 449.649 493.051 449.577 493.201C449.506 493.348 449.455 493.515 449.426 493.704C449.4 493.89 449.387 494.085 449.387 494.29V494.432C449.387 494.637 449.4 494.834 449.426 495.022C449.452 495.211 449.501 495.379 449.572 495.525C449.647 495.672 449.75 495.787 449.88 495.872C450.01 495.957 450.179 495.999 450.388 495.999ZM454.792 489.5V497H453.386V489.5H454.792ZM454.592 494.173H454.206C454.209 493.805 454.258 493.466 454.353 493.157C454.447 492.845 454.582 492.575 454.758 492.347C454.934 492.116 455.144 491.937 455.388 491.81C455.635 491.683 455.909 491.619 456.208 491.619C456.468 491.619 456.704 491.657 456.916 491.731C457.131 491.803 457.315 491.92 457.468 492.083C457.624 492.243 457.744 492.452 457.829 492.713C457.914 492.973 457.956 493.289 457.956 493.66V497H456.54V493.65C456.54 493.416 456.506 493.232 456.438 493.099C456.372 492.962 456.276 492.866 456.149 492.811C456.026 492.752 455.873 492.723 455.69 492.723C455.489 492.723 455.316 492.76 455.173 492.835C455.033 492.91 454.921 493.014 454.836 493.147C454.751 493.278 454.689 493.431 454.65 493.606C454.611 493.782 454.592 493.971 454.592 494.173ZM459.094 496.321C459.094 496.113 459.165 495.939 459.309 495.799C459.455 495.659 459.649 495.589 459.89 495.589C460.131 495.589 460.323 495.659 460.466 495.799C460.612 495.939 460.686 496.113 460.686 496.321C460.686 496.53 460.612 496.704 460.466 496.844C460.323 496.984 460.131 497.054 459.89 497.054C459.649 497.054 459.455 496.984 459.309 496.844C459.165 496.704 459.094 496.53 459.094 496.321ZM463.723 495.975L464.895 491.717H466.364L464.582 497H463.693L463.723 495.975ZM462.917 491.717L464.094 495.979L464.118 497H463.225L461.442 491.717H462.917ZM469.357 497.098C468.947 497.098 468.579 497.033 468.254 496.902C467.928 496.769 467.652 496.585 467.424 496.351C467.199 496.116 467.027 495.844 466.906 495.535C466.786 495.223 466.726 494.891 466.726 494.539V494.344C466.726 493.943 466.783 493.577 466.896 493.245C467.01 492.913 467.173 492.625 467.385 492.381C467.6 492.137 467.86 491.95 468.166 491.819C468.472 491.686 468.817 491.619 469.201 491.619C469.576 491.619 469.908 491.681 470.197 491.805C470.487 491.928 470.729 492.104 470.925 492.332C471.123 492.56 471.273 492.833 471.374 493.152C471.475 493.468 471.525 493.82 471.525 494.207V494.793H467.326V493.855H470.144V493.748C470.144 493.553 470.108 493.379 470.036 493.226C469.968 493.069 469.864 492.946 469.724 492.854C469.584 492.763 469.405 492.718 469.187 492.718C469.001 492.718 468.841 492.758 468.708 492.84C468.575 492.921 468.465 493.035 468.381 493.182C468.299 493.328 468.238 493.501 468.195 493.699C468.156 493.895 468.137 494.109 468.137 494.344V494.539C468.137 494.751 468.166 494.946 468.225 495.125C468.286 495.304 468.373 495.459 468.483 495.589C468.597 495.719 468.734 495.82 468.894 495.892C469.056 495.963 469.24 495.999 469.445 495.999C469.699 495.999 469.935 495.95 470.153 495.853C470.375 495.752 470.565 495.6 470.725 495.398L471.408 496.141C471.298 496.3 471.146 496.453 470.954 496.6C470.765 496.746 470.537 496.867 470.271 496.961C470.004 497.052 469.699 497.098 469.357 497.098ZM474.509 495.999C474.681 495.999 474.834 495.966 474.968 495.901C475.101 495.833 475.205 495.739 475.28 495.618C475.358 495.494 475.399 495.35 475.402 495.184H476.726C476.722 495.555 476.623 495.885 476.428 496.175C476.232 496.461 475.97 496.688 475.642 496.854C475.313 497.016 474.945 497.098 474.538 497.098C474.128 497.098 473.77 497.029 473.464 496.893C473.161 496.756 472.909 496.567 472.707 496.326C472.505 496.082 472.354 495.799 472.253 495.477C472.152 495.151 472.102 494.803 472.102 494.432V494.29C472.102 493.916 472.152 493.567 472.253 493.245C472.354 492.92 472.505 492.636 472.707 492.396C472.909 492.151 473.161 491.961 473.464 491.824C473.767 491.688 474.121 491.619 474.528 491.619C474.961 491.619 475.34 491.702 475.666 491.868C475.995 492.034 476.252 492.272 476.438 492.581C476.626 492.887 476.722 493.25 476.726 493.67H475.402C475.399 493.494 475.362 493.335 475.29 493.191C475.222 493.048 475.121 492.934 474.987 492.85C474.857 492.762 474.696 492.718 474.504 492.718C474.299 492.718 474.131 492.762 474.001 492.85C473.871 492.934 473.77 493.051 473.698 493.201C473.627 493.348 473.576 493.515 473.547 493.704C473.521 493.89 473.508 494.085 473.508 494.29V494.432C473.508 494.637 473.521 494.834 473.547 495.022C473.573 495.211 473.622 495.379 473.693 495.525C473.768 495.672 473.871 495.787 474.001 495.872C474.131 495.957 474.3 495.999 474.509 495.999ZM480.129 491.717V492.713H477.053V491.717H480.129ZM477.814 490.413H479.221V495.408C479.221 495.561 479.24 495.678 479.279 495.76C479.322 495.841 479.383 495.898 479.465 495.931C479.546 495.96 479.649 495.975 479.772 495.975C479.86 495.975 479.938 495.971 480.007 495.965C480.078 495.955 480.139 495.945 480.188 495.936L480.192 496.971C480.072 497.01 479.942 497.041 479.802 497.063C479.662 497.086 479.507 497.098 479.338 497.098C479.029 497.098 478.758 497.047 478.527 496.946C478.299 496.842 478.124 496.676 478 496.448C477.876 496.22 477.814 495.921 477.814 495.55V490.413ZM480.578 494.412V494.31C480.578 493.922 480.633 493.566 480.744 493.24C480.855 492.911 481.016 492.627 481.228 492.386C481.439 492.145 481.7 491.958 482.009 491.824C482.318 491.688 482.673 491.619 483.073 491.619C483.474 491.619 483.83 491.688 484.143 491.824C484.455 491.958 484.717 492.145 484.929 492.386C485.144 492.627 485.306 492.911 485.417 493.24C485.528 493.566 485.583 493.922 485.583 494.31V494.412C485.583 494.796 485.528 495.153 485.417 495.481C485.306 495.807 485.144 496.092 484.929 496.336C484.717 496.577 484.457 496.764 484.147 496.897C483.838 497.031 483.483 497.098 483.083 497.098C482.683 497.098 482.326 497.031 482.014 496.897C481.704 496.764 481.442 496.577 481.228 496.336C481.016 496.092 480.855 495.807 480.744 495.481C480.633 495.153 480.578 494.796 480.578 494.412ZM481.984 494.31V494.412C481.984 494.633 482.004 494.84 482.043 495.032C482.082 495.224 482.144 495.394 482.229 495.54C482.316 495.683 482.43 495.796 482.57 495.877C482.71 495.958 482.881 495.999 483.083 495.999C483.278 495.999 483.446 495.958 483.586 495.877C483.726 495.796 483.838 495.683 483.923 495.54C484.007 495.394 484.069 495.224 484.108 495.032C484.151 494.84 484.172 494.633 484.172 494.412V494.31C484.172 494.095 484.151 493.893 484.108 493.704C484.069 493.512 484.006 493.343 483.918 493.196C483.833 493.047 483.721 492.929 483.581 492.845C483.441 492.76 483.272 492.718 483.073 492.718C482.875 492.718 482.705 492.76 482.565 492.845C482.429 492.929 482.316 493.047 482.229 493.196C482.144 493.343 482.082 493.512 482.043 493.704C482.004 493.893 481.984 494.095 481.984 494.31ZM487.854 492.869V497H486.447V491.717H487.771L487.854 492.869ZM489.445 491.683L489.421 492.986C489.353 492.977 489.27 492.968 489.172 492.962C489.077 492.952 488.991 492.947 488.913 492.947C488.715 492.947 488.542 492.973 488.396 493.025C488.252 493.074 488.132 493.147 488.034 493.245C487.94 493.343 487.868 493.462 487.819 493.602C487.774 493.742 487.748 493.901 487.741 494.08L487.458 493.992C487.458 493.65 487.492 493.336 487.561 493.05C487.629 492.76 487.728 492.508 487.858 492.293C487.992 492.078 488.155 491.912 488.347 491.795C488.539 491.678 488.758 491.619 489.006 491.619C489.084 491.619 489.164 491.626 489.245 491.639C489.326 491.648 489.393 491.663 489.445 491.683ZM495.637 489.891L493.029 497.61H491.984L494.592 489.891H495.637ZM500.354 489.891V497H498.889V489.891H500.354ZM503.186 492.928V494.07H499.953V492.928H503.186ZM503.527 489.891V491.038H499.953V489.891H503.527ZM505.568 492.869V497H504.162V491.717H505.485L505.568 492.869ZM507.16 491.683L507.136 492.986C507.067 492.977 506.984 492.968 506.887 492.962C506.792 492.952 506.706 492.947 506.628 492.947C506.429 492.947 506.257 492.973 506.11 493.025C505.967 493.074 505.847 493.147 505.749 493.245C505.655 493.343 505.583 493.462 505.534 493.602C505.489 493.742 505.463 493.901 505.456 494.08L505.173 493.992C505.173 493.65 505.207 493.336 505.275 493.05C505.344 492.76 505.443 492.508 505.573 492.293C505.707 492.078 505.869 491.912 506.062 491.795C506.254 491.678 506.473 491.619 506.721 491.619C506.799 491.619 506.879 491.626 506.96 491.639C507.041 491.648 507.108 491.663 507.16 491.683ZM510.158 497.098C509.748 497.098 509.38 497.033 509.055 496.902C508.729 496.769 508.452 496.585 508.225 496.351C508 496.116 507.827 495.844 507.707 495.535C507.587 495.223 507.526 494.891 507.526 494.539V494.344C507.526 493.943 507.583 493.577 507.697 493.245C507.811 492.913 507.974 492.625 508.186 492.381C508.4 492.137 508.661 491.95 508.967 491.819C509.273 491.686 509.618 491.619 510.002 491.619C510.376 491.619 510.708 491.681 510.998 491.805C511.288 491.928 511.53 492.104 511.726 492.332C511.924 492.56 512.074 492.833 512.175 493.152C512.276 493.468 512.326 493.82 512.326 494.207V494.793H508.127V493.855H510.944V493.748C510.944 493.553 510.909 493.379 510.837 493.226C510.769 493.069 510.664 492.946 510.524 492.854C510.384 492.763 510.205 492.718 509.987 492.718C509.802 492.718 509.642 492.758 509.509 492.84C509.375 492.921 509.266 493.035 509.182 493.182C509.1 493.328 509.038 493.501 508.996 493.699C508.957 493.895 508.938 494.109 508.938 494.344V494.539C508.938 494.751 508.967 494.946 509.025 495.125C509.087 495.304 509.174 495.459 509.284 495.589C509.398 495.719 509.535 495.82 509.694 495.892C509.857 495.963 510.041 495.999 510.246 495.999C510.5 495.999 510.736 495.95 510.954 495.853C511.175 495.752 511.366 495.6 511.525 495.398L512.209 496.141C512.098 496.3 511.947 496.453 511.755 496.6C511.566 496.746 511.338 496.867 511.071 496.961C510.804 497.052 510.5 497.098 510.158 497.098ZM515.559 497.098C515.148 497.098 514.781 497.033 514.455 496.902C514.13 496.769 513.853 496.585 513.625 496.351C513.4 496.116 513.228 495.844 513.107 495.535C512.987 495.223 512.927 494.891 512.927 494.539V494.344C512.927 493.943 512.984 493.577 513.098 493.245C513.212 492.913 513.374 492.625 513.586 492.381C513.801 492.137 514.061 491.95 514.367 491.819C514.673 491.686 515.018 491.619 515.402 491.619C515.777 491.619 516.109 491.681 516.398 491.805C516.688 491.928 516.931 492.104 517.126 492.332C517.325 492.56 517.474 492.833 517.575 493.152C517.676 493.468 517.727 493.82 517.727 494.207V494.793H513.527V493.855H516.345V493.748C516.345 493.553 516.309 493.379 516.237 493.226C516.169 493.069 516.065 492.946 515.925 492.854C515.785 492.763 515.606 492.718 515.388 492.718C515.202 492.718 515.043 492.758 514.909 492.84C514.776 492.921 514.667 493.035 514.582 493.182C514.501 493.328 514.439 493.501 514.396 493.699C514.357 493.895 514.338 494.109 514.338 494.344V494.539C514.338 494.751 514.367 494.946 514.426 495.125C514.488 495.304 514.574 495.459 514.685 495.589C514.799 495.719 514.935 495.82 515.095 495.892C515.257 495.963 515.441 495.999 515.646 495.999C515.9 495.999 516.136 495.95 516.354 495.853C516.576 495.752 516.766 495.6 516.926 495.398L517.609 496.141C517.499 496.3 517.347 496.453 517.155 496.6C516.966 496.746 516.739 496.867 516.472 496.961C516.205 497.052 515.9 497.098 515.559 497.098ZM519.934 492.732V499.031H518.527V491.717H519.831L519.934 492.732ZM523.278 494.3V494.402C523.278 494.786 523.233 495.143 523.142 495.472C523.054 495.8 522.924 496.087 522.751 496.331C522.578 496.572 522.364 496.761 522.106 496.897C521.853 497.031 521.56 497.098 521.228 497.098C520.905 497.098 520.625 497.033 520.388 496.902C520.15 496.772 519.95 496.59 519.787 496.355C519.628 496.118 519.499 495.843 519.401 495.53C519.304 495.218 519.229 494.882 519.177 494.524V494.256C519.229 493.872 519.304 493.52 519.401 493.201C519.499 492.879 519.628 492.601 519.787 492.366C519.95 492.129 520.148 491.945 520.383 491.814C520.62 491.684 520.899 491.619 521.218 491.619C521.553 491.619 521.848 491.683 522.102 491.81C522.359 491.937 522.574 492.119 522.746 492.356C522.922 492.594 523.054 492.877 523.142 493.206C523.233 493.535 523.278 493.899 523.278 494.3ZM521.867 494.402V494.3C521.867 494.075 521.848 493.868 521.809 493.68C521.773 493.488 521.714 493.32 521.633 493.177C521.555 493.034 521.451 492.923 521.32 492.845C521.193 492.763 521.039 492.723 520.856 492.723C520.664 492.723 520.5 492.754 520.363 492.815C520.23 492.877 520.121 492.967 520.036 493.084C519.951 493.201 519.888 493.341 519.846 493.504C519.803 493.667 519.777 493.851 519.768 494.056V494.734C519.784 494.975 519.829 495.192 519.904 495.384C519.979 495.573 520.095 495.722 520.251 495.833C520.407 495.944 520.612 495.999 520.866 495.999C521.052 495.999 521.208 495.958 521.335 495.877C521.462 495.792 521.564 495.677 521.643 495.53C521.724 495.384 521.781 495.215 521.813 495.022C521.849 494.83 521.867 494.624 521.867 494.402ZM525.637 491.717V497H524.226V491.717H525.637ZM524.138 490.34C524.138 490.135 524.209 489.965 524.353 489.832C524.496 489.699 524.688 489.632 524.929 489.632C525.166 489.632 525.357 489.699 525.5 489.832C525.646 489.965 525.72 490.135 525.72 490.34C525.72 490.545 525.646 490.714 525.5 490.848C525.357 490.981 525.166 491.048 524.929 491.048C524.688 491.048 524.496 490.981 524.353 490.848C524.209 490.714 524.138 490.545 524.138 490.34ZM528.205 489.495V497H526.799V489.495H528.205ZM531.535 491.717L529.24 494.334L528.01 495.579L527.497 494.563L528.474 493.323L529.846 491.717H531.535ZM530.075 497L528.513 494.559L529.484 493.709L531.696 497H530.075Z" fill="white"/>
<path d="M402.544 62.0032C402.504 61.8859 402.404 61.8008 402.283 61.7831L398.12 61.1782L396.258 57.4062C396.15 57.1868 395.787 57.1868 395.679 57.4062L393.817 61.1782L389.656 61.7831C389.534 61.8008 389.433 61.8859 389.395 62.0032C389.358 62.1206 389.389 62.2482 389.477 62.3335L392.489 65.2693L391.778 69.4146C391.757 69.5358 391.807 69.6577 391.906 69.7298C392.006 69.802 392.138 69.8118 392.247 69.7547L395.969 67.7973L399.693 69.7547C399.74 69.7796 399.791 69.7915 399.843 69.7915C399.91 69.7915 399.977 69.7712 400.033 69.7298C400.131 69.6577 400.181 69.5353 400.159 69.4146L399.45 65.2693L402.461 62.3335C402.55 62.2484 402.581 62.1201 402.544 62.0032Z" fill="#FFC50B"/>
<path d="M417.809 62.0032C417.77 61.8859 417.669 61.8008 417.548 61.7831L413.387 61.1782L411.525 57.4062C411.417 57.1868 411.054 57.1868 410.946 57.4062L409.084 61.1782L404.923 61.7831C404.801 61.8008 404.7 61.8859 404.662 62.0032C404.624 62.1206 404.655 62.2482 404.744 62.3335L407.755 65.2693L407.044 69.4146C407.025 69.5358 407.073 69.6577 407.172 69.7298C407.272 69.802 407.404 69.8118 407.512 69.7547L411.236 67.7973L414.958 69.7547C415.005 69.7796 415.058 69.7915 415.109 69.7915C415.177 69.7915 415.243 69.7712 415.299 69.7298C415.398 69.6577 415.448 69.5353 415.426 69.4146L414.716 65.2693L417.727 62.3335C417.815 62.2484 417.847 62.1201 417.809 62.0032Z" fill="#FFC50B"/>
<path d="M433.233 62.0032C433.194 61.8859 433.093 61.8008 432.972 61.7831L428.811 61.1782L426.948 57.4062C426.841 57.1868 426.477 57.1868 426.37 57.4062L424.507 61.1782L420.347 61.7831C420.225 61.8008 420.124 61.8859 420.086 62.0032C420.048 62.1206 420.078 62.2482 420.168 62.3335L423.18 65.2693L422.468 69.4146C422.448 69.5358 422.498 69.6577 422.596 69.7298C422.696 69.802 422.829 69.8118 422.937 69.7547L426.66 67.7973L430.384 69.7547C430.43 69.7796 430.482 69.7915 430.534 69.7915C430.601 69.7915 430.668 69.7712 430.723 69.7298C430.821 69.6577 430.873 69.5353 430.851 69.4146L430.141 65.2693L433.152 62.3335C433.239 62.2484 433.271 62.1201 433.233 62.0032Z" fill="#FFC50B"/>
<path d="M448.191 62.0032C448.154 61.8859 448.053 61.8008 447.932 61.7831L443.77 61.1782L441.908 57.4062C441.799 57.1868 441.437 57.1868 441.329 57.4062L439.467 61.1782L435.306 61.7831C435.183 61.8008 435.083 61.8859 435.045 62.0032C435.007 62.1206 435.037 62.2482 435.126 62.3335L438.139 65.2693L437.427 69.4146C437.407 69.5358 437.455 69.6577 437.555 69.7298C437.655 69.802 437.787 69.8118 437.896 69.7547L441.619 67.7973L445.341 69.7547C445.388 69.7796 445.44 69.7915 445.492 69.7915C445.559 69.7915 445.625 69.7712 445.681 69.7298C445.78 69.6577 445.83 69.5353 445.809 69.4146L445.099 65.2693L448.111 62.3335C448.197 62.2484 448.229 62.1201 448.191 62.0032Z" fill="#FFC50B"/>
<path d="M463.371 62.0032C463.333 61.8859 463.231 61.8008 463.111 61.7831L458.948 61.1782L457.086 57.4062C456.978 57.1868 456.616 57.1868 456.507 57.4062L454.646 61.1782L450.484 61.7831C450.362 61.8008 450.261 61.8859 450.223 62.0032C450.185 62.1206 450.216 62.2482 450.305 62.3335L453.316 65.2693L452.606 69.4146C452.586 69.5358 452.634 69.6577 452.734 69.7298C452.834 69.802 452.966 69.8118 453.073 69.7547L456.797 67.7973L460.52 69.7547C460.567 69.7796 460.619 69.7915 460.671 69.7915C460.738 69.7915 460.804 69.7712 460.86 69.7298C460.959 69.6577 461.009 69.5353 460.987 69.4146L460.278 65.2693L463.288 62.3335C463.378 62.2484 463.409 62.1201 463.371 62.0032Z" fill="#BEBEBE"/>
<path d="M109.814 233.459V241H107.274V231.49H109.656L109.814 233.459ZM109.463 235.911H108.76C108.76 235.249 108.839 234.64 108.997 234.083C109.161 233.521 109.398 233.034 109.709 232.624C110.025 232.208 110.415 231.886 110.878 231.657C111.341 231.429 111.877 231.314 112.486 231.314C112.908 231.314 113.295 231.379 113.646 231.508C113.998 231.631 114.3 231.827 114.552 232.097C114.81 232.36 115.009 232.706 115.149 233.134C115.29 233.556 115.36 234.062 115.36 234.654V241H112.829V234.936C112.829 234.502 112.771 234.168 112.653 233.934C112.536 233.699 112.369 233.535 112.152 233.441C111.941 233.348 111.687 233.301 111.388 233.301C111.06 233.301 110.772 233.368 110.526 233.503C110.286 233.638 110.087 233.825 109.929 234.065C109.771 234.3 109.653 234.575 109.577 234.892C109.501 235.208 109.463 235.548 109.463 235.911ZM115.123 235.621L114.218 235.735C114.218 235.114 114.294 234.537 114.446 234.004C114.604 233.471 114.836 233.002 115.141 232.598C115.451 232.193 115.835 231.88 116.292 231.657C116.749 231.429 117.276 231.314 117.874 231.314C118.331 231.314 118.747 231.382 119.122 231.517C119.497 231.646 119.816 231.854 120.08 232.141C120.35 232.422 120.555 232.791 120.695 233.248C120.842 233.705 120.915 234.265 120.915 234.927V241H118.375V234.927C118.375 234.487 118.316 234.153 118.199 233.925C118.088 233.69 117.924 233.529 117.707 233.441C117.496 233.348 117.244 233.301 116.951 233.301C116.646 233.301 116.38 233.362 116.151 233.485C115.923 233.603 115.732 233.767 115.58 233.978C115.428 234.188 115.313 234.435 115.237 234.716C115.161 234.991 115.123 235.293 115.123 235.621ZM127.252 241.176C126.514 241.176 125.852 241.059 125.266 240.824C124.68 240.584 124.182 240.253 123.771 239.831C123.367 239.409 123.057 238.92 122.84 238.363C122.623 237.801 122.515 237.203 122.515 236.57V236.219C122.515 235.498 122.617 234.839 122.822 234.241C123.027 233.644 123.32 233.125 123.701 232.686C124.088 232.246 124.557 231.909 125.107 231.675C125.658 231.435 126.279 231.314 126.971 231.314C127.645 231.314 128.242 231.426 128.764 231.648C129.285 231.871 129.722 232.188 130.073 232.598C130.431 233.008 130.7 233.5 130.882 234.074C131.063 234.643 131.154 235.275 131.154 235.973V237.027H123.596V235.34H128.667V235.146C128.667 234.795 128.603 234.481 128.474 234.206C128.351 233.925 128.163 233.702 127.911 233.538C127.659 233.374 127.337 233.292 126.944 233.292C126.61 233.292 126.323 233.365 126.083 233.512C125.843 233.658 125.646 233.863 125.494 234.127C125.348 234.391 125.236 234.701 125.16 235.059C125.09 235.41 125.055 235.797 125.055 236.219V236.57C125.055 236.951 125.107 237.303 125.213 237.625C125.324 237.947 125.479 238.226 125.679 238.46C125.884 238.694 126.13 238.876 126.417 239.005C126.71 239.134 127.041 239.198 127.41 239.198C127.867 239.198 128.292 239.11 128.685 238.935C129.083 238.753 129.426 238.48 129.713 238.117L130.943 239.453C130.744 239.74 130.472 240.016 130.126 240.279C129.786 240.543 129.376 240.76 128.896 240.93C128.415 241.094 127.867 241.176 127.252 241.176ZM135.065 227.5V241H132.534V227.5H135.065ZM134.705 235.911H134.011C134.017 235.249 134.104 234.64 134.274 234.083C134.444 233.521 134.688 233.034 135.004 232.624C135.32 232.208 135.698 231.886 136.138 231.657C136.583 231.429 137.075 231.314 137.614 231.314C138.083 231.314 138.508 231.382 138.889 231.517C139.275 231.646 139.606 231.856 139.882 232.149C140.163 232.437 140.38 232.814 140.532 233.283C140.685 233.752 140.761 234.32 140.761 234.988V241H138.212V234.971C138.212 234.549 138.15 234.218 138.027 233.978C137.91 233.731 137.737 233.559 137.509 233.459C137.286 233.354 137.011 233.301 136.683 233.301C136.319 233.301 136.009 233.368 135.751 233.503C135.499 233.638 135.297 233.825 135.145 234.065C134.992 234.3 134.881 234.575 134.811 234.892C134.74 235.208 134.705 235.548 134.705 235.911Z" fill="#4E4E4E"/>
<path d="M447.808 33.1982C448.118 33.1982 448.394 33.1396 448.634 33.0225C448.874 32.8994 449.062 32.7295 449.196 32.5127C449.337 32.29 449.41 32.0293 449.416 31.7305H451.798C451.792 32.3984 451.613 32.9932 451.262 33.5146C450.91 34.0303 450.438 34.4375 449.847 34.7363C449.255 35.0293 448.593 35.1758 447.86 35.1758C447.122 35.1758 446.478 35.0527 445.927 34.8066C445.382 34.5605 444.928 34.2207 444.564 33.7871C444.201 33.3477 443.929 32.8379 443.747 32.2578C443.565 31.6719 443.475 31.0449 443.475 30.377V30.1221C443.475 29.4482 443.565 28.8213 443.747 28.2412C443.929 27.6553 444.201 27.1455 444.564 26.7119C444.928 26.2725 445.382 25.9297 445.927 25.6836C446.472 25.4375 447.11 25.3145 447.843 25.3145C448.622 25.3145 449.305 25.4639 449.891 25.7627C450.482 26.0615 450.945 26.4893 451.279 27.0459C451.619 27.5967 451.792 28.25 451.798 29.0059H449.416C449.41 28.6895 449.343 28.4023 449.214 28.1445C449.091 27.8867 448.909 27.6816 448.669 27.5293C448.435 27.3711 448.145 27.292 447.799 27.292C447.43 27.292 447.128 27.3711 446.894 27.5293C446.659 27.6816 446.478 27.8926 446.349 28.1621C446.22 28.4258 446.129 28.7275 446.076 29.0674C446.029 29.4014 446.006 29.7529 446.006 30.1221V30.377C446.006 30.7461 446.029 31.1006 446.076 31.4404C446.123 31.7803 446.211 32.082 446.34 32.3457C446.475 32.6094 446.659 32.8174 446.894 32.9697C447.128 33.1221 447.433 33.1982 447.808 33.1982ZM458.398 32.8555V28.6191C458.398 28.3145 458.349 28.0537 458.249 27.8369C458.149 27.6143 457.994 27.4414 457.783 27.3184C457.578 27.1953 457.312 27.1338 456.983 27.1338C456.702 27.1338 456.459 27.1836 456.254 27.2832C456.049 27.377 455.891 27.5146 455.779 27.6963C455.668 27.8721 455.612 28.0801 455.612 28.3203H453.081C453.081 27.916 453.175 27.5322 453.362 27.1689C453.55 26.8057 453.822 26.4863 454.18 26.2109C454.537 25.9297 454.962 25.71 455.454 25.5518C455.952 25.3936 456.509 25.3145 457.124 25.3145C457.862 25.3145 458.519 25.4375 459.093 25.6836C459.667 25.9297 460.118 26.2988 460.446 26.791C460.78 27.2832 460.947 27.8984 460.947 28.6367V32.7061C460.947 33.2275 460.979 33.6553 461.044 33.9893C461.108 34.3174 461.202 34.6045 461.325 34.8506V35H458.768C458.645 34.7422 458.551 34.4199 458.486 34.0332C458.428 33.6406 458.398 33.248 458.398 32.8555ZM458.732 29.208L458.75 30.6406H457.335C457.001 30.6406 456.711 30.6787 456.465 30.7549C456.219 30.8311 456.017 30.9395 455.858 31.0801C455.7 31.2148 455.583 31.373 455.507 31.5547C455.437 31.7363 455.401 31.9355 455.401 32.1523C455.401 32.3691 455.451 32.5654 455.551 32.7412C455.65 32.9111 455.794 33.0459 455.981 33.1455C456.169 33.2393 456.389 33.2861 456.641 33.2861C457.021 33.2861 457.353 33.21 457.634 33.0576C457.915 32.9053 458.132 32.7178 458.284 32.4951C458.442 32.2725 458.524 32.0615 458.53 31.8623L459.198 32.9346C459.104 33.1748 458.976 33.4238 458.812 33.6816C458.653 33.9395 458.451 34.1826 458.205 34.4111C457.959 34.6338 457.663 34.8184 457.317 34.9648C456.972 35.1055 456.562 35.1758 456.087 35.1758C455.483 35.1758 454.936 35.0557 454.443 34.8154C453.957 34.5693 453.57 34.2324 453.283 33.8047C453.002 33.3711 452.861 32.8789 452.861 32.3281C452.861 31.8301 452.955 31.3877 453.143 31.001C453.33 30.6143 453.605 30.2891 453.969 30.0254C454.338 29.7559 454.798 29.5537 455.349 29.4189C455.899 29.2783 456.538 29.208 457.265 29.208H458.732ZM468.515 32.9258V21.5H471.063V35H468.77L468.515 32.9258ZM462.503 30.3594V30.1748C462.503 29.4482 462.585 28.7891 462.749 28.1973C462.913 27.5996 463.153 27.0869 463.47 26.6592C463.786 26.2314 464.176 25.9004 464.639 25.666C465.102 25.4316 465.629 25.3145 466.221 25.3145C466.777 25.3145 467.264 25.4316 467.68 25.666C468.102 25.9004 468.459 26.2344 468.752 26.668C469.051 27.0957 469.291 27.6025 469.473 28.1885C469.654 28.7686 469.786 29.4043 469.868 30.0957V30.5C469.786 31.1621 469.654 31.7773 469.473 32.3457C469.291 32.9141 469.051 33.4121 468.752 33.8398C468.459 34.2617 468.102 34.5898 467.68 34.8242C467.258 35.0586 466.766 35.1758 466.203 35.1758C465.611 35.1758 465.084 35.0557 464.621 34.8154C464.164 34.5752 463.777 34.2383 463.461 33.8047C463.15 33.3711 462.913 32.8613 462.749 32.2754C462.585 31.6895 462.503 31.0508 462.503 30.3594ZM465.034 30.1748V30.3594C465.034 30.752 465.063 31.1182 465.122 31.458C465.187 31.7979 465.289 32.0996 465.43 32.3633C465.576 32.6211 465.764 32.8232 465.992 32.9697C466.227 33.1104 466.511 33.1807 466.845 33.1807C467.278 33.1807 467.636 33.084 467.917 32.8906C468.198 32.6914 468.412 32.4189 468.559 32.0732C468.711 31.7275 468.799 31.3291 468.822 30.8779V29.7266C468.805 29.3574 468.752 29.0264 468.664 28.7334C468.582 28.4346 468.459 28.1797 468.295 27.9688C468.137 27.7578 467.938 27.5938 467.697 27.4766C467.463 27.3594 467.185 27.3008 466.862 27.3008C466.534 27.3008 466.253 27.377 466.019 27.5293C465.784 27.6758 465.594 27.8779 465.447 28.1357C465.307 28.3936 465.201 28.6982 465.131 29.0498C465.066 29.3955 465.034 29.7705 465.034 30.1748ZM477.418 35.1758C476.68 35.1758 476.018 35.0586 475.432 34.8242C474.846 34.584 474.348 34.2529 473.938 33.8311C473.533 33.4092 473.223 32.9199 473.006 32.3633C472.789 31.8008 472.681 31.2031 472.681 30.5703V30.2188C472.681 29.498 472.783 28.8389 472.988 28.2412C473.193 27.6436 473.486 27.125 473.867 26.6855C474.254 26.2461 474.723 25.9092 475.273 25.6748C475.824 25.4346 476.445 25.3145 477.137 25.3145C477.811 25.3145 478.408 25.4258 478.93 25.6484C479.451 25.8711 479.888 26.1875 480.239 26.5977C480.597 27.0078 480.866 27.5 481.048 28.0742C481.229 28.6426 481.32 29.2754 481.32 29.9727V31.0273H473.762V29.3398H478.833V29.1465C478.833 28.7949 478.769 28.4814 478.64 28.2061C478.517 27.9248 478.329 27.7021 478.077 27.5381C477.825 27.374 477.503 27.292 477.11 27.292C476.776 27.292 476.489 27.3652 476.249 27.5117C476.009 27.6582 475.812 27.8633 475.66 28.127C475.514 28.3906 475.402 28.7012 475.326 29.0586C475.256 29.4102 475.221 29.7969 475.221 30.2188V30.5703C475.221 30.9512 475.273 31.3027 475.379 31.625C475.49 31.9473 475.646 32.2256 475.845 32.46C476.05 32.6943 476.296 32.876 476.583 33.0049C476.876 33.1338 477.207 33.1982 477.576 33.1982C478.033 33.1982 478.458 33.1104 478.851 32.9346C479.249 32.7529 479.592 32.4805 479.879 32.1172L481.109 33.4531C480.91 33.7402 480.638 34.0156 480.292 34.2793C479.952 34.543 479.542 34.7598 479.062 34.9297C478.581 35.0938 478.033 35.1758 477.418 35.1758ZM485.434 25.4902V35H482.894V25.4902H485.434ZM482.735 23.0117C482.735 22.6426 482.864 22.3379 483.122 22.0977C483.38 21.8574 483.726 21.7373 484.159 21.7373C484.587 21.7373 484.93 21.8574 485.188 22.0977C485.451 22.3379 485.583 22.6426 485.583 23.0117C485.583 23.3809 485.451 23.6855 485.188 23.9258C484.93 24.166 484.587 24.2861 484.159 24.2861C483.726 24.2861 483.38 24.166 483.122 23.9258C482.864 23.6855 482.735 23.3809 482.735 23.0117ZM490.057 27.5645V35H487.525V25.4902H489.907L490.057 27.5645ZM492.922 25.4287L492.878 27.7754C492.755 27.7578 492.605 27.7432 492.43 27.7314C492.26 27.7139 492.104 27.7051 491.964 27.7051C491.606 27.7051 491.296 27.752 491.032 27.8457C490.774 27.9336 490.558 28.0654 490.382 28.2412C490.212 28.417 490.083 28.6309 489.995 28.8828C489.913 29.1348 489.866 29.4219 489.854 29.7441L489.345 29.5859C489.345 28.9707 489.406 28.4053 489.529 27.8896C489.652 27.3682 489.831 26.9141 490.065 26.5273C490.306 26.1406 490.599 25.8418 490.944 25.6309C491.29 25.4199 491.686 25.3145 492.131 25.3145C492.271 25.3145 492.415 25.3262 492.562 25.3496C492.708 25.3672 492.828 25.3936 492.922 25.4287ZM498.951 32.8555V28.6191C498.951 28.3145 498.901 28.0537 498.802 27.8369C498.702 27.6143 498.547 27.4414 498.336 27.3184C498.131 27.1953 497.864 27.1338 497.536 27.1338C497.255 27.1338 497.012 27.1836 496.807 27.2832C496.602 27.377 496.443 27.5146 496.332 27.6963C496.221 27.8721 496.165 28.0801 496.165 28.3203H493.634C493.634 27.916 493.728 27.5322 493.915 27.1689C494.103 26.8057 494.375 26.4863 494.732 26.2109C495.09 25.9297 495.515 25.71 496.007 25.5518C496.505 25.3936 497.062 25.3145 497.677 25.3145C498.415 25.3145 499.071 25.4375 499.646 25.6836C500.22 25.9297 500.671 26.2988 500.999 26.791C501.333 27.2832 501.5 27.8984 501.5 28.6367V32.7061C501.5 33.2275 501.532 33.6553 501.597 33.9893C501.661 34.3174 501.755 34.6045 501.878 34.8506V35H499.32C499.197 34.7422 499.104 34.4199 499.039 34.0332C498.98 33.6406 498.951 33.248 498.951 32.8555ZM499.285 29.208L499.303 30.6406H497.888C497.554 30.6406 497.264 30.6787 497.018 30.7549C496.771 30.8311 496.569 30.9395 496.411 31.0801C496.253 31.2148 496.136 31.373 496.06 31.5547C495.989 31.7363 495.954 31.9355 495.954 32.1523C495.954 32.3691 496.004 32.5654 496.104 32.7412C496.203 32.9111 496.347 33.0459 496.534 33.1455C496.722 33.2393 496.941 33.2861 497.193 33.2861C497.574 33.2861 497.905 33.21 498.187 33.0576C498.468 32.9053 498.685 32.7178 498.837 32.4951C498.995 32.2725 499.077 32.0615 499.083 31.8623L499.751 32.9346C499.657 33.1748 499.528 33.4238 499.364 33.6816C499.206 33.9395 499.004 34.1826 498.758 34.4111C498.512 34.6338 498.216 34.8184 497.87 34.9648C497.524 35.1055 497.114 35.1758 496.64 35.1758C496.036 35.1758 495.488 35.0557 494.996 34.8154C494.51 34.5693 494.123 34.2324 493.836 33.8047C493.555 33.3711 493.414 32.8789 493.414 32.3281C493.414 31.8301 493.508 31.3877 493.695 31.001C493.883 30.6143 494.158 30.2891 494.521 30.0254C494.891 29.7559 495.351 29.5537 495.901 29.4189C496.452 29.2783 497.091 29.208 497.817 29.208H499.285ZM512.592 25.4902V27.2832H507.055V25.4902H512.592ZM508.426 23.1436H510.957V32.1348C510.957 32.4102 510.992 32.6211 511.062 32.7676C511.139 32.9141 511.25 33.0166 511.396 33.0752C511.543 33.1279 511.728 33.1543 511.95 33.1543C512.108 33.1543 512.249 33.1484 512.372 33.1367C512.501 33.1191 512.609 33.1016 512.697 33.084L512.706 34.9473C512.489 35.0176 512.255 35.0732 512.003 35.1143C511.751 35.1553 511.473 35.1758 511.168 35.1758C510.611 35.1758 510.125 35.085 509.709 34.9033C509.299 34.7158 508.982 34.417 508.76 34.0068C508.537 33.5967 508.426 33.0576 508.426 32.3896V23.1436ZM513.4 30.3418V30.1572C513.4 29.46 513.5 28.8184 513.699 28.2324C513.898 27.6406 514.188 27.1279 514.569 26.6943C514.95 26.2607 515.419 25.9238 515.976 25.6836C516.532 25.4375 517.171 25.3145 517.892 25.3145C518.612 25.3145 519.254 25.4375 519.816 25.6836C520.379 25.9238 520.851 26.2607 521.231 26.6943C521.618 27.1279 521.911 27.6406 522.11 28.2324C522.31 28.8184 522.409 29.46 522.409 30.1572V30.3418C522.409 31.0332 522.31 31.6748 522.11 32.2666C521.911 32.8525 521.618 33.3652 521.231 33.8047C520.851 34.2383 520.382 34.5752 519.825 34.8154C519.269 35.0557 518.63 35.1758 517.909 35.1758C517.188 35.1758 516.547 35.0557 515.984 34.8154C515.428 34.5752 514.956 34.2383 514.569 33.8047C514.188 33.3652 513.898 32.8525 513.699 32.2666C513.5 31.6748 513.4 31.0332 513.4 30.3418ZM515.932 30.1572V30.3418C515.932 30.7402 515.967 31.1123 516.037 31.458C516.107 31.8037 516.219 32.1084 516.371 32.3721C516.529 32.6299 516.734 32.832 516.986 32.9785C517.238 33.125 517.546 33.1982 517.909 33.1982C518.261 33.1982 518.562 33.125 518.814 32.9785C519.066 32.832 519.269 32.6299 519.421 32.3721C519.573 32.1084 519.685 31.8037 519.755 31.458C519.831 31.1123 519.869 30.7402 519.869 30.3418V30.1572C519.869 29.7705 519.831 29.4072 519.755 29.0674C519.685 28.7217 519.57 28.417 519.412 28.1533C519.26 27.8838 519.058 27.6729 518.806 27.5205C518.554 27.3682 518.249 27.292 517.892 27.292C517.534 27.292 517.229 27.3682 516.978 27.5205C516.731 27.6729 516.529 27.8838 516.371 28.1533C516.219 28.417 516.107 28.7217 516.037 29.0674C515.967 29.4072 515.932 29.7705 515.932 30.1572ZM526.496 27.3184V38.6562H523.965V25.4902H526.312L526.496 27.3184ZM532.517 30.1396V30.3242C532.517 31.0156 532.435 31.6572 532.271 32.249C532.112 32.8408 531.878 33.3564 531.567 33.7959C531.257 34.2295 530.87 34.5693 530.407 34.8154C529.95 35.0557 529.423 35.1758 528.825 35.1758C528.245 35.1758 527.741 35.0586 527.313 34.8242C526.886 34.5898 526.525 34.2617 526.232 33.8398C525.945 33.4121 525.714 32.917 525.538 32.3545C525.362 31.792 525.228 31.1885 525.134 30.5439V30.0605C525.228 29.3691 525.362 28.7363 525.538 28.1621C525.714 27.582 525.945 27.0811 526.232 26.6592C526.525 26.2314 526.883 25.9004 527.305 25.666C527.732 25.4316 528.233 25.3145 528.808 25.3145C529.411 25.3145 529.941 25.4287 530.398 25.6572C530.861 25.8857 531.248 26.2139 531.559 26.6416C531.875 27.0693 532.112 27.5791 532.271 28.1709C532.435 28.7627 532.517 29.4189 532.517 30.1396ZM529.977 30.3242V30.1396C529.977 29.7354 529.941 29.3633 529.871 29.0234C529.807 28.6777 529.701 28.376 529.555 28.1182C529.414 27.8604 529.227 27.6611 528.992 27.5205C528.764 27.374 528.485 27.3008 528.157 27.3008C527.812 27.3008 527.516 27.3564 527.27 27.4678C527.029 27.5791 526.833 27.7402 526.681 27.9512C526.528 28.1621 526.414 28.4141 526.338 28.707C526.262 29 526.215 29.3311 526.197 29.7002V30.9219C526.227 31.3555 526.309 31.7451 526.443 32.0908C526.578 32.4307 526.786 32.7002 527.067 32.8994C527.349 33.0986 527.718 33.1982 528.175 33.1982C528.509 33.1982 528.79 33.125 529.019 32.9785C529.247 32.8262 529.432 32.6182 529.572 32.3545C529.719 32.0908 529.821 31.7861 529.88 31.4404C529.944 31.0947 529.977 30.7227 529.977 30.3242Z" fill="#FAFAFA"/>
</svg>
