<svg width="40" height="40" viewBox="0 0 40 40" fill="none" xmlns="http://www.w3.org/2000/svg">
<g clip-path="url(#clip0_5_9)">
<path d="M25.5693 19.2853L19.7153 13.3013C19.3293 12.906 18.6966 12.8993 18.3013 13.2853C17.906 13.6713 17.8993 14.3053 18.2853 14.6993L22.4927 19.0006H1C0.447969 19 0 19.448 0 20C0 20.552 0.447969 21 1 21H22.492L18.2854 25.3013C17.8994 25.6953 17.9061 26.3293 18.3014 26.7153C18.6967 27.1013 19.3294 27.0946 19.7154 26.6993L25.5848 20.6993C25.9706 20.3053 25.964 19.6713 25.5693 19.2853Z" fill="#1E1E1E" stroke="#1E1E1E" stroke-width="1.5"/>
<path d="M39 0H13C12.448 0 12 0.447969 12 1V15H14V2H38V38H14V25H12V39C12 39.552 12.448 40 13 40H39C39.552 40 40 39.552 40 39V1C40 0.447969 39.552 0 39 0Z" fill="#1E1E1E" stroke="#1E1E1E" stroke-width="1.5"/>
</g>
<defs>
<clipPath id="clip0_5_9">
<rect width="40" height="40" fill="white"/>
</clipPath>
</defs>
</svg>
