<svg width="32" height="32" viewBox="0 0 32 32" fill="none" xmlns="http://www.w3.org/2000/svg">
<g clip-path="url(#clip0_146_1073)">
<path d="M20.4554 15.4283L15.7723 10.6411C15.4634 10.3249 14.9573 10.3195 14.6411 10.6283C14.3248 10.9371 14.3194 11.4443 14.6283 11.7595L17.9941 15.2006H0.8C0.358375 15.2001 0 15.5584 0 16.0001C0 16.4417 0.358375 16.8001 0.8 16.8001H17.9936L14.6283 20.2411C14.3195 20.5563 14.3249 21.0635 14.6411 21.3723C14.9574 21.6811 15.4635 21.6757 15.7723 21.3595L20.4678 16.5595C20.7765 16.2443 20.7712 15.7371 20.4554 15.4283Z" fill="#FAFAFA" stroke="#FAFAFA" stroke-width="1.5"/>
<path d="M31.2 0H10.4C9.95838 0 9.60001 0.358375 9.60001 0.8V12H11.2V1.6H30.4V30.4H11.2V20H9.60001V31.2C9.60001 31.6416 9.95838 32 10.4 32H31.2C31.6416 32 32 31.6416 32 31.2V0.8C32 0.358375 31.6416 0 31.2 0Z" fill="#FAFAFA" stroke="#FAFAFA" stroke-width="1.5"/>
</g>
<defs>
<clipPath id="clip0_146_1073">
<rect width="32" height="32" fill="white"/>
</clipPath>
</defs>
</svg>
