<svg width="32" height="32" viewBox="0 0 32 32" fill="none" xmlns="http://www.w3.org/2000/svg">
<g clip-path="url(#clip0_31_116)">
<path d="M20.191 27.7012H3.75115V4.29946H20.1917C20.5561 4.29946 20.8518 4.00369 20.8518 3.63927V1.20816C20.8518 0.843735 20.5561 0.547974 20.1917 0.547974H0.660182C0.295761 0.547974 0 0.843735 0 1.20816V30.7919C0 31.1563 0.295761 31.4521 0.660182 31.4521H20.191C20.5558 31.4521 20.8512 31.1563 20.8512 30.7919V28.3614C20.8512 27.9963 20.5561 27.7012 20.191 27.7012Z" fill="#FAFAFA"/>
<path d="M31.8059 15.5334L22.9192 6.64735C22.6716 6.39945 22.2333 6.39978 21.9857 6.64735L19.8774 8.75597C19.6196 9.01377 19.6196 9.43166 19.8774 9.68946L23.8913 13.704H6.51498C6.15056 13.704 5.8548 13.9998 5.8548 14.3642V17.6361C5.8548 18.0005 6.15056 18.2963 6.51498 18.2963H23.8923L19.8784 22.3108C19.6206 22.5686 19.6206 22.9865 19.8784 23.2443L21.9867 25.3533C22.1105 25.477 22.2788 25.5467 22.4534 25.5467C22.6287 25.5467 22.7964 25.477 22.9202 25.3533L31.8069 16.4672C31.9307 16.3434 32.0003 16.1751 32.0003 16.0005C32 15.8249 31.9297 15.6572 31.8059 15.5334Z" fill="#FAFAFA"/>
</g>
<defs>
<clipPath id="clip0_31_116">
<rect width="32" height="32" fill="white"/>
</clipPath>
</defs>
</svg>
