<svg width="32" height="32" viewBox="0 0 32 32" fill="none" xmlns="http://www.w3.org/2000/svg">
<g clip-path="url(#clip0_29_143)">
<path d="M30.9763 0.369873H13.9655C13.3996 0.369873 12.9418 0.829034 12.9418 1.39412V8.61855L13.682 7.75319C14.0334 7.34176 14.4968 7.08805 14.9892 6.98206V2.41798H29.9525V15.792H14.9893V13.5532L14.5283 14.0923C14.1254 14.5624 13.5567 14.8541 12.9418 14.9116V16.816C12.9418 17.381 13.3996 17.8396 13.9655 17.8396H19.4901L16.6834 30.5824C16.5576 31.1538 16.9188 31.719 17.4907 31.8451C18.0574 31.9696 18.6273 31.6096 18.7518 31.0387L21.6588 17.8397H23.3487L26.2557 31.0387C26.3647 31.5329 26.803 31.8701 27.2891 31.8695C27.3645 31.8695 27.4417 31.8619 27.518 31.8451C28.0899 31.719 28.451 31.1539 28.3242 30.5824L25.5177 17.8396H30.9764C31.5418 17.8396 32.0001 17.381 32.0001 16.816V1.39412C32 0.829034 31.5417 0.369873 30.9763 0.369873Z" fill="#FAFAFA"/>
<path d="M22.8448 6.35031C22.7642 6.14695 22.5354 6.0471 22.3322 6.1276L16.3011 8.25633C15.7476 7.82778 14.949 7.90435 14.4874 8.44119L12.5737 10.6761L10.8768 9.22147C10.888 9.34159 10.9134 9.45831 10.9134 9.58157V12.7393L11.8575 13.5482C12.4177 14.028 13.2558 13.9539 13.7243 13.4045L16.0025 10.7403L17.84 9.6654L22.6755 6.83622C22.8427 6.73983 22.9168 6.53386 22.8448 6.35031Z" fill="#FAFAFA"/>
<path d="M7.18809 6.91663H6.05157C5.18138 6.91663 4.4162 7.33956 3.92983 7.98423L0.441208 11.1961C-0.10237 11.6803 -0.151673 12.5191 0.337828 13.0659L3.18407 16.2428C3.66932 16.7862 4.50931 16.8342 5.05282 16.3459C5.59777 15.8575 5.64381 15.021 5.15548 14.4767L3.19362 12.2859L5.98023 9.79236L4.35728 11.9973L5.94486 13.7698C6.82211 14.7501 6.7394 16.2564 5.75954 17.1343C5.09055 17.734 4.17759 17.8748 3.38612 17.5982C3.38612 17.5982 3.39842 23.7224 3.39842 30.2811C3.39842 31.1584 4.10946 31.8695 4.98678 31.8695C5.86318 31.8695 6.57514 31.1584 6.57514 30.2811C6.57514 23.7244 6.57514 27.4661 6.57514 20.8147H7.63463C7.63463 27.4612 7.63463 23.7224 7.63463 30.2811C7.63463 30.7391 7.50693 31.1632 7.30331 31.5386C7.56983 31.7436 7.90149 31.8695 8.26296 31.8695C9.14074 31.8695 9.85177 31.1584 9.85177 30.2811C9.85177 23.7244 9.8538 26.4731 9.8538 9.58155C9.85393 8.10971 8.66078 6.91663 7.18809 6.91663Z" fill="#FAFAFA"/>
<path d="M5.20443 5.96337C5.62913 6.18413 6.10594 6.32112 6.61813 6.32112C7.13163 6.32112 7.60845 6.18413 8.03439 5.96298C9.02856 5.44791 9.71384 4.42249 9.71384 3.22567C9.71384 1.51602 8.32786 0.130493 6.61807 0.130493C4.90854 0.130493 3.52289 1.51602 3.52289 3.22567C3.52295 4.42314 4.20895 5.44896 5.20443 5.96337Z" fill="#FAFAFA"/>
</g>
<defs>
<clipPath id="clip0_29_143">
<rect width="32" height="32" fill="white"/>
</clipPath>
</defs>
</svg>
