<svg width="36" height="36" viewBox="0 0 36 36" fill="none" xmlns="http://www.w3.org/2000/svg">
<path d="M0.453739 33.4215L10.7827 23.0852C8.74639 20.6431 7.52167 17.5223 7.52167 14.1138C7.52167 6.33755 13.9035 0.0147705 21.7535 0.0147705C29.6034 0.0147705 36 6.34493 36 14.1211C36 21.8973 29.6182 28.2201 21.7682 28.2201C18.4334 28.2201 15.3643 27.0766 12.9296 25.1657L2.56379 35.5315C1.95881 36.1365 1.05872 36.1365 0.453739 35.5315C-0.151241 34.9265 -0.151241 34.0264 0.453739 33.4215ZM32.9751 14.1211C32.9751 8.01231 27.9434 3.04705 21.7682 3.04705C15.593 3.04705 10.5613 8.01231 10.5613 14.1211C10.5613 20.23 15.593 25.1952 21.7682 25.1952C27.9434 25.1952 32.9751 20.2226 32.9751 14.1211Z" fill="#1E1E1E"/>
</svg>
