<svg width="32" height="32" viewBox="0 0 32 32" fill="none" xmlns="http://www.w3.org/2000/svg">
<path d="M31.9718 12.1788C31.9042 11.9612 31.7249 11.8025 31.509 11.7694L21.1472 10.1891L16.5134 0.335428C16.4171 0.129843 16.2178 0 16.0002 0C15.7825 0 15.5826 0.129843 15.4869 0.335428L10.8525 10.1897L0.490755 11.77C0.274813 11.8031 0.0961033 11.9612 0.0279415 12.1794C-0.0390748 12.3964 0.0164857 12.6357 0.172857 12.795L7.67123 20.4653L5.90074 31.2964C5.86409 31.5218 5.9523 31.7497 6.12814 31.8843C6.30513 32.0202 6.5394 32.0376 6.73129 31.93L16.0002 26.8168L25.2679 31.93C25.3515 31.9763 25.4437 31.9991 25.5348 31.9991C25.6534 31.9991 25.7714 31.9607 25.8716 31.8843C26.048 31.7497 26.1362 31.5218 26.099 31.2964L24.3291 20.4659L31.8275 12.795C31.9833 12.6345 32.0394 12.3958 31.9718 12.1788Z" fill="#FAFAFA"/>
</svg>
