<svg width="8" height="32" viewBox="0 0 8 32" fill="none" xmlns="http://www.w3.org/2000/svg">
<path d="M0.830322 28.3396C0.830322 30.0879 2.25217 31.5098 4.00004 31.5098C5.74827 31.5098 7.16977 30.0879 7.16977 28.3396C7.16977 26.5924 5.74834 25.1699 4.00004 25.1699C2.25217 25.1699 0.830322 26.5924 0.830322 28.3396Z" fill="#9E9E9E"/>
<path d="M0.830322 15.9998C0.830322 17.7479 2.25217 19.1699 4.00004 19.1699C5.74827 19.1699 7.16977 17.7479 7.16977 15.9998C7.16977 14.2518 5.74834 12.8296 4.00004 12.8296C2.25217 12.8296 0.830322 14.2518 0.830322 15.9998Z" fill="#9E9E9E"/>
<path d="M0.830322 3.65965C0.830322 5.40732 2.25217 6.82959 4.00004 6.82959C5.74827 6.82959 7.16977 5.40732 7.16977 3.65965C7.16977 1.91241 5.74834 0.490063 4.00004 0.490063C2.25217 0.490063 0.830322 1.91241 0.830322 3.65965Z" fill="#9E9E9E"/>
</svg>
