<svg width="16" height="16" viewBox="0 0 16 16" fill="none" xmlns="http://www.w3.org/2000/svg">
<path d="M2.66669 9.33333H5.33335V14C5.33335 14.1768 5.40359 14.3464 5.52862 14.4714C5.65364 14.5964 5.82321 14.6667 6.00002 14.6667H10C10.1768 14.6667 10.3464 14.5964 10.4714 14.4714C10.5964 14.3464 10.6667 14.1768 10.6667 14V9.33333H13.3334C13.4589 9.33311 13.5818 9.29751 13.688 9.2306C13.7942 9.16369 13.8793 9.06819 13.9337 8.95507C13.9881 8.84195 14.0094 8.71578 13.9953 8.59107C13.9812 8.46635 13.9323 8.34813 13.854 8.24999L8.52069 1.58333C8.26669 1.26666 7.73335 1.26666 7.47935 1.58333L2.14602 8.24999C2.06778 8.34813 2.0188 8.46635 2.00471 8.59107C1.99062 8.71578 2.01198 8.84195 2.06635 8.95507C2.12072 9.06819 2.20589 9.16369 2.31208 9.2306C2.41827 9.29751 2.54118 9.33311 2.66669 9.33333Z" fill="#189AB4"/>
</svg>
