<svg width="120" height="120" viewBox="0 0 120 120" fill="none" xmlns="http://www.w3.org/2000/svg">
<circle cx="60" cy="60" r="58" stroke="#FAFAFA" stroke-width="4"/>
<g clip-path="url(#clip0_21_47)">
<path d="M45.4439 67.6387C45.8304 68.0475 46.2339 68.4369 46.6517 68.8138C50.3006 72.1059 55.099 74.1254 60.3673 74.1254C65.6356 74.1254 70.434 72.1041 74.0828 68.8138C74.5006 68.4369 74.9045 68.0472 75.2906 67.6387C75.6754 67.2299 76.0508 66.8118 76.4039 66.3729C79.2628 62.8025 80.9846 58.2687 80.9846 53.3322C80.9846 41.8658 71.7345 32.5385 60.367 32.5385C48.9994 32.5385 39.75 41.8672 39.75 53.3319C39.75 58.2684 41.4718 62.8025 44.3307 66.3727C44.6823 66.8118 45.0575 67.2285 45.4439 67.6387Z" fill="#FAFAFA"/>
<path d="M26.8858 105.819C26.8858 105.819 45.9771 118.645 59.5 118.645C77.4999 118.645 93.1141 105.819 93.1141 105.819C93.9986 105.819 94.8234 105.385 95.3769 104.628C95.8578 103.971 96.0706 103.138 95.9793 102.283C94.4262 87.7246 86.9865 75.5934 76.8015 69.1254C72.4966 74.3052 66.5536 77.5133 60.0001 77.5133C53.4466 77.5133 47.5034 74.3052 43.1987 69.1254C33.0135 75.5917 25.5722 87.7246 24.0206 102.283C23.9293 103.138 24.1435 103.973 24.623 104.628C25.1765 105.385 26.0013 105.819 26.8858 105.819Z" fill="#FAFAFA"/>
</g>
<defs>
<clipPath id="clip0_21_47">
<rect width="72" height="88.5" fill="white" transform="translate(24 28)"/>
</clipPath>
</defs>
</svg>
