<svg width="128" height="128" viewBox="0 0 128 128" fill="none" xmlns="http://www.w3.org/2000/svg">
<path d="M64 0C28.5922 0 0 28.6801 0 64C0 99.3606 28.6449 128 64 128C99.514 128 128 99.2251 128 64C128 28.597 99.2987 0 64 0ZM96.9345 101.694C87.8116 109.689 76.2423 114.057 64 114.057C51.76 114.057 40.1926 109.69 31.0705 101.699C29.8365 100.618 29.2788 98.9565 29.6079 97.3494C32.7591 81.9574 42.5632 69.8183 55.0431 65.8243C48.5307 61.9693 44.061 54.0492 44.061 44.8976C44.061 31.9604 52.9881 21.4728 64 21.4728C75.0119 21.4728 83.939 31.9604 83.939 44.8976C83.939 54.0478 79.4707 61.9668 72.9603 65.8224C85.4399 69.8155 95.2443 81.9543 98.3966 97.345C98.7254 98.9499 98.1665 100.615 96.9345 101.694Z" fill="#189AB4"/>
</svg>
